<svg width="116" height="116" viewBox="0 0 116 116" fill="none" xmlns="http://www.w3.org/2000/svg">
<path fill-rule="evenodd" clip-rule="evenodd" d="M82.1195 56.5455L62.5741 37L59.968 39.6061L79.5135 59.1515L61.2711 77.3939L63.8771 80L84.7256 59.1515L83.4225 57.8485L82.1195 56.5455Z" fill="#375BD2"/>
<path fill-rule="evenodd" clip-rule="evenodd" d="M33 56.8372L72.3123 56.8372V60.5227L33 60.5227V56.8372Z" fill="#375BD2"/>
<path fill-rule="evenodd" clip-rule="evenodd" d="M58 112C87.8234 112 112 87.8234 112 58C112 28.1766 87.8234 4 58 4C28.1766 4 4 28.1766 4 58C4 87.8234 28.1766 112 58 112ZM58 116C90.0325 116 116 90.0325 116 58C116 25.9675 90.0325 0 58 0C25.9675 0 0 25.9675 0 58C0 90.0325 25.9675 116 58 116Z" fill="#375BD2"/>
</svg>
