<svg width="1440" height="807" viewBox="0 0 1440 807" fill="none" xmlns="http://www.w3.org/2000/svg">
<mask id="mask0" mask-type="alpha" maskUnits="userSpaceOnUse" x="0" y="0" width="1440" height="807">
<rect width="1440" height="807" fill="white"/>
</mask>
<g mask="url(#mask0)">
<g opacity="0.15">
<path d="M1039.88 823.891C1042.71 823.891 1046.1 822.761 1048.36 821.066C1054.57 815.982 1055.7 807.507 1051.18 801.293C1014.46 754.4 995.248 697.904 995.248 638.017C995.248 490.561 1115.02 370.788 1262.48 370.788C1296.94 370.788 1330.84 377.568 1362.48 389.997C1369.82 392.822 1378.3 389.432 1381.12 382.087C1383.95 374.743 1380.56 366.268 1373.21 363.443C1338.18 349.319 1300.9 341.975 1262.48 341.975C1099.2 341.975 967 474.742 967 637.452C967 703.553 988.469 766.265 1028.58 818.242C1031.41 822.196 1035.36 823.891 1039.88 823.891Z" stroke="#4767CE" stroke-width="0.7049" stroke-miterlimit="10"/>
<path d="M1496.37 456.661C1491.29 450.447 1482.81 449.317 1476.6 453.837C1470.39 458.356 1469.26 467.396 1473.78 473.61C1510.5 520.503 1529.71 576.999 1529.71 636.886C1529.71 784.342 1409.93 904.115 1262.48 904.115C1228.01 904.115 1194.12 897.335 1162.48 884.906C1155.13 882.081 1146.66 885.471 1143.83 892.816C1141.01 900.16 1144.4 908.635 1151.74 911.46C1186.77 925.584 1224.06 932.928 1262.48 932.928C1425.75 932.928 1557.96 800.161 1557.96 637.451C1557.96 571.35 1536.49 509.203 1496.37 456.661Z" stroke="#4767CE" stroke-width="0.7049" stroke-miterlimit="10"/>
<path d="M1444.96 633.496C1443.27 627.847 1437.62 623.892 1431.4 623.892H1328.01L1537.05 332.934C1541.01 327.285 1540.44 319.375 1535.36 314.29C1530.27 309.205 1522.36 308.641 1516.71 312.595L1085.08 626.152C1079.99 629.542 1077.73 636.321 1079.99 641.971C1082.25 647.621 1087.34 651.575 1093.55 651.575H1196.94L987.904 942.533C983.949 948.183 984.514 956.093 989.599 961.177C992.423 964.002 995.813 965.132 999.768 965.132C1002.59 965.132 1005.42 964.002 1008.24 962.307L1439.88 648.751C1444.96 645.361 1446.66 639.146 1444.96 633.496ZM1063.04 887.732L1236.49 645.926C1239.88 641.406 1239.88 635.756 1237.62 631.237C1235.36 626.717 1230.27 623.327 1225.19 623.327H1137.62L1462.48 387.736L1289.03 629.542C1285.64 634.062 1285.64 639.711 1287.9 644.231C1290.16 648.751 1295.25 652.14 1300.33 652.14H1387.9L1063.04 887.732Z" stroke="#4767CE" stroke-width="0.7049" stroke-miterlimit="10"/>
</g>
</g>
</svg>
