<svg width="1780" height="997" viewBox="0 0 1780 997" fill="none" xmlns="http://www.w3.org/2000/svg">
<rect x="0.966553" width="1779.03" height="997" fill="white"/>
<mask id="mask0" mask-type="alpha" maskUnits="userSpaceOnUse" x="0" y="0" width="1780" height="997">
<rect x="0.966553" width="1779.03" height="997" fill="white"/>
</mask>
<g mask="url(#mask0)">
<g opacity="0.15">
<path d="M1285.68 1017.87C1289.17 1017.87 1293.35 1016.47 1296.15 1014.38C1303.82 1008.1 1305.22 997.627 1299.64 989.949C1254.27 932.016 1230.54 862.218 1230.54 788.232C1230.54 606.058 1378.51 458.086 1560.68 458.086C1603.26 458.086 1645.14 466.462 1684.22 481.818C1693.3 485.307 1703.77 481.119 1707.26 472.046C1710.75 462.972 1706.56 452.502 1697.49 449.012C1654.21 431.563 1608.14 422.489 1560.68 422.489C1358.96 422.489 1195.64 586.515 1195.64 787.534C1195.64 869.198 1222.16 946.674 1271.72 1010.89C1275.21 1015.77 1280.09 1017.87 1285.68 1017.87Z" stroke="#4767CE" stroke-width="0.7049" stroke-miterlimit="10"/>
<path d="M1849.65 564.178C1843.36 556.5 1832.89 555.104 1825.22 560.688C1817.54 566.272 1816.14 577.439 1821.73 585.117C1867.1 643.05 1890.83 712.848 1890.83 786.834C1890.83 969.008 1742.86 1116.98 1560.68 1116.98C1518.1 1116.98 1476.23 1108.6 1437.14 1093.25C1428.06 1089.76 1417.6 1093.95 1414.11 1103.02C1410.62 1112.09 1414.8 1122.56 1423.88 1126.05C1467.15 1143.5 1513.22 1152.58 1560.68 1152.58C1762.4 1152.58 1925.73 988.551 1925.73 787.532C1925.73 705.868 1899.2 629.09 1849.65 564.178Z" stroke="#4767CE" stroke-width="0.7049" stroke-miterlimit="10"/>
<path d="M1786.13 782.647C1784.04 775.667 1777.06 770.781 1769.38 770.781H1641.65L1899.9 411.32C1904.79 404.34 1904.09 394.568 1897.81 388.287C1891.53 382.005 1881.75 381.307 1874.77 386.193L1341.52 773.573C1335.23 777.761 1332.44 786.137 1335.23 793.116C1338.03 800.096 1344.31 804.982 1351.99 804.982H1479.72L1221.46 1164.44C1216.58 1171.42 1217.27 1181.19 1223.56 1187.48C1227.05 1190.97 1231.23 1192.36 1236.12 1192.36C1239.61 1192.36 1243.1 1190.97 1246.59 1188.87L1779.85 801.492C1786.13 797.304 1788.22 789.627 1786.13 782.647ZM1314.29 1096.74L1528.57 798.002C1532.76 792.419 1532.76 785.439 1529.97 779.855C1527.18 774.271 1520.9 770.083 1514.61 770.083H1406.43L1807.77 479.024L1593.49 777.761C1589.3 783.345 1589.3 790.325 1592.09 795.909C1594.88 801.492 1601.16 805.68 1607.45 805.68H1715.63L1314.29 1096.74Z" stroke="#4767CE" stroke-width="0.7049" stroke-miterlimit="10"/>
</g>
</g>
</svg>
