<svg width="817" height="110" viewBox="0 0 817 110" fill="none" xmlns="http://www.w3.org/2000/svg">
<rect width="817" height="110" fill="#1A2B6B"/>
<mask id="mask0" mask-type="alpha" maskUnits="userSpaceOnUse" x="0" y="0" width="817" height="110">
<rect width="817" height="110" fill="#0E205E"/>
</mask>
<g mask="url(#mask0)">
<path d="M3.8286 146C3.69974 145.957 3.57088 145.871 3.39908 145.828C0.39243 145.27 -0.982036 142.051 0.778999 139.561C2.45413 137.158 4.21517 134.797 5.93325 132.393C16.1129 118.228 26.3355 104.063 36.5151 89.8547C44.3754 78.909 52.2785 67.9632 60.1388 57.0174C60.3535 56.717 60.5253 56.4165 60.8689 55.9443C60.3965 55.9443 60.1388 55.9443 59.8811 55.9443C50.3457 55.9443 40.8103 55.9443 31.275 55.9443C28.8697 55.9443 27.2804 54.6137 27.0227 52.2528C26.8509 50.7934 27.4952 49.5915 28.6978 48.6901C33.4226 45.2561 38.1473 41.8221 42.872 38.3882C54.6409 29.8462 66.4098 21.3042 78.1786 12.7622C90.2482 4.00563 102.275 -4.70805 114.344 -13.4647C127.058 -22.6934 139.772 -31.9222 152.529 -41.151C154.891 -42.868 158.07 -41.8807 158.843 -39.0906C159.186 -37.8458 158.971 -36.6439 158.155 -35.5708C156.008 -32.609 153.903 -29.6472 151.799 -26.6854C140.03 -10.2882 128.218 6.06601 116.449 22.4632C110.607 30.6188 104.723 38.7316 98.8815 46.8872C98.6668 47.1877 98.495 47.4882 98.1943 47.9174C98.6238 47.9174 98.8815 47.9604 99.1393 47.9604C108.761 47.9604 118.382 47.9604 128.003 47.9604C129.807 47.9604 131.31 49.0764 131.869 50.7504C132.384 52.3816 131.826 54.1415 130.408 55.1717C128.862 56.3306 127.273 57.4467 125.684 58.6056C116.277 65.4306 106.871 72.2556 97.4641 79.0806C86.2107 87.2363 74.9572 95.4349 63.7038 103.591C47.5968 115.266 31.5327 126.942 15.4257 138.617C12.5908 140.677 9.75598 142.695 6.9641 144.755C6.10506 145.399 5.16011 145.785 4.12926 146C4.0004 146 3.9145 146 3.8286 146ZM115.418 56.1589C115.375 56.0731 115.332 56.0302 115.332 55.9443C115.074 55.9443 114.817 55.9443 114.559 55.9443C106.57 55.9443 98.5379 55.9443 90.5488 55.9443C88.8737 55.9443 87.4992 55.3004 86.7691 53.7552C86.0389 52.2528 86.2107 50.7934 87.1986 49.4627C95.4883 37.916 103.778 26.4122 112.111 14.8655C120.272 3.53345 128.39 -7.79862 136.551 -19.0878C136.679 -19.2595 136.765 -19.4741 136.894 -19.6458C136.851 -19.6887 136.808 -19.7316 136.765 -19.7746C105.625 2.71789 74.6136 25.2533 43.5593 47.7457C43.6022 47.8316 43.6022 47.8745 43.6452 47.9604C43.9029 47.9604 44.2035 47.9604 44.4613 47.9604C52.4503 47.9604 60.4824 47.9604 68.4715 47.9604C70.1466 47.9604 71.5211 48.6042 72.2512 50.1495C72.9814 51.6519 72.8096 53.1113 71.8217 54.442C62.5441 67.3622 53.2235 80.2825 43.9458 93.2028C36.8158 103.118 29.6857 113.034 22.5127 122.992C22.3839 123.164 22.255 123.379 22.1262 123.593C22.1691 123.636 22.2121 123.679 22.255 123.722C53.3523 101.23 84.3637 78.6943 115.418 56.1589Z" fill="#1F327A"/>
</g>
</svg>
