<svg width="498" height="558" viewBox="0 0 498 558" fill="none" xmlns="http://www.w3.org/2000/svg">
<path d="M249.076 505.132C373.754 505.132 474.824 404.061 474.824 279.384C474.824 154.707 373.754 53.6362 249.076 53.6362C124.399 53.6362 23.3286 154.707 23.3286 279.384C23.3286 404.061 124.399 505.132 249.076 505.132Z" stroke="#375BD2" stroke-width="0.7049" stroke-miterlimit="10"/>
<path d="M249.076 106.019C278.007 106.019 301.459 82.5668 301.459 53.6364C301.459 24.7061 278.007 1.25342 249.076 1.25342C220.146 1.25342 196.693 24.7061 196.693 53.6364C196.693 82.5668 220.146 106.019 249.076 106.019Z" fill="white" stroke="#565656" stroke-width="0.75" stroke-miterlimit="10"/>
<path d="M444.6 218.936C473.53 218.936 496.983 195.483 496.983 166.553C496.983 137.622 473.53 114.17 444.6 114.17C415.67 114.17 392.217 137.622 392.217 166.553C392.217 195.483 415.67 218.936 444.6 218.936Z" fill="white" stroke="#565656" stroke-width="0.75" stroke-miterlimit="10"/>
<path d="M444.515 444.769C473.445 444.769 496.898 421.316 496.898 392.386C496.898 363.455 473.445 340.003 444.515 340.003C415.585 340.003 392.132 363.455 392.132 392.386C392.132 421.316 415.585 444.769 444.515 444.769Z" fill="white" stroke="#565656" stroke-width="0.75" stroke-miterlimit="10"/>
<path d="M248.907 557.6C277.837 557.6 301.29 534.147 301.29 505.217C301.29 476.287 277.837 452.834 248.907 452.834C219.976 452.834 196.524 476.287 196.524 505.217C196.524 534.147 219.976 557.6 248.907 557.6Z" fill="white" stroke="#565656" stroke-width="0.75" stroke-miterlimit="10"/>
<path d="M53.383 444.429C82.3133 444.429 105.766 420.976 105.766 392.046C105.766 363.116 82.3133 339.663 53.383 339.663C24.4527 339.663 1 363.116 1 392.046C1 420.976 24.4527 444.429 53.383 444.429Z" fill="white" stroke="#565656" stroke-width="0.75" stroke-miterlimit="10"/>
<path d="M53.7226 218.681C82.6529 218.681 106.106 195.228 106.106 166.298C106.106 137.368 82.6529 113.915 53.7226 113.915C24.7923 113.915 1.3396 137.368 1.3396 166.298C1.3396 195.228 24.7923 218.681 53.7226 218.681Z" fill="white" stroke="#565656" stroke-width="0.75" stroke-miterlimit="10"/>
<path d="M262.236 81.3137L248.907 62.1264L235.832 81.3137H221.145L241.605 53.2119L222.163 26.0441H236.681L249.416 43.9579L261.896 26.0441H275.735L256.463 52.7025L277.093 81.3137H262.236Z" stroke="#191919" stroke-width="0.7049" stroke-miterlimit="10"/>
<path d="M266.736 52.6176L277.008 38.1847V66.8807L266.736 52.6176Z" stroke="#375BD2" stroke-width="0.7049" stroke-miterlimit="10"/>
<path d="M446.043 176.91L440.865 182.089L413.612 154.836C413.102 154.327 413.442 153.393 414.206 153.393H427.79C429.148 153.393 430.507 153.903 431.441 154.921L446.043 169.524C448.081 171.562 448.081 174.873 446.043 176.91Z" stroke="#191919" stroke-width="0.7049" stroke-miterlimit="10"/>
<path d="M440.864 182.089L429.997 192.956C429.063 193.89 427.705 194.485 426.347 194.485H412.763C411.999 194.485 411.659 193.551 412.168 193.041L431.101 174.109C431.61 173.599 431.61 172.835 431.101 172.411L440.864 182.089Z" stroke="#191919" stroke-width="0.7049" stroke-miterlimit="10"/>
<path d="M476.862 178.269C477.371 178.778 477.032 179.712 476.268 179.712H462.684C461.325 179.712 459.967 179.203 459.033 178.184L448.166 167.317L457.929 157.553C457.42 158.063 457.42 158.827 457.929 159.251L476.862 178.269Z" stroke="#375BD2" stroke-width="0.7049" stroke-miterlimit="10"/>
<path d="M474.824 138.621C475.588 138.621 475.928 139.555 475.419 140.064L457.929 157.553L448.166 167.317L442.987 162.138C440.949 160.1 440.949 156.874 442.987 154.837L457.59 140.234C458.524 139.3 459.882 138.706 461.24 138.706L474.824 138.621Z" stroke="#375BD2" stroke-width="0.7049" stroke-miterlimit="10"/>
<path d="M44.2138 173.09H27.5735C25.7906 173.09 24.3474 171.647 24.3474 169.864V143.121C24.3474 141.338 25.7906 139.895 27.5735 139.895H54.4018C56.1847 139.895 57.628 141.338 57.628 143.121V161.374" stroke="#191919" stroke-width="0.7049" stroke-miterlimit="10"/>
<path d="M33.7712 151.78C35.131 151.78 36.2333 150.678 36.2333 149.318C36.2333 147.959 35.131 146.856 33.7712 146.856C32.4115 146.856 31.3091 147.959 31.3091 149.318C31.3091 150.678 32.4115 151.78 33.7712 151.78Z" stroke="#191919" stroke-width="0.7049" stroke-miterlimit="10"/>
<path d="M48.2042 151.78C49.5639 151.78 50.6662 150.678 50.6662 149.318C50.6662 147.959 49.5639 146.856 48.2042 146.856C46.8444 146.856 45.7421 147.959 45.7421 149.318C45.7421 150.678 46.8444 151.78 48.2042 151.78Z" stroke="#191919" stroke-width="0.7049" stroke-miterlimit="10"/>
<path d="M33.7712 166.213C35.131 166.213 36.2333 165.111 36.2333 163.751C36.2333 162.392 35.131 161.289 33.7712 161.289C32.4115 161.289 31.3091 162.392 31.3091 163.751C31.3091 165.111 32.4115 166.213 33.7712 166.213Z" stroke="#191919" stroke-width="0.7049" stroke-miterlimit="10"/>
<path d="M48.2042 166.213C49.5639 166.213 50.6662 165.111 50.6662 163.751C50.6662 162.392 49.5639 161.289 48.2042 161.289C46.8444 161.289 45.7421 162.392 45.7421 163.751C45.7421 165.111 46.8444 166.213 48.2042 166.213Z" stroke="#191919" stroke-width="0.7049" stroke-miterlimit="10"/>
<path d="M81.9941 181.835L63.8256 196.777C62.637 197.796 60.8541 197.626 59.8353 196.438L44.893 178.269C43.8742 177.081 44.044 175.298 45.2326 174.279L63.4011 159.337C64.5897 158.318 66.3726 158.488 67.3914 159.676L82.3337 177.845C83.3525 179.033 83.1827 180.816 81.9941 181.835Z" stroke="#375BD2" stroke-width="0.7049" stroke-miterlimit="10"/>
<path d="M63.6558 180.561C65.0625 180.561 66.2028 179.421 66.2028 178.014C66.2028 176.608 65.0625 175.467 63.6558 175.467C62.2492 175.467 61.1088 176.608 61.1088 178.014C61.1088 179.421 62.2492 180.561 63.6558 180.561Z" stroke="#375BD2" stroke-width="0.7049" stroke-miterlimit="10"/>
<path d="M410.725 397.904L432.205 408.431L449.354 388.905L475.588 373.708" stroke="#191919" stroke-width="0.7049" stroke-miterlimit="10"/>
<path d="M432.205 410.724C433.471 410.724 434.497 409.697 434.497 408.431C434.497 407.165 433.471 406.139 432.205 406.139C430.939 406.139 429.912 407.165 429.912 408.431C429.912 409.697 430.939 410.724 432.205 410.724Z" fill="white" stroke="#191919" stroke-width="0.7049" stroke-miterlimit="10"/>
<path d="M410.725 400.196C411.991 400.196 413.017 399.17 413.017 397.904C413.017 396.638 411.991 395.612 410.725 395.612C409.459 395.612 408.433 396.638 408.433 397.904C408.433 399.17 409.459 400.196 410.725 400.196Z" fill="white" stroke="#191919" stroke-width="0.7049" stroke-miterlimit="10"/>
<path d="M449.354 391.197C450.62 391.197 451.647 390.17 451.647 388.904C451.647 387.638 450.62 386.612 449.354 386.612C448.088 386.612 447.062 387.638 447.062 388.904C447.062 390.17 448.088 391.197 449.354 391.197Z" fill="white" stroke="#191919" stroke-width="0.7049" stroke-miterlimit="10"/>
<path d="M475.588 376C476.854 376 477.881 374.974 477.881 373.708C477.881 372.442 476.854 371.415 475.588 371.415C474.322 371.415 473.296 372.442 473.296 373.708C473.296 374.974 474.322 376 475.588 376Z" fill="white" stroke="#191919" stroke-width="0.7049" stroke-miterlimit="10"/>
<path d="M452.75 418.535H446.468C446.043 418.535 445.704 418.195 445.704 417.77V402.573C445.704 402.149 446.043 401.809 446.468 401.809H452.75C453.175 401.809 453.515 402.149 453.515 402.573V417.77C453.515 418.195 453.175 418.535 452.75 418.535Z" stroke="#375BD2" stroke-width="0.7049" stroke-miterlimit="10"/>
<path d="M449.609 418.535V421.931" stroke="#375BD2" stroke-width="0.7049" stroke-miterlimit="10"/>
<path d="M449.609 398.498V401.894" stroke="#375BD2" stroke-width="0.7049" stroke-miterlimit="10"/>
<path d="M475.079 405.205H468.796C468.372 405.205 468.032 404.866 468.032 404.441V389.329C468.032 388.905 468.372 388.565 468.796 388.565H475.079C475.503 388.565 475.843 388.905 475.843 389.329V404.526C475.843 404.866 475.503 405.205 475.079 405.205Z" stroke="#375BD2" stroke-width="0.7049" stroke-miterlimit="10"/>
<path d="M472.023 405.205V408.601" stroke="#375BD2" stroke-width="0.7049" stroke-miterlimit="10"/>
<path d="M472.023 385.169V388.565" stroke="#375BD2" stroke-width="0.7049" stroke-miterlimit="10"/>
<path d="M464.212 406.649H457.929C457.505 406.649 457.165 406.309 457.165 405.885V397.649C457.165 397.225 457.505 396.885 457.929 396.885H464.212C464.636 396.885 464.976 397.225 464.976 397.649V405.885C464.976 406.309 464.636 406.649 464.212 406.649Z" stroke="#191919" stroke-width="0.7049" stroke-miterlimit="10"/>
<path d="M461.071 406.649V409.96" stroke="#191919" stroke-width="0.7049" stroke-miterlimit="10"/>
<path d="M461.071 393.489V396.885" stroke="#191919" stroke-width="0.7049" stroke-miterlimit="10"/>
<path d="M248.143 481.53C234.728 481.53 223.776 492.737 223.776 505.981C223.776 519.31 234.728 530.178 248.143 530.178C261.217 530.178 272.509 519.48 272.509 505.981C272.424 492.907 261.642 481.53 248.143 481.53ZM249.756 488.152L256.463 483.228C260.793 484.841 264.613 487.643 267.415 491.294L264.698 499.104L256.887 501.482L249.756 496.048V488.152ZM239.737 483.228L246.529 488.152V496.133L239.143 501.142L231.927 498.68L229.38 490.614C232.097 487.218 235.662 484.671 239.737 483.228ZM227.767 519.056C225.389 515.405 223.861 511.075 223.776 506.406L230.738 501.651L238.04 504.113L240.841 512.858L236.172 519.141L227.767 519.056ZM254.255 529.329C252.303 529.838 250.18 530.178 248.058 530.178C245.68 530.178 243.388 529.838 241.266 529.159L238.804 521.093L243.473 514.896H252.472L257.057 521.348L254.255 529.329ZM259.774 519.48L255.104 512.858L257.821 504.538L265.632 502.161L272.424 507.17C272.169 511.839 270.556 516.084 268.094 519.65L259.774 519.48ZM247.803 499.359L241.181 503.859L244.152 512.094H251.623L254.765 503.859L247.803 499.359Z" stroke="#191919" stroke-width="0.7049" stroke-miterlimit="10"/>
<path d="M270.641 530.517C276.596 530.517 281.423 525.69 281.423 519.735C281.423 513.78 276.596 508.952 270.641 508.952C264.686 508.952 259.859 513.78 259.859 519.735C259.859 525.69 264.686 530.517 270.641 530.517Z" fill="white" stroke="#375BD2" stroke-width="0.7049" stroke-miterlimit="10"/>
<path d="M275.141 514.811C273.018 513.367 266.056 512.943 266.056 516.594C266.056 520.754 275.65 518.886 275.65 522.791C275.65 526.951 267.075 525.933 265.547 524.065" stroke="#375BD2" stroke-width="0.7049" stroke-miterlimit="10"/>
<path d="M270.641 511.5V527.885" stroke="#375BD2" stroke-width="0.7049" stroke-miterlimit="10"/>
<path d="M92.7764 409.111H13.9897C12.2068 409.111 10.8484 407.667 10.8484 405.884V378.207C10.8484 376.424 12.2917 374.981 13.9897 374.981H92.7764C94.5593 374.981 95.9177 376.424 95.9177 378.207V405.884C96.0026 407.667 94.5593 409.111 92.7764 409.111Z" stroke="#191919" stroke-width="0.7049" stroke-miterlimit="10"/>
<path d="M70.4478 384.999L85.1354 399.602" stroke="#191919" stroke-width="0.7049" stroke-miterlimit="10"/>
<path d="M70.4478 399.602L85.1354 384.999" stroke="#191919" stroke-width="0.7049" stroke-miterlimit="10"/>
<path d="M48.7985 384.999L63.4012 399.602" stroke="#191919" stroke-width="0.7049" stroke-miterlimit="10"/>
<path d="M48.7985 399.602L63.4012 384.999" stroke="#191919" stroke-width="0.7049" stroke-miterlimit="10"/>
<path d="M36.0636 387.461C33.9411 386.018 27.0642 385.594 27.0642 389.244C27.0642 393.404 36.573 391.537 36.573 395.357C36.573 399.517 28.083 398.413 26.5548 396.63" stroke="#375BD2" stroke-width="0.7049" stroke-miterlimit="10"/>
<path d="M31.5638 384.15V400.451" stroke="#375BD2" stroke-width="0.7049" stroke-miterlimit="10"/>
<path d="M31.5639 402.998C37.4718 402.998 42.2612 398.209 42.2612 392.301C42.2612 386.393 37.4718 381.603 31.5639 381.603C25.6559 381.603 20.8665 386.393 20.8665 392.301C20.8665 398.209 25.6559 402.998 31.5639 402.998Z" stroke="#375BD2" stroke-width="0.7049" stroke-miterlimit="10"/>
<path d="M215.626 307.401C216.051 307.401 216.56 307.231 216.9 306.976C217.833 306.212 218.003 304.939 217.324 304.005C211.806 296.958 208.919 288.468 208.919 279.469C208.919 257.31 226.918 239.312 249.076 239.312C254.255 239.312 259.349 240.33 264.104 242.198C265.207 242.623 266.481 242.113 266.905 241.01C267.33 239.906 266.82 238.632 265.717 238.208C260.453 236.085 254.85 234.982 249.076 234.982C224.541 234.982 204.674 254.933 204.674 279.384C204.674 289.317 207.9 298.741 213.928 306.552C214.353 307.146 214.947 307.401 215.626 307.401Z" stroke="#375BD2" stroke-width="0.7049" stroke-miterlimit="10"/>
<path d="M284.225 252.216C283.461 251.282 282.187 251.112 281.253 251.792C280.319 252.471 280.15 253.829 280.829 254.763C286.347 261.81 289.234 270.3 289.234 279.299C289.234 301.458 271.235 319.456 249.076 319.456C243.898 319.456 238.804 318.438 234.049 316.57C232.946 316.145 231.672 316.655 231.248 317.758C230.823 318.862 231.332 320.136 232.436 320.56C237.7 322.683 243.303 323.786 249.076 323.786C273.612 323.786 293.479 303.835 293.479 279.384C293.479 269.451 290.253 260.112 284.225 252.216Z" stroke="#375BD2" stroke-width="0.7049" stroke-miterlimit="10"/>
<path d="M276.499 278.79C276.244 277.941 275.395 277.347 274.461 277.347H258.925L290.338 233.623C290.932 232.774 290.847 231.586 290.083 230.822C289.319 230.057 288.13 229.973 287.281 230.567L222.418 277.686C221.654 278.196 221.314 279.214 221.654 280.063C221.994 280.912 222.758 281.507 223.692 281.507H239.228L207.815 325.23C207.221 326.079 207.306 327.267 208.07 328.032C208.494 328.456 209.004 328.626 209.598 328.626C210.023 328.626 210.447 328.456 210.872 328.201L275.735 281.082C276.499 280.573 276.754 279.639 276.499 278.79ZM219.107 316.995L245.171 280.658C245.68 279.978 245.681 279.129 245.341 278.45C245.001 277.771 244.237 277.262 243.473 277.262H230.314L279.131 241.859L253.067 278.196C252.557 278.875 252.557 279.724 252.897 280.403C253.237 281.082 254.001 281.592 254.765 281.592H267.924L219.107 316.995Z" stroke="#375BD2" stroke-width="0.7049" stroke-miterlimit="10"/>
</svg>
