<?xml version="1.0" encoding="utf-8"?>
<!-- Generator: Adobe Illustrator 24.3.0, SVG Export Plug-In . SVG Version: 6.00 Build 0)  -->
<svg version="1.1" id="Layer_1" xmlns="http://www.w3.org/2000/svg" xmlns:xlink="http://www.w3.org/1999/xlink" x="0px" y="0px"
	 viewBox="0 0 559.8 627.2" style="enable-background:new 0 0 559.8 627.2;" xml:space="preserve">
<style type="text/css">
	.st0{fill:#FFFFFF;stroke:#565656;stroke-width:0.75;stroke-miterlimit:10;}
	.st1{fill:#FFFFFF;stroke:#5F7CF9;stroke-width:6;stroke-linecap:round;stroke-miterlimit:10;}
	.st2{fill:#FFFFFF;stroke:#9EE8C3;stroke-width:6;stroke-linecap:round;stroke-miterlimit:10;}
	.st3{fill:none;stroke:#3F3F3F;stroke-width:0.7049;stroke-miterlimit:10;}
	.st4{fill:#FFFFFF;stroke:#3F3F3F;stroke-width:0.7049;stroke-miterlimit:10;}
	.st5{fill:none;stroke:#565656;stroke-width:0.5;stroke-miterlimit:10;}
	.st6{fill:none;stroke:#9EE8C3;stroke-width:9;stroke-linecap:round;stroke-miterlimit:10;}
	.st7{fill:none;stroke:#FFEDB3;stroke-width:9;stroke-linecap:round;stroke-miterlimit:10;}
	.st8{fill:none;stroke:#5F7CF9;stroke-width:9;stroke-linecap:round;stroke-miterlimit:10;}
</style>
<path class="st0" d="M280,539.8c124.7,0,225.7-101.1,225.7-225.7S404.7,88.3,280,88.3C155.3,88.3,54.2,189.3,54.2,314
	S155.3,539.8,280,539.8z"/>
<path class="st1" d="M475.5,266.3c36,0,65.1-29.2,65.1-65.1c0-36-29.2-65.1-65.1-65.1s-65.1,29.2-65.1,65.1
	C410.4,237.1,439.5,266.3,475.5,266.3z"/>
<path class="st2" d="M280.7,153.4c36,0,65.1-29.2,65.1-65.1c0-36-29.2-65.1-65.1-65.1s-65.1,29.2-65.1,65.1
	C215.5,124.3,244.7,153.4,280.7,153.4z"/>
<path class="st0" d="M280,140.6c28.9,0,52.4-23.5,52.4-52.4c0-28.9-23.5-52.4-52.4-52.4c-28.9,0-52.4,23.5-52.4,52.4
	C227.6,117.2,251,140.6,280,140.6z"/>
<path class="st0" d="M475.5,253.6c28.9,0,52.4-23.5,52.4-52.4c0-28.9-23.5-52.4-52.4-52.4s-52.4,23.5-52.4,52.4
	C423.1,230.1,446.6,253.6,475.5,253.6z"/>
<path class="st0" d="M475.4,479.4c28.9,0,52.4-23.5,52.4-52.4c0-28.9-23.5-52.4-52.4-52.4c-28.9,0-52.4,23.5-52.4,52.4
	C423,455.9,446.5,479.4,475.4,479.4z"/>
<path class="st0" d="M279.8,592.2c28.9,0,52.4-23.5,52.4-52.4s-23.5-52.4-52.4-52.4c-28.9,0-52.4,23.5-52.4,52.4
	S250.9,592.2,279.8,592.2z"/>
<path class="st0" d="M84.3,479.1c28.9,0,52.4-23.5,52.4-52.4c0-28.9-23.5-52.4-52.4-52.4s-52.4,23.5-52.4,52.4
	C31.9,455.6,55.4,479.1,84.3,479.1z"/>
<path class="st0" d="M84.6,253.3c28.9,0,52.4-23.5,52.4-52.4s-23.5-52.4-52.4-52.4S32.2,172,32.2,200.9S55.7,253.3,84.6,253.3z"/>
<path class="st3" d="M293.1,115.9l-13.3-19.2l-13.1,19.2H252l20.5-28.1l-19.4-27.2h14.5l12.7,17.9l12.5-17.9h13.8l-19.3,26.7
	l20.6,28.6H293.1z"/>
<path class="st3" d="M297.6,87.2l10.3-14.4v28.7L297.6,87.2z"/>
<path class="st3" d="M476.9,211.5l-5.2,5.2l-27.3-27.3c-0.5-0.5-0.2-1.4,0.6-1.4h13.6c1.4,0,2.7,0.5,3.7,1.5l14.6,14.6
	C479,206.2,479,209.5,476.9,211.5z"/>
<path class="st3" d="M471.8,216.7l-10.9,10.9c-0.9,0.9-2.3,1.5-3.7,1.5h-13.6c-0.8,0-1.1-0.9-0.6-1.4l18.9-18.9
	c0.5-0.5,0.5-1.3,0-1.7L471.8,216.7z"/>
<path class="st3" d="M507.8,212.9c0.5,0.5,0.2,1.4-0.6,1.4h-13.6c-1.4,0-2.7-0.5-3.7-1.5l-10.9-10.9l9.8-9.8c-0.5,0.5-0.5,1.3,0,1.7
	L507.8,212.9z"/>
<path class="st3" d="M505.7,173.2c0.8,0,1.1,0.9,0.6,1.4l-17.5,17.5l-9.8,9.8l-5.2-5.2c-2-2-2-5.3,0-7.3l14.6-14.6
	c0.9-0.9,2.3-1.5,3.6-1.5L505.7,173.2z"/>
<path class="st3" d="M75.1,207.7H58.5c-1.8,0-3.2-1.4-3.2-3.2v-26.7c0-1.8,1.4-3.2,3.2-3.2h26.8c1.8,0,3.2,1.4,3.2,3.2V196"/>
<path class="st3" d="M64.7,186.4c1.4,0,2.5-1.1,2.5-2.5c0-1.4-1.1-2.5-2.5-2.5c-1.4,0-2.5,1.1-2.5,2.5
	C62.2,185.3,63.3,186.4,64.7,186.4z"/>
<path class="st3" d="M79.1,186.4c1.4,0,2.5-1.1,2.5-2.5c0-1.4-1.1-2.5-2.5-2.5c-1.4,0-2.5,1.1-2.5,2.5
	C76.6,185.3,77.7,186.4,79.1,186.4z"/>
<path class="st3" d="M64.7,200.8c1.4,0,2.5-1.1,2.5-2.5c0-1.4-1.1-2.5-2.5-2.5c-1.4,0-2.5,1.1-2.5,2.5
	C62.2,199.7,63.3,200.8,64.7,200.8z"/>
<path class="st3" d="M79.1,200.8c1.4,0,2.5-1.1,2.5-2.5c0-1.4-1.1-2.5-2.5-2.5c-1.4,0-2.5,1.1-2.5,2.5
	C76.6,199.7,77.7,200.8,79.1,200.8z"/>
<path class="st3" d="M112.9,216.5l-18.2,14.9c-1.2,1-3,0.8-4-0.3l-14.9-18.2c-1-1.2-0.8-3,0.3-4L94.3,194c1.2-1,3-0.8,4,0.3
	l14.9,18.2C114.3,213.7,114.1,215.4,112.9,216.5z"/>
<path class="st3" d="M94.6,215.2c1.4,0,2.5-1.1,2.5-2.5c0-1.4-1.1-2.5-2.5-2.5c-1.4,0-2.5,1.1-2.5,2.5C92,214,93.1,215.2,94.6,215.2
	z"/>
<path class="st3" d="M441.6,432.5l21.5,10.5l17.1-19.5l26.2-15.2"/>
<path class="st4" d="M463.1,445.3c1.3,0,2.3-1,2.3-2.3s-1-2.3-2.3-2.3c-1.3,0-2.3,1-2.3,2.3S461.8,445.3,463.1,445.3z"/>
<path class="st4" d="M441.6,434.8c1.3,0,2.3-1,2.3-2.3c0-1.3-1-2.3-2.3-2.3s-2.3,1-2.3,2.3C439.3,433.8,440.4,434.8,441.6,434.8z"/>
<path class="st4" d="M480.3,425.8c1.3,0,2.3-1,2.3-2.3c0-1.3-1-2.3-2.3-2.3s-2.3,1-2.3,2.3C478,424.8,479,425.8,480.3,425.8z"/>
<path class="st4" d="M506.5,410.6c1.3,0,2.3-1,2.3-2.3c0-1.3-1-2.3-2.3-2.3c-1.3,0-2.3,1-2.3,2.3
	C504.2,409.6,505.2,410.6,506.5,410.6z"/>
<path class="st3" d="M483.6,453.2h-6.3c-0.4,0-0.8-0.3-0.8-0.8v-15.2c0-0.4,0.3-0.8,0.8-0.8h6.3c0.4,0,0.8,0.3,0.8,0.8v15.2
	C484.4,452.8,484.1,453.2,483.6,453.2z"/>
<path class="st3" d="M480.5,453.2v3.4"/>
<path class="st3" d="M480.5,433.1v3.4"/>
<path class="st3" d="M506,439.8h-6.3c-0.4,0-0.8-0.3-0.8-0.8V424c0-0.4,0.3-0.8,0.8-0.8h6.3c0.4,0,0.8,0.3,0.8,0.8v15.2
	C506.7,439.5,506.4,439.8,506,439.8z"/>
<path class="st3" d="M502.9,439.8v3.4"/>
<path class="st3" d="M502.9,419.8v3.4"/>
<path class="st3" d="M495.1,441.3h-6.3c-0.4,0-0.8-0.3-0.8-0.8v-8.2c0-0.4,0.3-0.8,0.8-0.8h6.3c0.4,0,0.8,0.3,0.8,0.8v8.2
	C495.9,440.9,495.5,441.3,495.1,441.3z"/>
<path class="st3" d="M492,441.3v3.3"/>
<path class="st3" d="M492,428.1v3.4"/>
<path class="st3" d="M279,516.2c-13.4,0-24.4,11.2-24.4,24.5c0,13.3,11,24.2,24.4,24.2c13.1,0,24.4-10.7,24.4-24.2
	C303.3,527.5,292.5,516.2,279,516.2z M280.7,522.8l6.7-4.9c4.3,1.6,8.1,4.4,11,8.1l-2.7,7.8l-7.8,2.4l-7.1-5.4V522.8z M270.6,517.8
	l6.8,4.9v8l-7.4,5l-7.2-2.5l-2.5-8.1C263,521.8,266.6,519.3,270.6,517.8z M258.7,553.7c-2.4-3.7-3.9-8-4-12.7l7-4.8l7.3,2.5l2.8,8.7
	l-4.7,6.3L258.7,553.7z M285.2,564c-2,0.5-4.1,0.8-6.2,0.8c-2.4,0-4.7-0.3-6.8-1l-2.5-8.1l4.7-6.2h9l4.6,6.5L285.2,564z
	 M290.7,554.1l-4.7-6.6l2.7-8.3l7.8-2.4l6.8,5c-0.3,4.7-1.9,8.9-4.3,12.5L290.7,554.1z M278.7,534l-6.6,4.5l3,8.2h7.5l3.1-8.2
	L278.7,534z"/>
<path class="st4" d="M301.5,565.1c6,0,10.8-4.8,10.8-10.8c0-6-4.8-10.8-10.8-10.8c-6,0-10.8,4.8-10.8,10.8
	C290.8,560.3,295.6,565.1,301.5,565.1z"/>
<path class="st3" d="M306,549.4c-2.1-1.4-9.1-1.9-9.1,1.8c0,4.2,9.6,2.3,9.6,6.2c0,4.2-8.6,3.1-10.1,1.3"/>
<path class="st3" d="M301.5,546.1v16.4"/>
<path class="st3" d="M123.7,443.7H44.9c-1.8,0-3.1-1.4-3.1-3.2v-27.7c0-1.8,1.4-3.2,3.1-3.2h78.8c1.8,0,3.1,1.4,3.1,3.2v27.7
	C126.9,442.3,125.5,443.7,123.7,443.7z"/>
<path class="st3" d="M101.3,419.6l14.7,14.6"/>
<path class="st3" d="M101.3,434.2l14.7-14.6"/>
<path class="st3" d="M79.7,419.6l14.6,14.6"/>
<path class="st3" d="M79.7,434.2l14.6-14.6"/>
<path class="st3" d="M67,422.1c-2.1-1.4-9-1.9-9,1.8c0,4.2,9.5,2.3,9.5,6.1c0,4.2-8.5,3.1-10,1.3"/>
<path class="st3" d="M62.5,418.8v16.3"/>
<path class="st3" d="M62.5,437.6c5.9,0,10.7-4.8,10.7-10.7c0-5.9-4.8-10.7-10.7-10.7c-5.9,0-10.7,4.8-10.7,10.7
	C51.8,432.8,56.6,437.6,62.5,437.6z"/>
<path class="st5" d="M249.8,339.3c0.4,0,0.8-0.2,1.1-0.4c0.8-0.7,1-1.8,0.4-2.7c-5-6.4-7.6-14-7.6-22.1c0-20,16.2-36.2,36.2-36.2
	c4.7,0,9.3,0.9,13.6,2.6c1,0.4,2.1-0.1,2.5-1.1c0.4-1-0.1-2.1-1.1-2.5c-4.7-1.9-9.8-2.9-15-2.9c-22.1,0-40,18-40,40
	c0,9,2.9,17.5,8.3,24.5C248.7,339,249.2,339.3,249.8,339.3z"/>
<path class="st5" d="M311.7,289.5c-0.7-0.8-1.8-1-2.7-0.4c-0.8,0.6-1,1.8-0.4,2.7c5,6.4,7.6,14,7.6,22.1c0,20-16.2,36.2-36.2,36.2
	c-4.7,0-9.3-0.9-13.5-2.6c-1-0.4-2.1,0.1-2.5,1.1c-0.4,1,0.1,2.1,1.1,2.5c4.7,1.9,9.8,2.9,15,2.9c22.1,0,40-18,40-40
	C320,305.1,317.1,296.6,311.7,289.5z"/>
<path class="st5" d="M304.7,313.5c-0.2-0.8-1-1.3-1.8-1.3h-14l28.3-39.4c0.5-0.8,0.5-1.8-0.2-2.5c-0.7-0.7-1.8-0.8-2.5-0.2
	l-58.5,42.5c-0.7,0.5-1,1.4-0.7,2.1c0.3,0.8,1,1.3,1.8,1.3h14l-28.3,39.4c-0.5,0.8-0.5,1.8,0.2,2.5c0.4,0.4,0.8,0.5,1.4,0.5
	c0.4,0,0.8-0.2,1.1-0.4l58.5-42.5C304.7,315.1,304.9,314.2,304.7,313.5z M253,347.9l23.5-32.8c0.5-0.6,0.5-1.4,0.2-2
	c-0.3-0.6-1-1.1-1.7-1.1h-11.9l44-31.9l-23.5,32.8c-0.5,0.6-0.5,1.4-0.2,2c0.3,0.6,1,1.1,1.7,1.1H297L253,347.9z"/>
<path class="st6" d="M346.3,301.6c6.9,36.6-17.2,71.9-53.9,78.8"/>
<path class="st7" d="M295.5,379.6c-36.3,8.6-72.6-13.8-81.3-50"/>
<path class="st8" d="M213.7,326.5c-6.9-36.6,17.2-71.9,53.9-78.8"/>
</svg>
