<?xml version="1.0" encoding="utf-8"?>
<!-- Generator: Adobe Illustrator 24.3.0, SVG Export Plug-In . SVG Version: 6.00 Build 0)  -->
<svg version="1.1" id="Layer_1" xmlns="http://www.w3.org/2000/svg" xmlns:xlink="http://www.w3.org/1999/xlink" x="0px" y="0px"
	 viewBox="0 0 499 552" style="enable-background:new 0 0 499 552;" xml:space="preserve">
<style type="text/css">
	.st0{fill:none;stroke:#000000;stroke-width:0.991;stroke-linecap:round;stroke-miterlimit:10;stroke-dasharray:4.9551;}
	.st1{fill:#FFFFFF;}
	.st2{fill:none;stroke:#000000;stroke-width:0.991;stroke-linecap:round;stroke-miterlimit:10;}
	.st3{fill:none;stroke:#000000;stroke-width:0.991;stroke-linecap:round;stroke-miterlimit:10;stroke-dasharray:5.1831,5.1831;}
	.st4{fill:none;stroke:#000000;stroke-width:0.991;stroke-linecap:round;stroke-miterlimit:10;stroke-dasharray:4.9254,4.9254;}
	.st5{fill:none;stroke:#000000;stroke-width:0.991;stroke-linecap:round;stroke-miterlimit:10;stroke-dasharray:5.2524,5.2524;}
	.st6{fill:none;stroke:#000000;stroke-width:1.1477;stroke-linecap:round;stroke-miterlimit:10;stroke-dasharray:4.9872;}
	.st7{fill:none;stroke:#000000;stroke-width:1.0356;stroke-linecap:round;stroke-miterlimit:10;stroke-dasharray:4.4943;}
	.st8{fill:none;stroke:#000000;stroke-width:1.2541;stroke-linecap:round;stroke-miterlimit:10;stroke-dasharray:5.4546;}
	.st9{fill:none;stroke:#000000;stroke-width:1.2616;stroke-linecap:round;stroke-miterlimit:10;stroke-dasharray:5.4836;}
	.st10{fill:none;stroke:#000000;stroke-width:1.1491;stroke-linecap:round;stroke-miterlimit:10;stroke-dasharray:4.9956;}
	.st11{fill:none;stroke:#000000;stroke-width:1.2518;stroke-linecap:round;stroke-miterlimit:10;stroke-dasharray:5.4422;}
	.st12{fill:none;stroke:#000000;stroke-width:1.0554;stroke-linecap:round;stroke-miterlimit:10;stroke-dasharray:4.5884;}
	.st13{fill:none;stroke:#000000;stroke-width:0.8807;stroke-miterlimit:10;}
	.st14{fill:#FFFFFF;stroke:#000000;stroke-width:0.8807;stroke-miterlimit:10;}
	.st15{fill:#ED8E8E;}
	.st16{fill:#C43339;}
	.st17{fill:#333333;}
	.st18{font-family:'Montserrat-SemiBold';}
	.st19{font-size:12.3878px;}
	.st20{font-size:9.9102px;}
	.st21{letter-spacing:-1;}
	.st22{fill:#1A1A1A;}
	.st23{font-size:13.3788px;}
	.st24{font-size:10.6485px;}
	.st25{font-family:'Montserrat-Regular';}
	.st26{font-size:9.4692px;}
	.st27{fill:#F2F2F2;}
	.st28{font-size:14.8455px;}
	.st29{fill:#343434;}
	.st30{fill:#8C8C8C;}
	.st31{fill:#3C3C3B;}
	.st32{fill:#141414;}
	.st33{fill:#393939;}
	.st34{fill:none;stroke:#ED8E8E;stroke-width:9.3746;stroke-linecap:round;stroke-miterlimit:10;}
	.st35{fill:none;stroke:#FFEDB3;stroke-width:9.3746;stroke-linecap:round;stroke-miterlimit:10;}
	.st36{fill:none;stroke:#CCCCCC;stroke-width:9.3746;stroke-linecap:round;stroke-miterlimit:10;}
</style>
<g>
	<line class="st0" x1="336.9" y1="89.5" x2="286" y2="60.1"/>
	<line class="st0" x1="452.9" y1="259.4" x2="452.9" y2="199.7"/>
	<path class="st1" d="M338.3,457.7L338.3,457.7l-53.7,31"/>
	<path class="st2" d="M338.3,457.7L338.3,457.7l-2.1,1.2"/>
	<line class="st3" x1="331.6" y1="461.5" x2="289" y2="486.2"/>
	<line class="st2" x1="286.8" y1="487.5" x2="284.6" y2="488.7"/>
	<line class="st0" x1="420.7" y1="410.1" x2="352.9" y2="449.3"/>
	<line class="st0" x1="142.2" y1="447.1" x2="78.1" y2="410.1"/>
	<line class="st0" x1="45.8" y1="259.4" x2="45.8" y2="199.7"/>
	<line class="st0" x1="45.8" y1="347.9" x2="45.8" y2="277.4"/>
	<line class="st0" x1="213.2" y1="488.1" x2="157.8" y2="456.2"/>
	<line class="st0" x1="452.9" y1="347.9" x2="452.9" y2="277.4"/>
	<polyline class="st1" points="420.7,137.9 420.6,137.9 352.4,98.5 	"/>
	<polyline class="st2" points="420.7,137.9 420.6,137.9 418.5,136.7 	"/>
	<line class="st4" x1="414.2" y1="134.2" x2="356.7" y2="101"/>
	<line class="st2" x1="354.5" y1="99.7" x2="352.4" y2="98.5"/>
	<polyline class="st1" points="78.3,137.8 78.3,137.8 141.7,101.2 	"/>
	<polyline class="st2" points="78.3,137.8 78.3,137.8 80.4,136.6 	"/>
	<line class="st5" x1="85" y1="133.9" x2="137.3" y2="103.7"/>
	<line class="st2" x1="139.5" y1="102.4" x2="141.7" y2="101.2"/>
	<line class="st0" x1="211.8" y1="60.7" x2="157.2" y2="92.2"/>
	<line class="st6" x1="249.4" y1="86.5" x2="249.4" y2="465.5"/>
	<line class="st7" x1="249.4" y1="272.9" x2="249.4" y2="272.9"/>
	<polyline class="st8" points="283,293.9 346.7,333.6 364.9,344.9 414.1,375.6 	"/>
	<polyline class="st9" points="215.4,251.7 144.6,207.7 126,196 84,169.9 	"/>
	<polyline class="st10" points="85.6,374.9 137.7,342.5 153.8,332.5 214.9,294.4 	"/>
	<polyline class="st11" points="411.3,172.1 364.6,201.2 346.3,212.5 282.5,252.3 	"/>
	<line class="st12" x1="249.4" y1="272.9" x2="249.4" y2="272.9"/>
	<circle class="st13" cx="453.6" cy="160" r="39.7"/>
	<circle class="st14" cx="248.7" cy="273.5" r="39.7"/>
	<circle class="st15" cx="150.1" cy="97.9" r="9"/>
	<circle class="st16" cx="150.1" cy="210.4" r="9"/>
	<circle class="st16" cx="150.1" cy="331.9" r="9"/>
	<circle class="st16" cx="249.4" cy="168.8" r="9"/>
	<circle class="st16" cx="249.4" cy="384.6" r="9"/>
	<circle class="st16" cx="344" cy="214.2" r="9"/>
	<circle class="st16" cx="344" cy="329.5" r="9"/>
	<circle class="st15" cx="45.1" cy="268.4" r="9"/>
	<circle class="st15" cx="453.6" cy="268.4" r="9"/>
	<circle class="st15" cx="150.1" cy="451.5" r="9"/>
	<circle class="st15" cx="344" cy="450.7" r="9"/>
	<circle class="st15" cx="344" cy="95.1" r="9"/>
	<circle class="st13" cx="453.4" cy="387.6" r="39.7"/>
	<circle class="st13" cx="248.7" cy="46.2" r="39.7"/>
	<circle class="st13" cx="45.4" cy="160" r="39.7"/>
	<circle class="st13" cx="45.4" cy="387.6" r="39.7"/>
	<circle class="st13" cx="248.7" cy="505.8" r="39.7"/>
	<text transform="matrix(1 0 0 1 218.0381 46.2432)" class="st17 st18 st19">E</text>
	<text transform="matrix(1 0 0 1 226.0376 46.2432)" class="st17 st18 st19">t</text>
	<text transform="matrix(1 0 0 1 231.0586 46.2432)" class="st17 st18 st19">h</text>
	<text transform="matrix(1 0 0 1 239.3896 46.2432)" class="st17 st18 st19">e</text>
	<text transform="matrix(1 0 0 1 246.9526 46.2432)" class="st17 st18 st19">r</text>
	<text transform="matrix(1 0 0 1 251.9297 46.2432)" class="st17 st18 st19">e</text>
	<text transform="matrix(1 0 0 1 259.4482 46.2432)" class="st17 st18 st19">u</text>
	<text transform="matrix(1 0 0 1 267.6729 46.2432)" class="st17 st18 st19">m</text>
	<text transform="matrix(1 0 0 1 235.2349 61.1094)" class="st17 st18 st19">F</text>
	<text transform="matrix(1 0 0 1 242.8716 61.1094)" class="st17 st18 st19">o</text>
	<text transform="matrix(1 0 0 1 250.7188 61.1094)" class="st17 st18 st19">r</text>
	<text transform="matrix(1 0 0 1 255.6377 61.1094)" class="st17 st18 st19">k</text>
	<text transform="matrix(1 0 0 1 20.5703 177.895)" class="st17 st18 st20">E</text>
	<text transform="matrix(1 0 0 1 26.8877 177.895)" class="st17 st18 st20">t</text>
	<text transform="matrix(1 0 0 1 30.8232 177.895)" class="st17 st18 st20">h</text>
	<text transform="matrix(1 0 0 1 37.4004 177.895)" class="st17 st18 st20">e</text>
	<text transform="matrix(1 0 0 1 43.3745 177.895)" class="st17 st18 st20">r</text>
	<text transform="matrix(1 0 0 1 47.2744 177.895)" class="st17 st18 st20">e</text>
	<text transform="matrix(1 0 0 1 53.2046 177.895)" class="st17 st18 st20">u</text>
	<text transform="matrix(1 0 0 1 59.7051 177.895)" class="st17 st18 st20">m</text>
	<text transform="matrix(1 0 0 1 30.7339 408.6025)" class="st17 st18 st19 st21">T</text>
	<text transform="matrix(1 0 0 1 37.1372 408.6025)" class="st17 st18 st19">r</text>
	<text transform="matrix(1 0 0 1 42.1064 408.6025)" class="st17 st18 st19">o</text>
	<text transform="matrix(1 0 0 1 49.959 408.6025)" class="st17 st18 st19">n</text>
	<text transform="matrix(1 0 0 1 226.7339 525.2441)" class="st17 st18 st20">P</text>
	<text transform="matrix(1 0 0 1 233.7681 525.2441)" class="st17 st18 st20">o</text>
	<text transform="matrix(1 0 0 1 240.0801 525.2441)" class="st17 st18 st20">l</text>
	<text transform="matrix(1 0 0 1 242.7744 525.2441)" class="st17 st18 st20">k</text>
	<text transform="matrix(1 0 0 1 248.9014 525.2441)" class="st17 st18 st20">a</text>
	<text transform="matrix(1 0 0 1 254.8223 525.2441)" class="st17 st18 st20">d</text>
	<text transform="matrix(1 0 0 1 261.5361 525.2441)" class="st17 st18 st20">o</text>
	<text transform="matrix(1 0 0 1 267.8213 525.2441)" class="st17 st18 st20">t</text>
	<text transform="matrix(1 0 0 1 431.7793 405.123)" class="st17 st18 st20">Q</text>
	<text transform="matrix(1 0 0 1 440.0654 405.123)" class="st17 st18 st20">uo</text>
	<text transform="matrix(1 0 0 1 453.0166 405.123)" class="st17 st18 st20">r</text>
	<text transform="matrix(1 0 0 1 456.9902 405.123)" class="st17 st18 st20">u</text>
	<text transform="matrix(1 0 0 1 463.5918 405.123)" class="st17 st18 st20">m</text>
	<text transform="matrix(1 0 0 1 222.6147 271.8594)" class="st22 st18 st23">C</text>
	<text transform="matrix(1 0 0 1 232.0405 271.8594)" class="st22 st18 st23">u</text>
	<text transform="matrix(1 0 0 1 241.1519 271.8594)" class="st22 st18 st23">s</text>
	<text transform="matrix(1 0 0 1 248.1899 271.8594)" class="st22 st18 st23">t</text>
	<text transform="matrix(1 0 0 1 253.5195 271.8594)" class="st22 st18 st23">o</text>
	<text transform="matrix(1 0 0 1 262.0547 271.8594)" class="st22 st18 st23">m</text>
	<text transform="matrix(1 0 0 1 219.7373 287.9131)" class="st22 st18 st23">N</text>
	<text transform="matrix(1 0 0 1 230.5439 287.9131)" class="st22 st18 st23">e</text>
	<text transform="matrix(1 0 0 1 238.7778 287.9131)" class="st22 st18 st23">t</text>
	<text transform="matrix(1 0 0 1 244.5459 287.9131)" class="st22 st18 st23">w</text>
	<text transform="matrix(1 0 0 1 256.6016 287.9131)" class="st22 st18 st23">o</text>
	<text transform="matrix(1 0 0 1 265.1387 287.9131)" class="st22 st18 st23">r</text>
	<text transform="matrix(1 0 0 1 270.5098 287.9131)" class="st22 st18 st23">k</text>
	<text transform="matrix(1 0 0 1 431.8672 169.7964)" class="st17 st18 st24">B</text>
	<text transform="matrix(1 0 0 1 439.9141 169.7964)" class="st17 st18 st24">i</text>
	<text transform="matrix(1 0 0 1 442.8125 169.7964)" class="st17 st18 st24">n</text>
	<text transform="matrix(1 0 0 1 449.958 169.7964)" class="st17 st18 st24">a</text>
	<text transform="matrix(1 0 0 1 456.2549 169.7964)" class="st17 st18 st24">nc</text>
	<text transform="matrix(1 0 0 1 469.4902 169.7964)" class="st17 st18 st24">e</text>
	<text transform="matrix(1 0 0 1 424.9736 180.189)" class="st17 st25 st26">S</text>
	<text transform="matrix(1 0 0 1 430.6777 180.189)" class="st17 st25 st26">m</text>
	<text transform="matrix(1 0 0 1 440.542 180.189)" class="st17 st25 st26">a</text>
	<text transform="matrix(1 0 0 1 445.9004 180.189)" class="st17 st25 st26">r</text>
	<text transform="matrix(1 0 0 1 449.8506 180.189)" class="st17 st25 st26">t </text>
	<text transform="matrix(1 0 0 1 456.1748 180.189)" class="st17 st25 st26">C</text>
	<text transform="matrix(1 0 0 1 462.7305 180.189)" class="st17 st25 st26">h</text>
	<text transform="matrix(1 0 0 1 468.9561 180.189)" class="st17 st25 st26">ai</text>
	<text transform="matrix(1 0 0 1 476.6006 180.189)" class="st17 st25 st26">n</text>
	<path class="st16" d="M45.7,268.4l2.8-2.8c0.2-0.2,0.2-0.4,0-0.6c-0.2-0.2-0.4-0.2-0.6,0l-2.8,2.8l-2.8-2.8c-0.2-0.2-0.4-0.2-0.6,0
		c0,0,0,0,0,0c-0.1,0.2-0.1,0.4,0,0.6l2.8,2.8l-2.8,2.8c-0.2,0.2-0.2,0.4,0,0.6c0.2,0.2,0.4,0.2,0.6,0c0,0,0,0,0,0l2.8-2.8l2.8,2.8
		c0.2,0.2,0.4,0.2,0.6,0s0.2-0.4,0-0.6L45.7,268.4z"/>
	<path class="st16" d="M150.1,451.4l2.8-2.8c0.2-0.2,0.2-0.4,0-0.6c-0.2-0.2-0.4-0.2-0.6,0l-2.8,2.8l-2.8-2.8
		c-0.2-0.2-0.4-0.2-0.6,0c-0.2,0.2-0.2,0.4,0,0.6l2.8,2.8l-2.8,2.8c-0.2,0.2-0.2,0.4,0,0.6c0.1,0.1,0.2,0.1,0.3,0.1
		c0.1,0,0.2,0,0.3-0.1l2.8-2.8l2.8,2.8c0.2,0.2,0.4,0.2,0.6,0c0,0,0,0,0,0c0.2-0.2,0.2-0.4,0-0.6c0,0,0,0,0,0L150.1,451.4z"/>
	<path class="st16" d="M344.6,451.3l2.8-2.8c0.2-0.2,0.2-0.4,0-0.6c0,0,0,0,0,0c-0.2-0.2-0.4-0.2-0.6,0c0,0,0,0,0,0l-2.8,2.8
		l-2.8-2.8c-0.2-0.2-0.4-0.2-0.6,0c0,0,0,0,0,0c-0.2,0.2-0.2,0.4,0,0.6c0,0,0,0,0,0l2.8,2.8l-2.8,2.8c-0.2,0.2-0.2,0.4,0,0.6
		c0,0,0,0,0,0c0.2,0.2,0.4,0.2,0.6,0c0,0,0,0,0,0l2.8-2.8l2.8,2.8c0.2,0.2,0.4,0.2,0.6,0c0,0,0,0,0,0c0.2-0.2,0.2-0.4,0-0.6
		c0,0,0,0,0,0L344.6,451.3z"/>
	<path class="st16" d="M150.8,97.9l2.8-2.8c0.2-0.2,0.2-0.4,0-0.6c-0.2-0.2-0.4-0.2-0.6,0l0,0l-2.8,2.8l-2.8-2.8
		c-0.2-0.2-0.4-0.2-0.6,0c-0.2,0.2-0.2,0.4,0,0.6l2.8,2.8l-2.8,2.8c-0.2,0.2-0.2,0.4,0,0.6c0,0,0,0,0,0c0.2,0.2,0.4,0.2,0.6,0
		c0,0,0,0,0,0l2.8-2.8l2.8,2.8c0.1,0.1,0.2,0.1,0.3,0.1c0.1,0,0.2,0,0.3-0.1c0.2-0.2,0.2-0.4,0-0.6c0,0,0,0,0,0L150.8,97.9z"/>
	<path class="st16" d="M344.5,95.1l2.8-2.8c0.2-0.2,0.2-0.4,0-0.6s-0.4-0.2-0.6,0l0,0l-2.8,2.8l-2.8-2.8c-0.2-0.2-0.4-0.2-0.6,0
		s-0.2,0.4,0,0.6l0,0l2.8,2.8l-2.8,2.8c-0.2,0.2-0.2,0.4,0,0.6c0,0,0,0,0,0c0.1,0.1,0.2,0.1,0.3,0.1c0.1,0,0.2,0,0.3-0.1l2.8-2.8
		l2.8,2.8c0.1,0.1,0.2,0.1,0.3,0.1c0.1,0,0.2,0,0.3-0.1c0.2-0.2,0.2-0.4,0-0.6c0,0,0,0,0,0L344.5,95.1z"/>
	<path class="st16" d="M454.8,268.4l2.8-2.8c0.2-0.2,0.2-0.4,0-0.6c-0.2-0.2-0.4-0.2-0.6,0l-2.8,2.8l-2.8-2.8
		c-0.2-0.2-0.4-0.2-0.6,0c-0.2,0.2-0.2,0.4,0,0.6l2.8,2.8l-2.8,2.8c-0.2,0.2-0.2,0.4,0,0.6s0.4,0.2,0.6,0l0,0l2.8-2.8l2.8,2.8
		c0.2,0.2,0.4,0.2,0.6,0s0.2-0.4,0-0.6l0,0L454.8,268.4z"/>
	<g id="Layer_2-2">
		<g id="Layer_1-2-2">
			<path class="st17" d="M448.9,143l5.5-5.5l5.5,5.5l3.2-3.2l-8.6-8.6l-8.6,8.6L448.9,143 M440.4,145.3l3.2-3.2l3.2,3.2l-3.2,3.2
				L440.4,145.3z M448.9,147.5l5.5,5.5l5.5-5.5l3.2,3.2l0,0l-8.6,8.6l-8.6-8.6l0,0L448.9,147.5 M462.1,145.3l3.2-3.2l3.2,3.2
				l-3.2,3.2L462.1,145.3z"/>
			<path class="st17" d="M457.6,145.3L457.6,145.3l-3.2-3.2l-2.4,2.4l0,0l-0.3,0.3l-0.6,0.6l0,0l3.2,3.2L457.6,145.3L457.6,145.3"/>
		</g>
	</g>
	<path class="st17" d="M249.5,478.2c-7,0-12.7,5.7-12.8,12.8c0,1.4,0.2,2.8,0.7,4.1c0.3,0.9,1.3,1.4,2.2,1.1
		c0.9-0.3,1.4-1.3,1.1-2.2c-0.4-1-0.5-2.1-0.5-3.3c0.2-5.1,4.4-9.1,9.5-8.9c5.1,0.2,9.1,4.4,8.9,9.5c-0.1,4.8-3.9,8.6-8.6,8.9
		c0,0-1.8,0.1-2.7,0.2c-0.3,0-0.7,0.1-1,0.2c0,0-0.1,0-0.2,0c0,0,0,0,0,0l0,0c0,0,0-0.1,0-0.1l0.3-1.5l1.7-7.6
		c0.2-0.9-0.4-1.9-1.3-2.1c-0.9-0.2-1.9,0.4-2.1,1.3c0,0-4,18.5-4,18.7c-0.2,0.9,0.3,1.8,1.2,2h0h0.1c0.9,0.2,1.8-0.3,2-1.2
		c0,0,0,0,0,0v-0.1c0-0.2,0.6-2.7,0.6-2.7c0.4-1.9,1.9-3.3,3.8-3.6c0.4-0.1,2-0.2,2-0.2c7-0.7,12.1-7,11.4-14
		C261.2,483.3,255.9,478.4,249.5,478.2z"/>
	<path class="st17" d="M250.3,507.6c-1.1-0.2-2.3,0.5-2.5,1.6c0,0,0,0,0,0c0,0,0,0,0,0c-0.3,1.1,0.5,2.3,1.6,2.5c0,0,0,0,0,0h0.1
		c1.1,0.3,2.2-0.4,2.5-1.5l0,0v-0.1C252.2,509,251.5,507.9,250.3,507.6z"/>
	<path class="st17" d="M31.6,364.2l0.4,0.1l2.2,0.4l2.7,0.5l2.7,0.5l2.7,0.5l2.5,0.5l2.8,0.5l3,0.6l3.3,0.6c0.4,0.1,0.9,0.2,1.3,0.2
		c0.2,0,0.4,0.1,0.6,0.3c0.4,0.3,0.8,0.6,1.1,1c1.2,1.2,2.5,2.4,3.7,3.6c0.2,0.2,0.4,0.4,0.6,0.6c0.3,0.3,0.4,0.6,0.4,1
		c0,0.1,0,0.1-0.1,0.2c-0.2,0.4-0.5,0.8-0.8,1.1c-1.6,2-3.3,4-4.9,6l-5.8,7.1l-5,6.1c-0.2,0.3-0.5,0.6-0.7,0.9
		c-0.1,0.1-0.1,0.1-0.2,0.2c-0.1,0.1-0.3,0.1-0.4,0c0,0,0,0,0,0c-0.1-0.1-0.2-0.2-0.2-0.3c-0.1-0.2-0.2-0.4-0.3-0.7
		c-0.7-1.7-1.3-3.4-2-5c-1.6-4-3.3-7.9-5-11.9c-1.6-3.8-3.1-7.5-4.6-11.3c-0.3-0.6-0.5-1.3-0.7-1.9c-0.2-0.5,0.1-1,0.5-1.2
		c0,0,0,0,0,0l0,0L31.6,364.2z M34.1,367.7L34.1,367.7l9.7,23.6c0-0.1,0-0.2,0.1-0.3c0.1-0.5,0.1-1,0.2-1.5c0.1-0.5,0.1-1,0.2-1.5
		c0.1-0.5,0.1-1,0.2-1.5c0.1-0.5,0.1-1,0.2-1.5c0.1-0.5,0.1-1,0.2-1.5c0.1-0.5,0.1-1.1,0.2-1.6c0.1-0.5,0.1-1.1,0.2-1.6
		s0.1-1.1,0.2-1.6s0.1-1.1,0.2-1.6c0,0,0-0.1,0-0.1l-1.8-1.5l-9.2-7.7L34.1,367.7z M58.3,376.2L58.3,376.2L58.3,376.2l-0.7,0.1
		l-2.2,0.4l-2.3,0.4l-2.2,0.3l-2.1,0.3l-1.5,0.2c-0.1,0-0.1,0-0.1,0.1l-0.1,1c-0.1,0.5-0.1,1-0.2,1.4c-0.1,0.5-0.1,1-0.2,1.4
		c-0.1,0.5-0.1,1-0.2,1.4c-0.1,0.5-0.1,1-0.2,1.4c-0.1,0.5-0.1,1-0.2,1.4c-0.1,0.5-0.1,1-0.2,1.4c-0.1,0.5-0.1,1.1-0.2,1.6
		s-0.1,1-0.2,1.5c0,0.2,0,0.4-0.1,0.6l0,0C49.9,386.3,54.1,381.3,58.3,376.2L58.3,376.2z M35.6,366.8L35.6,366.8l10.7,8.8L53,370
		L35.6,366.8z M48.7,376L48.7,376l9.9-1.8l-3.7-3.4L48.7,376z"/>
	<text transform="matrix(1 0 0 1 245.4136 389.9189)" class="st27 st18 st28">?</text>
	<text transform="matrix(1 0 0 1 146.4785 337.4795)" class="st27 st18 st28">?</text>
	<text transform="matrix(1 0 0 1 340.1553 219.6216)" class="st27 st18 st28">?</text>
	<text transform="matrix(1 0 0 1 340.4209 334.3691)" class="st27 st18 st28">?</text>
	<text transform="matrix(1 0 0 1 245.3184 174.2036)" class="st27 st18 st28">?</text>
	<text transform="matrix(1 0 0 1 146.1313 216.3516)" class="st27 st18 st28">?</text>
	<path class="st17" d="M451.7,380.7v-10.1c0-0.9,0-0.9-0.9-0.9c-2.9,0-5.8,0-8.7,0c-0.9,0-0.9,0-0.9,0.9c0,1.9,0,3.7,0,5.6
		c0,0.9,0,0.9,0.9,0.9h5.8c0.3,0,0.5,0,0.8,0c0.4,0,0.6,0.3,0.6,0.7c0,0,0,0,0,0c0,0.6,0,1.2,0,1.7c0,0.5-0.2,0.6-0.7,0.6
		c-0.6,0-1.2,0-1.8,0h-7.3c-0.3,0-0.5,0-0.8,0c-0.3,0-0.5-0.2-0.5-0.5c0-0.2,0-0.5,0-0.7c0-3.7,0-7.4,0-11.1c0-0.2,0-0.4,0-0.6
		c-0.1-0.3,0.2-0.6,0.5-0.7c0.1,0,0.1,0,0.2,0h14.3c0.2,0,0.3,0,0.5,0c0.6,0,0.7,0.1,0.8,0.7c0,0.3,0,0.5,0,0.8c0,6.4,0,12.8,0,19.1
		c0,0.2,0,0.5,0,0.7c0,0.8,0.1,0.9,0.9,0.9c2.7,0,5.4,0,8,0c0.7,0,0.7,0,0.7-0.7c0-2,0-4.1,0-6.1c0-0.7,0-0.7-0.8-0.7c-2,0-4,0-6,0
		c-0.3,0-0.5,0-0.8,0c-0.3,0-0.5-0.2-0.5-0.5c0,0,0,0,0,0c0-0.6,0-1.3,0-1.9c0-0.3,0.2-0.6,0.5-0.6c0,0,0,0,0,0c0.2,0,0.4,0,0.6,0
		h8.8c0.3,0,0.6,0,0.9,0.1c0.4,0.2,0.4,0.7,0.4,1.1c0,2.6,0,5.2,0,7.8c0,1.2,0,2.4,0,3.6c0,0.9-0.2,1.1-1.1,1.1c-4.5,0-8.9,0-13.4,0
		c-0.2,0-0.5,0-0.7-0.1c-0.3,0-0.5-0.3-0.5-0.6c0-0.2,0-0.5,0-0.7L451.7,380.7L451.7,380.7z"/>
	<g id="Layer_1-3">
		<g id="_1421394342400">
			<polygon class="st29" points="43.7,132.3 43.5,133.1 43.5,155.1 43.7,155.4 53.9,149.3 			"/>
			<polygon class="st30" points="43.7,132.3 33.4,149.3 43.7,155.4 43.7,144.7 			"/>
			<polygon class="st31" points="43.7,157.3 43.6,157.5 43.6,165.3 43.7,165.7 53.9,151.2 			"/>
			<polygon class="st30" points="43.7,165.7 43.7,157.3 33.4,151.2 			"/>
			<polygon class="st32" points="43.7,155.4 53.9,149.3 43.7,144.7 			"/>
			<polygon class="st33" points="33.4,149.3 43.7,155.4 43.7,144.7 			"/>
		</g>
	</g>
	<g>
		<path class="st34" d="M317.8,260c7.2,38.1-17.9,74.9-56.1,82.1"/>
		<path class="st35" d="M264.9,341.2c-37.8,9-75.6-14.4-84.7-52.1"/>
		<path class="st36" d="M179.7,285.9c-7.2-38.1,17.9-74.9,56.1-82.1"/>
	</g>
</g>
</svg>
