<svg width="75" height="67" viewBox="0 0 75 67" fill="none" xmlns="http://www.w3.org/2000/svg">
<g clip-path="url(#clip0)">
<path d="M23.3472 18.4683H22.7238C10.2569 18.4683 0.141663 28.4429 0.141663 40.7365C0.141663 53.03 10.2569 63.0046 22.7238 63.0046C27.2006 63.0046 31.564 61.6914 35.2758 59.2327" stroke="#2E3192"/>
<path d="M30.459 38.8646C25.6989 34.6456 23.0072 28.6386 23.0072 22.3241C23.0072 21.0389 23.1205 19.7536 23.3472 18.4684C25.5289 6.37037 37.2592 -1.67633 49.5278 0.475045C61.7964 2.62642 69.9849 14.1936 67.8032 26.2916C67.6898 26.9063 67.5482 27.493 67.4065 28.0798" stroke="#2E3192"/>
<path d="M52.2762 66.8603C64.748 66.8603 74.8583 56.8905 74.8583 44.5922C74.8583 32.2938 64.748 22.324 52.2762 22.324C39.8044 22.324 29.694 32.2938 29.694 44.5922C29.694 56.8905 39.8044 66.8603 52.2762 66.8603Z" stroke="#2E3192"/>
<path d="M53.9479 52.8624V55.5446H52.0495V52.8903C49.7828 52.7506 47.6011 51.9962 46.411 50.9066L47.431 48.5038C48.7627 49.5375 50.3495 50.1802 52.0212 50.3199V45.5421C49.4711 44.8995 46.7227 44.0334 46.7227 40.7364C46.7227 38.3057 48.4227 36.1822 52.0212 35.819V33.1368H53.9195V35.7911C55.5912 35.8749 57.1779 36.3778 58.5946 37.244L57.6596 39.6468C56.5263 38.9483 55.2512 38.5292 53.9195 38.3616V43.1672C56.4696 43.8098 59.2746 44.648 59.2746 47.945C59.2746 50.3757 57.5463 52.4712 53.9479 52.8624ZM52.0495 42.6643V38.4174C50.4061 38.6689 49.7261 39.535 49.7261 40.5967C49.7261 41.7143 50.7178 42.2452 52.0495 42.6643ZM56.3279 48.1685C56.3279 46.995 55.3079 46.4641 53.9479 46.045V50.264C55.6196 49.9846 56.3279 49.1743 56.3279 48.1685Z" stroke="black"/>
<path d="M40.6592 11.623L50.4911 20.1168" stroke="black"/>
<path d="M50.4911 11.623L40.6592 20.1168" stroke="black"/>
<path d="M13.9403 36.4896L23.8005 44.9554" stroke="black"/>
<path d="M23.8005 36.4896L13.9403 44.9554" stroke="black"/>
</g>
<defs>
<clipPath id="clip0">
<rect width="75" height="67" fill="white"/>
</clipPath>
</defs>
</svg>
