<svg xmlns="http://www.w3.org/2000/svg" viewBox="0 0 213.14 251.56"><defs><style>.cls-1{fill:#1a2b6b;}.cls-2{fill:#375bd2;}</style></defs><g id="Layer_2" data-name="Layer 2"><g id="Layer_1-2" data-name="Layer 1"><path class="cls-1" d="M192.66,251.56H20.47A20.5,20.5,0,0,1,0,231.08V20.47A20.49,20.49,0,0,1,20.47,0H192.66a20.5,20.5,0,0,1,20.48,20.47V231.08A20.51,20.51,0,0,1,192.66,251.56ZM20.47,3A17.49,17.49,0,0,0,3,20.47V231.08a17.5,17.5,0,0,0,17.47,17.48H192.66a17.5,17.5,0,0,0,17.48-17.48V20.47A17.5,17.5,0,0,0,192.66,3Z"/><path class="cls-1" d="M142.66,56.26a4.61,4.61,0,0,1-1.4-.23,4.2,4.2,0,0,1-3-4V1.5h3V52a1.24,1.24,0,0,0,.89,1.18,1.32,1.32,0,0,0,1.52-.48L157.37,34a4.35,4.35,0,0,1,3.51-1.77h0A4.3,4.3,0,0,1,164.43,34l11.88,16.75a1.32,1.32,0,0,0,1.53.49,1.23,1.23,0,0,0,.89-1.18V1.5h3V50.06a4.19,4.19,0,0,1-3,4,4.29,4.29,0,0,1-4.89-1.61L162,35.73a1.3,1.3,0,0,0-1.09-.55,1.48,1.48,0,0,0-1.1.54L146.14,54.47A4.29,4.29,0,0,1,142.66,56.26Z"/><path class="cls-2" d="M189.75,88.13H95a1.5,1.5,0,1,1,0-3h94.79a1.5,1.5,0,0,1,0,3Z"/><path class="cls-2" d="M148.64,112.48H95a1.5,1.5,0,0,1,0-3h53.68a1.5,1.5,0,0,1,0,3Z"/><path class="cls-2" d="M189.75,155.43H95a1.5,1.5,0,1,1,0-3h94.79a1.5,1.5,0,0,1,0,3Z"/><path class="cls-2" d="M189.75,179.77H95a1.5,1.5,0,0,1,0-3h94.79a1.5,1.5,0,0,1,0,3Z"/><path class="cls-2" d="M109.7,215.49H95a1.5,1.5,0,1,1,0-3H109.7a1.5,1.5,0,0,1,0,3Z"/><path class="cls-2" d="M189.75,215.49H121.8a1.5,1.5,0,0,1,0-3h68a1.5,1.5,0,0,1,0,3Z"/><path class="cls-2" d="M186.26,112.48H161.58a1.5,1.5,0,0,1,0-3h24.68a1.5,1.5,0,0,1,0,3Z"/><polygon class="cls-1" points="41.81 107.41 35.56 99.18 37.95 97.36 42.27 103.05 55.33 91.77 57.29 94.03 41.81 107.41"/><path class="cls-1" d="M46.53,118.54c-11.87,0-21.54-9.4-21.54-21s9.67-21,21.54-21,21.54,9.41,21.54,21S58.41,118.54,46.53,118.54Zm0-38.94C36.31,79.6,28,87.66,28,97.57s8.32,18,18.54,18,18.54-8.06,18.54-18S56.75,79.6,46.53,79.6Z"/><polygon class="cls-1" points="41.81 175.79 35.56 167.56 37.95 165.75 42.27 171.43 55.33 160.15 57.29 162.42 41.81 175.79"/><path class="cls-1" d="M46.53,187.84c-11.87,0-21.54-9.41-21.54-21s9.67-21,21.54-21,21.54,9.41,21.54,21S58.41,187.84,46.53,187.84Zm0-39c-10.22,0-18.54,8.06-18.54,18s8.32,18,18.54,18,18.54-8.07,18.54-18S56.75,148.89,46.53,148.89Z"/></g></g></svg>