<svg width="103" height="83" viewBox="0 0 103 83" fill="none" xmlns="http://www.w3.org/2000/svg">
<path d="M91.1544 10.7009C91.6789 8.47988 90.3035 6.25416 88.0824 5.7297C85.8613 5.20523 83.6356 6.58062 83.1111 8.80172C82.5867 11.0228 83.9621 13.2485 86.1832 13.773C88.4043 14.2974 90.63 12.922 91.1544 10.7009Z" stroke="#2E3192"/>
<path d="M95.1018 20.0882V23.3746C95.1018 23.8627 94.7113 24.2531 94.2233 24.2531H80.2642C78.9301 24.2531 79.1904 23.1793 79.1904 21.8453V20.0882C79.1904 17.4851 80.4594 15.0772 82.5744 13.5804C84.9172 16.0859 88.8544 16.2161 91.3924 13.8733C91.49 13.7757 91.5876 13.6781 91.6853 13.5804C93.8003 15.0447 95.0693 17.4851 95.1018 20.0882Z" stroke="#2E3192"/>
<path d="M16.586 63.4948C18.8683 63.4948 20.7184 61.6447 20.7184 59.3624C20.7184 57.0802 18.8683 55.23 16.586 55.23C14.3038 55.23 12.4536 57.0802 12.4536 59.3624C12.4536 61.6447 14.3038 63.4948 16.586 63.4948Z" stroke="#2E3192"/>
<path d="M24.558 69.6772V72.9636C24.558 73.4517 24.1675 73.8421 23.6794 73.8421H9.72038C8.3863 73.8421 8.64661 72.7684 8.64661 71.4343V69.6772C8.64661 67.0741 9.91562 64.6662 12.0306 63.1695C14.3734 65.6749 18.3106 65.8051 20.8486 63.4623C20.9462 63.3647 21.0438 63.2671 21.1414 63.1695C23.2564 64.6662 24.5254 67.1066 24.558 69.6772Z" stroke="#2E3192"/>
<path d="M16.521 15.2726L24.8183 22.5287" stroke="black"/>
<path d="M24.8183 15.2726L16.521 22.5287" stroke="black"/>
<path d="M77.5309 62.0957L85.7958 69.3193" stroke="black"/>
<path d="M85.7958 62.0957L77.5309 69.3193" stroke="black"/>
<path d="M51.1421 57.2149C59.75 57.2149 66.7281 50.2368 66.7281 41.6289C66.7281 33.0209 59.75 26.0428 51.1421 26.0428C42.5342 26.0428 35.5561 33.0209 35.5561 41.6289C35.5561 50.2368 42.5342 57.2149 51.1421 57.2149Z" stroke="black"/>
<path d="M91.9967 67.4829C92.9496 61.6114 88.9623 56.0791 83.0907 55.1262C77.2192 54.1733 71.6869 58.1606 70.734 64.0321C69.7811 69.9037 73.7684 75.436 79.6399 76.3889C85.5115 77.3418 91.0438 73.3545 91.9967 67.4829Z" stroke="black"/>
<path d="M20.7184 29.7197C26.6667 29.7197 31.4887 24.8977 31.4887 18.9494C31.4887 13.0011 26.6667 8.17908 20.7184 8.17908C14.7701 8.17908 9.94812 13.0011 9.94812 18.9494C9.94812 24.8977 14.7701 29.7197 20.7184 29.7197Z" stroke="black"/>
<path d="M16.586 81.6514C25.1939 81.6514 32.172 74.6733 32.172 66.0654C32.172 57.4575 25.1939 50.4794 16.586 50.4794C7.9781 50.4794 1 57.4575 1 66.0654C1 74.6733 7.9781 81.6514 16.586 81.6514Z" stroke="black"/>
<path d="M86.414 31.672C95.0219 31.672 102 24.6939 102 16.086C102 7.4781 95.0219 0.5 86.414 0.5C77.8061 0.5 70.828 7.4781 70.828 16.086C70.828 24.6939 77.8061 31.672 86.414 31.672Z" stroke="black"/>
<path d="M72.3898 59.2323L62.7584 52.0087" stroke="black"/>
<path d="M37.8988 33.3966L28.365 26.2706" stroke="black"/>
<path d="M39.8186 52.3341L30.6102 59.2323" stroke="black"/>
<path d="M64.6131 33.7871L73.1057 27.442L74.635 26.2706" stroke="black"/>
<path d="M51.1421 49.4707C55.5988 49.4707 59.2117 45.8578 59.2117 41.4011C59.2117 36.9444 55.5988 33.3315 51.1421 33.3315C46.6854 33.3315 43.0725 36.9444 43.0725 41.4011C43.0725 45.8578 46.6854 49.4707 51.1421 49.4707Z" stroke="#455BCD" stroke-miterlimit="10"/>
<path d="M54.5586 37.7568C52.9642 36.683 47.7255 36.3576 47.7255 39.1234C47.7255 42.2471 54.9166 40.8154 54.9166 43.7439C54.9166 46.8676 48.5064 46.0541 47.3676 44.6875" stroke="#455BCD" stroke-miterlimit="10"/>
<path d="M51.1421 35.2838V47.5509" stroke="#455BCD" stroke-miterlimit="10"/>
</svg>
