<svg xmlns="http://www.w3.org/2000/svg" viewBox="0 0 242.37 256.35"><defs><style>.cls-1{fill:#1a2b6b;}.cls-2{fill:#375bd2;}</style></defs><g id="Layer_2" data-name="Layer 2"><g id="Layer_1-2" data-name="Layer 1"><polygon class="cls-1" points="242.09 256.35 0.28 256.35 0.28 123.22 3.28 123.22 3.28 253.35 239.09 253.35 239.09 123.22 242.09 123.22 242.09 256.35"/><path class="cls-1" d="M121.2,187a2.78,2.78,0,0,1-1.28-.31L1.55,125.91a2.88,2.88,0,0,1,.2-5.2l33-13.59,1.14,2.78L3.17,123.37l118,60.58,118-60.58-28-11.51,1.14-2.78,28.24,11.63a2.88,2.88,0,0,1,.2,5.21L122.44,186.68A2.56,2.56,0,0,1,121.2,187Zm-.15-3h0Zm.25,0h0Z"/><polygon class="cls-1" points="36.84 141.57 33.84 141.57 33.84 0 213.31 0 213.31 139.12 210.31 139.12 210.31 3 36.84 3 36.84 141.57"/><path class="cls-2" d="M129.58,107.9H108.2v-1.5c0-12.43,7.62-19.26,14.35-25.29,5.27-4.72,9.82-8.8,9.82-14.66,0-7.36-6.51-12.11-16.59-12.11-9.87,0-17.4,3.54-22.38,10.52L92.56,66,76,55.25l1-1.28C85.74,42,99.72,35.7,117.37,35.7c22.8,0,37,10.67,37,27.85,0,13.42-7.64,20.28-14.37,26.33-5.57,5-10.39,9.34-10.39,16.52Zm-18.34-3h15.4c.61-7.62,5.82-12.3,11.32-17.25,6.58-5.91,13.38-12,13.38-24.1,0-15.33-13-24.85-34-24.85-16,0-28.79,5.45-37.06,15.79L91.82,62c5.56-7.05,13.62-10.62,24-10.62,11.72,0,19.59,6.07,19.59,15.11,0,7.2-5.25,11.91-10.82,16.89C118.29,89,111.82,94.75,111.24,104.9Z"/><path class="cls-2" d="M129.64,130.82H108.2V111.29h21.44Zm-18.44-3h15.44V114.29H111.2Z"/><path class="cls-1" d="M199,25.3H137.26a.5.5,0,0,1,0-1H199a.5.5,0,0,1,0,1Z"/><path class="cls-1" d="M96.85,25.23h-50a.5.5,0,0,1-.5-.5.5.5,0,0,1,.5-.5h50a.5.5,0,0,1,.5.5A.51.51,0,0,1,96.85,25.23Z"/><path class="cls-1" d="M199,44.28H162.88a.5.5,0,0,1,0-1H199a.5.5,0,0,1,0,1Z"/><path class="cls-1" d="M65.8,44.23H46.89a.5.5,0,0,1-.5-.5.5.5,0,0,1,.5-.5H65.8a.5.5,0,0,1,.5.5A.5.5,0,0,1,65.8,44.23Z"/><path class="cls-1" d="M199,65.05H165.71a.5.5,0,0,1,0-1H199a.5.5,0,0,1,0,1Z"/><path class="cls-1" d="M78.06,65H46.89a.5.5,0,0,1-.5-.5.5.5,0,0,1,.5-.5H78.06a.51.51,0,0,1,.5.5A.5.5,0,0,1,78.06,65Z"/><path class="cls-1" d="M199,85.82H155.31a.5.5,0,0,1-.5-.5.5.5,0,0,1,.5-.5H199a.5.5,0,0,1,.5.5A.5.5,0,0,1,199,85.82Z"/><path class="cls-1" d="M100.42,85.82H46.89a.5.5,0,1,1,0-1h53.53a.5.5,0,1,1,0,1Z"/><path class="cls-1" d="M199,108.39H138.21a.5.5,0,0,1-.5-.5.5.5,0,0,1,.5-.5H199a.5.5,0,0,1,.5.5A.5.5,0,0,1,199,108.39Z"/><path class="cls-1" d="M96.88,108.41h-50a.5.5,0,0,1-.5-.5.5.5,0,0,1,.5-.5h50a.5.5,0,0,1,.5.5A.5.5,0,0,1,96.88,108.41Z"/><path class="cls-1" d="M199,129.16H138.21a.5.5,0,0,1,0-1H199a.5.5,0,0,1,0,1Z"/><path class="cls-1" d="M97.54,129.21H46.89a.5.5,0,0,1-.5-.5.5.5,0,0,1,.5-.5H97.54a.5.5,0,0,1,.5.5A.5.5,0,0,1,97.54,129.21Z"/></g></g></svg>