<svg width="71" height="65" viewBox="0 0 71 65" fill="none" xmlns="http://www.w3.org/2000/svg">
<g clip-path="url(#clip0)">
<path d="M54.0979 25.6267C54.6865 23.7316 54.9668 21.7799 54.9668 19.7999C54.9668 15.2177 53.3691 10.7486 50.454 7.24113L50.426 7.21284C46.7821 2.77202 41.3443 0.169765 35.6261 0.141479H35.3458C24.6664 0.226335 16.0332 8.99483 16.0332 19.7999C16.0332 21.8365 16.3415 23.873 16.9581 25.8247" stroke="#2E3192" stroke-miterlimit="10"/>
<path d="M50.5101 7.18456C48.7162 8.37255 46.7541 9.36254 44.7079 10.0414C41.6806 11.088 38.5132 11.5971 35.3178 11.5971C32.2906 11.5971 29.2633 11.1163 26.4043 10.1829C24.302 9.50397 22.3119 8.57055 20.4619 7.38256C24.1338 2.8286 29.6277 0.169765 35.458 0.141479H35.7383C41.4564 0.169765 46.8662 2.74374 50.5101 7.18456Z" stroke="#2E3192" stroke-miterlimit="10"/>
<path d="M25.9838 28.1159C25.3111 25.4004 24.9747 22.6002 25.0028 19.7999C24.9747 16.5471 25.4232 13.3226 26.3482 10.2112C26.3482 10.2112 26.3482 10.1829 26.3762 10.1829C28.1141 4.35601 31.4216 0.367763 35.2057 0.141479H35.6542C39.5223 0.226335 42.8579 4.1863 44.6518 10.0414V10.0697C45.5768 13.2377 46.0533 16.4905 46.0253 19.7999C46.0533 22.7982 45.6609 25.7682 44.9041 28.6816" stroke="#2E3192" stroke-miterlimit="10"/>
<path d="M35.486 27.9461V27.833V19.7716V11.5971V0.141479" stroke="#2E3192" stroke-miterlimit="10"/>
<path d="M16.0332 19.7715H25.0028H35.3458H45.9972H54.9668" stroke="#2E3192" stroke-miterlimit="10"/>
<path d="M24.5263 47.3499C25.6475 48.5944 25.5353 50.5178 24.302 51.621L18.3597 57.0518C17.1263 58.1832 15.2203 58.07 14.1271 56.8255C13.0059 55.5809 13.1181 53.6575 14.3514 52.5544L20.2937 47.1236C21.499 46.0204 23.4051 46.1336 24.5263 47.3499Z" stroke="black"/>
<path d="M18.3597 44.493C19.5369 45.7942 19.4248 47.8024 18.1354 48.9621L14.5756 52.215C13.2862 53.3747 11.2961 53.2898 10.1469 51.9887C8.99766 50.6876 9.08175 48.6793 10.3711 47.5196L13.9309 44.2668C15.2203 43.1071 17.2104 43.1919 18.3597 44.493Z" stroke="black"/>
<path d="M28.7588 51.8473C29.936 53.1484 29.8239 55.1567 28.5345 56.3164L24.0497 60.4178C22.7604 61.5775 20.7702 61.4926 19.621 60.1915C18.4718 58.8903 18.5559 56.8821 19.8452 55.7224L24.33 51.621C25.6194 50.433 27.6095 50.5461 28.7588 51.8473Z" stroke="black"/>
<path d="M33.2716 56.3446C34.4489 57.6458 34.3368 59.654 33.0474 60.8137L30.5527 63.1049C29.2633 64.2646 27.2732 64.1797 26.124 62.8786C24.9747 61.5774 25.0588 59.5692 26.3482 58.4095L28.8429 56.1184C30.1323 54.9586 32.0944 55.0435 33.2716 56.3446Z" stroke="black"/>
<path d="M33.8602 53.7141L41.2041 59.0318C42.6617 59.9935 43.0821 61.9452 42.1291 63.416C41.1761 64.8869 39.242 65.3111 37.7844 64.3494L32.9072 60.9552" stroke="black"/>
<path d="M38.4572 49.1884L47.2305 55.4678C48.6881 56.4295 49.1086 58.3812 48.1555 59.852C47.2025 61.3229 45.2684 61.7472 43.8109 60.7855L38.9337 57.3912" stroke="black"/>
<path d="M39.8026 42.5696L51.7434 51.0836C53.201 52.0453 53.6214 53.997 52.6684 55.4678C51.7154 56.9386 49.7813 57.3629 48.3237 56.4012L47.9033 56.1467" stroke="black"/>
<path d="M6.41884 16.745L18.5839 26.8712L6.41884 46.5296L0.168152 43.305L6.41884 16.745Z" stroke="black"/>
<path d="M64.5811 16.6036L52.4161 26.7298L64.5811 46.3882L70.8318 43.1636L64.5811 16.6036Z" stroke="black"/>
<path d="M17.5188 28.5966C17.5188 28.5966 24.2179 28.2855 28.8429 27.352C30.7769 26.7015 32.8792 26.956 34.6171 28.0026L27.5815 32.4434C27.3573 32.5849 27.3012 32.8677 27.4414 33.094L27.4694 33.1223C28.4505 34.3951 32.0663 37.9874 39.4662 33.886L44.0912 37.648L56.1161 46.7842C57.5456 47.7741 57.882 49.7541 56.9009 51.1967C55.9199 52.6392 54.2661 53.1767 52.8366 52.1867L52.6964 52.1018" stroke="black"/>
<path d="M52.7805 27.2955C50.8464 28.6532 49.2487 28.936 48.2957 28.9643C46.7821 29.0209 45.2965 28.54 42.2973 27.5783C40.6435 27.0409 40.6155 26.9561 39.9708 26.8429C37.8405 26.5035 35.9345 27.2955 34.6451 28.0309" stroke="black"/>
<path d="M62.3107 42.7393L57.0971 47.9156" stroke="black"/>
<path d="M7.3999 45.0305L10.6514 47.265" stroke="black"/>
</g>
<defs>
<clipPath id="clip0">
<rect width="71" height="65" fill="white"/>
</clipPath>
</defs>
</svg>
