<svg width="249" height="227" viewBox="0 0 249 227" fill="none" xmlns="http://www.w3.org/2000/svg">
<path fill-rule="evenodd" clip-rule="evenodd" d="M0.5 137.54C0.5 95.5328 34.5406 61.4456 76.5025 61.4456H78.5379V65.9789H76.5025C37.0496 65.9789 5.03332 98.0312 5.03332 137.54C5.03332 177.049 37.0496 209.102 76.5025 209.102C90.6688 209.102 104.476 204.883 116.222 196.982L118.752 200.744C106.259 209.147 91.5714 213.635 76.5025 213.635C34.5406 213.635 0.5 179.548 0.5 137.54Z" fill="#375BD2"/>
<path fill-rule="evenodd" clip-rule="evenodd" d="M163.626 6.19613C124.803 -0.716376 87.6773 25.2276 80.7702 64.1048C80.0525 68.2382 79.6942 72.3681 79.6942 76.4958C79.6942 96.7877 88.3027 116.091 103.368 129.649L100.336 133.019C84.3156 118.602 75.1609 98.0738 75.1609 76.4958C75.1609 72.1027 75.5425 67.7119 76.3045 63.3246L76.306 63.3161C83.6483 21.9759 123.125 -5.61966 164.421 1.733C205.715 9.0855 233.27 48.6137 225.928 89.9533L225.927 89.9619C225.546 92.0603 225.071 94.0556 224.612 95.9847L224.606 96.0098L220.196 94.9611C220.66 93.0089 221.108 91.1233 221.465 89.1565C228.368 50.2779 202.45 13.1088 163.626 6.19613Z" fill="#375BD2"/>
<path fill-rule="evenodd" clip-rule="evenodd" d="M172.998 78.7621C133.529 78.7621 101.529 110.799 101.529 150.323C101.529 189.848 133.529 221.885 172.998 221.885C212.466 221.885 244.467 189.848 244.467 150.323C244.467 110.799 212.466 78.7621 172.998 78.7621ZM96.9952 150.323C96.9952 108.3 131.02 74.2288 172.998 74.2288C214.975 74.2288 249 108.3 249 150.323C249 192.347 214.975 226.418 172.998 226.418C131.02 226.418 96.9952 192.347 96.9952 150.323Z" fill="#375BD2"/>
<path fill-rule="evenodd" clip-rule="evenodd" d="M170.351 110.439H180.176V119.373C185.318 119.901 190.194 121.603 194.585 124.329L195.858 125.119L191.48 136.541L189.613 135.373C186.734 133.571 183.542 132.361 180.176 131.703V144.105C183.946 145.102 188.023 146.374 191.267 148.641C195.05 151.284 197.662 155.25 197.662 161.347C197.662 165.857 196.092 170.105 192.846 173.381C189.899 176.356 185.678 178.422 180.269 179.248V188.357H170.444V179.412C163.394 178.684 156.594 176.198 152.612 172.495L151.686 171.634L156.425 160.298L158.299 161.776C161.855 164.579 165.987 166.447 170.351 167.169V154.783C166.581 153.779 162.543 152.484 159.336 150.189C155.601 147.516 153.051 143.528 153.051 137.448C153.051 132.989 154.594 128.745 157.812 125.458C160.738 122.469 164.94 120.379 170.351 119.549V110.439ZM173.978 114.066V122.782L172.349 122.949C166.803 123.517 162.904 125.44 160.404 127.995C157.909 130.543 156.677 133.848 156.677 137.448C156.677 142.299 158.614 145.212 161.447 147.24C164.419 149.367 168.425 150.553 172.614 151.624L173.978 151.973V171.195L172.011 171.028C166.965 170.6 162.156 168.839 157.964 166.017L156.031 170.641C159.683 173.461 165.816 175.523 172.37 175.934L174.07 176.04V184.73H176.642V176.014L178.271 175.847C183.825 175.278 187.748 173.374 190.27 170.828C192.784 168.291 194.035 164.989 194.035 161.347C194.035 156.514 192.068 153.625 189.19 151.614C186.168 149.502 182.114 148.339 177.914 147.264L176.55 146.915V127.515L178.593 127.776C182.453 128.269 186.198 129.389 189.641 131.207L191.386 126.653C187.349 124.403 182.915 123.1 178.271 122.863L176.55 122.776V114.066H173.978ZM174.07 127.643V146.273L171.739 145.578C169.515 144.914 167.34 144.071 165.704 142.769C163.978 141.396 162.857 139.508 162.857 136.985C162.857 134.823 163.551 132.749 165.151 131.102C166.729 129.477 169.034 128.426 171.979 127.968L174.07 127.643ZM167.752 133.629C166.901 134.505 166.484 135.627 166.484 136.985C166.484 138.26 166.982 139.152 167.962 139.932C168.599 140.438 169.429 140.886 170.444 141.298V132.047C169.205 132.464 168.34 133.024 167.752 133.629ZM176.642 152.581L178.997 153.318C181.253 154.024 183.469 154.89 185.133 156.21C186.891 157.603 188.04 159.513 188.04 162.089C188.04 164.244 187.296 166.265 185.641 167.846C184.025 169.39 181.687 170.377 178.729 170.829L176.642 171.147V152.581ZM180.269 157.614V166.776C181.593 166.366 182.516 165.816 183.136 165.224C184.002 164.397 184.414 163.36 184.414 162.089C184.414 160.773 183.898 159.858 182.88 159.052C182.21 158.52 181.336 158.052 180.269 157.614Z" fill="white"/>
<path fill-rule="evenodd" clip-rule="evenodd" d="M166.07 70.4512L133.874 42.3836L136.257 39.6499L168.453 67.7176L166.07 70.4512Z" fill="white"/>
<path fill-rule="evenodd" clip-rule="evenodd" d="M133.874 67.7176L166.07 39.6499L168.453 42.3836L136.257 70.4512L133.874 67.7176Z" fill="white"/>
<path fill-rule="evenodd" clip-rule="evenodd" d="M78.8264 152.894L46.6306 124.827L49.0138 122.093L81.2096 150.161L78.8264 152.894Z" fill="white"/>
<path fill-rule="evenodd" clip-rule="evenodd" d="M46.6306 150.161L78.8264 122.093L81.2096 124.827L49.0138 152.894L46.6306 150.161Z" fill="white"/>
</svg>
