<?xml version="1.0" encoding="utf-8"?>
<!-- Generator: Adobe Illustrator 23.0.1, SVG Export Plug-In . SVG Version: 6.00 Build 0)  -->
<svg version="1.1" id="Layer_1" xmlns="http://www.w3.org/2000/svg" xmlns:xlink="http://www.w3.org/1999/xlink" x="0px" y="0px"
	 viewBox="0 0 100 100" style="enable-background:new 0 0 100 100;" xml:space="preserve">
<style type="text/css">
	.st0{fill:#FFFFFF;}
</style>
<path class="st0" d="M81.1,58.8c-1.5,1-3.2,1.1-4.6,0.4c-1.7-1-2.7-3.4-2.7-6.6v-9.9c0-4.7-1.7-8.1-4.7-9c-5.1-1.6-8.9,5-10.3,7.4
	L50,56.2V37.6c-0.1-4.3-1.4-6.8-3.9-7.6c-1.7-0.5-4.1-0.3-6.5,3.6l-20,33.7C16.9,62,15.5,56,15.5,50C15.5,29.6,31,13.1,50,13.1
	c19,0,34.5,16.5,34.5,36.9v0.1v0.1C84.6,54.1,83.4,57.3,81.1,58.8z M92.1,50L92.1,50v-0.2C92,25.1,73.1,4.9,50,4.9
	C26.8,4.9,7.9,25.1,7.9,50c0,24.8,18.9,45.1,42.1,45.1c10.7,0,20.8-4.3,28.6-12.1c1.6-1.6,1.7-4.1,0.2-5.8c-1.4-1.7-3.8-1.7-5.4-0.3
	c0,0,0,0-0.1,0.1C67,83.4,58.5,87,49.8,87c-10.2,0-19.3-4.7-25.6-12.2l18-30.4v14.1c0,6.7,2.5,8.9,4.6,9.5c2.1,0.6,5.2,0.2,8.6-5.5
	l9.9-16.9c0.3-0.5,0.6-1,0.9-1.4v8.6c0,6.3,2.4,11.4,6.5,13.8c3.7,2.3,8.4,2,12.3-0.5C89.8,62.7,92.4,56.9,92.1,50z"/>
</svg>
