<svg width="162" height="144" viewBox="0 0 162 144" fill="none" xmlns="http://www.w3.org/2000/svg">
<path fill-rule="evenodd" clip-rule="evenodd" d="M0 87C0 59.9178 22.2014 38 49.4973 38H50.8221V41.0395H49.4973C23.8016 41.0395 3.00748 61.6574 3.00748 87C3.00748 112.343 23.8016 132.96 49.4973 132.96C58.7198 132.96 67.7059 130.246 75.3476 125.168L77 127.708C68.8647 133.114 59.3036 136 49.4973 136C22.2014 136 0 114.082 0 87Z" fill="#2E3192"/>
<path fill-rule="evenodd" clip-rule="evenodd" d="M106.215 3.70336C80.6592 -0.68025 56.2774 15.7188 51.7453 40.2929C51.2742 42.9068 51.0391 45.5182 51.0391 48.1281C51.0391 60.961 56.6305 73.1716 66.5269 81.7516L64.5194 84C53.9702 74.854 48 61.8256 48 48.1281C48 45.3389 48.2515 42.5513 48.7536 39.7662L48.7547 39.7604C53.5949 13.5058 79.5963 -3.90233 106.736 0.753003C133.887 5.41018 152.06 30.4694 147.219 56.7305L147.218 56.7363C146.967 58.0679 146.654 59.3339 146.353 60.5553L146.349 60.5732L143.396 59.8655C143.701 58.6282 143.995 57.4358 144.229 56.1925C148.757 31.6242 131.76 8.08513 106.215 3.70336Z" fill="#2E3192"/>
<path fill-rule="evenodd" clip-rule="evenodd" d="M112.5 50.0085C86.7925 50.0085 66.0076 70.4059 66.0076 95.5C66.0076 120.594 86.7925 140.991 112.5 140.991C138.207 140.991 158.992 120.594 158.992 95.5C158.992 70.4059 138.207 50.0085 112.5 50.0085ZM63 95.5C63 68.6841 85.1923 47 112.5 47C139.808 47 162 68.6841 162 95.5C162 122.316 139.808 144 112.5 144C85.1923 144 63 122.316 63 95.5Z" fill="#2E3192"/>
<path fill-rule="evenodd" clip-rule="evenodd" d="M110.364 69H117.487V74.7998C120.809 75.1778 123.96 76.2781 126.806 78.0101L127.9 78.6759L124.761 86.7062L123.213 85.7567C121.462 84.6829 119.529 83.9387 117.487 83.506V90.8041C119.905 91.4397 122.527 92.2661 124.636 93.7114C127.208 95.4728 129 98.1385 129 102.213C129 105.194 127.927 108.015 125.722 110.196C123.775 112.123 121.027 113.472 117.548 114.064V120H110.425V114.194C105.85 113.682 101.436 112.08 98.8012 109.679L98 108.949L101.391 100.999L102.946 102.2C105.143 103.898 107.681 105.055 110.364 105.553V98.2545C107.947 97.6137 105.349 96.7728 103.262 95.3088C100.721 93.5264 98.9732 90.8468 98.9732 86.7874C98.9732 83.8149 100.025 80.9798 102.214 78.7878C104.148 76.8509 106.886 75.4987 110.364 74.9275V69ZM113.406 72.0504V77.6448L112.037 77.7824C108.436 78.1442 105.944 79.364 104.364 80.9462C102.791 82.5208 102.015 84.5584 102.015 86.7874C102.015 89.783 103.222 91.5575 105.006 92.8094C106.908 94.1436 109.491 94.898 112.254 95.5912L113.406 95.8802V108.952L111.759 108.815C108.51 108.544 105.408 107.464 102.68 105.733L101.676 108.087C104.036 109.769 107.89 111.018 112.039 111.273L113.467 111.36V116.95H114.506V111.366L115.864 111.219C119.473 110.828 121.988 109.606 123.586 108.025C125.173 106.454 125.958 104.433 125.958 102.213C125.958 99.2317 124.735 97.4732 122.92 96.2302C120.985 94.9045 118.37 94.164 115.597 93.4685L114.445 93.1796V79.9778L116.155 80.192C118.613 80.5001 121.006 81.1825 123.223 82.2821L124.119 79.9892C121.576 78.6499 118.797 77.8734 115.891 77.7284L114.445 77.6562V72.0504H113.406ZM113.467 80.0507V92.9872L111.492 92.3686C110.029 91.9102 108.559 91.3371 107.441 90.4649C106.25 89.5357 105.43 88.2374 105.43 86.4885C105.43 85.0045 105.918 83.5686 107.045 82.4316C108.149 81.317 109.738 80.6186 111.718 80.3171L113.467 80.0507ZM109.203 84.5815C108.715 85.0738 108.472 85.7006 108.472 86.4885C108.472 87.1311 108.718 87.5965 109.309 88.0574C109.607 88.2901 109.979 88.5077 110.425 88.7167V83.7977C109.874 84.0279 109.48 84.3022 109.203 84.5815ZM114.506 96.0855L116.472 96.6885C117.962 97.1456 119.468 97.7181 120.614 98.608C121.838 99.5594 122.665 100.891 122.665 102.691C122.665 104.163 122.128 105.547 120.972 106.631C119.851 107.68 118.254 108.351 116.276 108.68L114.506 108.974V96.0855ZM117.548 100.323V105.203C118.157 104.964 118.593 104.684 118.895 104.401C119.398 103.93 119.623 103.371 119.623 102.691C119.623 101.979 119.353 101.488 118.75 101.019C118.431 100.771 118.031 100.542 117.548 100.323Z" fill="black"/>
<path fill-rule="evenodd" clip-rule="evenodd" d="M107.115 45L87 26.3731L88.8847 24L109 42.6269L107.115 45Z" fill="black"/>
<path fill-rule="evenodd" clip-rule="evenodd" d="M87 42.6269L107.115 24L109 26.3731L88.8847 45L87 42.6269Z" fill="black"/>
<path fill-rule="evenodd" clip-rule="evenodd" d="M51.0412 97L30 79.2719L31.9588 77L53 94.7281L51.0412 97Z" fill="black"/>
<path fill-rule="evenodd" clip-rule="evenodd" d="M30 94.7281L51.0412 77L53 79.2719L31.9588 97L30 94.7281Z" fill="black"/>
</svg>
