<svg width="2485" height="666" viewBox="0 0 2485 666" fill="none" xmlns="http://www.w3.org/2000/svg">
<path d="M0 12.8077C0 5.73421 5.7342 0 12.8077 0H2466.76C2473.84 0 2479.57 5.7342 2479.57 12.8077V653.192C2479.57 660.266 2473.84 666 2466.76 666H12.8077C5.73417 666 0 660.266 0 653.192V12.8077Z" fill="white"/>
<path fill-rule="evenodd" clip-rule="evenodd" d="M2466.76 1.40885H12.8077C6.51228 1.40885 1.40885 6.51229 1.40885 12.8077V653.192C1.40885 659.488 6.51226 664.591 12.8077 664.591H2466.76C2473.06 664.591 2478.16 659.488 2478.16 653.192V12.8077C2478.16 6.51228 2473.06 1.40885 2466.76 1.40885ZM12.8077 0C5.7342 0 0 5.73421 0 12.8077V653.192C0 660.266 5.73417 666 12.8077 666H2466.76C2473.84 666 2479.57 660.266 2479.57 653.192V12.8077C2479.57 5.7342 2473.84 0 2466.76 0H12.8077Z" fill="#9FA8DA"/>
<path fill-rule="evenodd" clip-rule="evenodd" d="M2484.69 163.938H0V161.377H2484.69V163.938Z" fill="#9FA8DA"/>
<path fill-rule="evenodd" clip-rule="evenodd" d="M2484.69 407.285H0V405.748H2484.69V407.285Z" fill="#9FA8DA"/>
<path fill-rule="evenodd" clip-rule="evenodd" d="M706.984 666L706.984 2.56152H708.521V666H706.984Z" fill="#9FA8DA"/>
<path fill-rule="evenodd" clip-rule="evenodd" d="M1280.77 666V2.56152H1282.3V666H1280.77Z" fill="#9FA8DA"/>
<path fill-rule="evenodd" clip-rule="evenodd" d="M1898.1 666V2.56152H1899.64V666H1898.1Z" fill="#9FA8DA"/>
<path d="M108.774 307.918C104.402 307.918 100.809 306.483 97.9949 303.614C95.1806 300.773 93.7734 297.248 93.7734 293.04C93.7734 288.832 95.1806 285.308 97.9949 282.466C100.809 279.597 104.402 278.163 108.774 278.163C111.369 278.163 113.774 278.791 115.987 280.048C118.2 281.305 119.922 282.999 121.151 285.13L117.831 287.056C117.012 285.472 115.782 284.215 114.143 283.286C112.531 282.329 110.741 281.851 108.774 281.851C105.44 281.851 102.735 282.917 100.659 285.048C98.5823 287.152 97.544 289.816 97.544 293.04C97.544 296.237 98.5823 298.887 100.659 300.991C102.735 303.122 105.44 304.188 108.774 304.188C110.741 304.188 112.531 303.723 114.143 302.794C115.782 301.838 117.012 300.581 117.831 299.024L121.151 300.909C119.949 303.04 118.241 304.748 116.028 306.032C113.842 307.289 111.424 307.918 108.774 307.918Z" fill="#1A2B6B"/>
<path d="M128.785 286.892V290.335C129.96 287.794 132.091 286.524 135.178 286.524V290.253C133.43 290.171 131.927 290.636 130.67 291.647C129.413 292.658 128.785 294.283 128.785 296.524V307.385H125.219V286.892H128.785Z" fill="#1A2B6B"/>
<path d="M154.842 304.803C152.766 306.879 150.211 307.918 147.178 307.918C144.145 307.918 141.59 306.879 139.514 304.803C137.437 302.726 136.399 300.171 136.399 297.139C136.399 294.106 137.437 291.551 139.514 289.474C141.59 287.398 144.145 286.36 147.178 286.36C150.211 286.36 152.766 287.398 154.842 289.474C156.946 291.578 157.998 294.133 157.998 297.139C157.998 300.144 156.946 302.699 154.842 304.803ZM147.178 304.434C149.227 304.434 150.949 303.737 152.342 302.344C153.736 300.95 154.432 299.215 154.432 297.139C154.432 295.062 153.736 293.327 152.342 291.934C150.949 290.54 149.227 289.843 147.178 289.843C145.156 289.843 143.448 290.54 142.055 291.934C140.661 293.327 139.965 295.062 139.965 297.139C139.965 299.215 140.661 300.95 142.055 302.344C143.448 303.737 145.156 304.434 147.178 304.434Z" fill="#1A2B6B"/>
<path d="M164.835 292.425C164.835 293.737 166.187 294.761 168.892 295.499C169.903 295.718 170.75 295.95 171.434 296.196C172.144 296.415 172.909 296.756 173.729 297.221C174.576 297.685 175.218 298.3 175.655 299.065C176.092 299.83 176.311 300.732 176.311 301.77C176.311 303.628 175.587 305.117 174.139 306.237C172.69 307.357 170.86 307.918 168.647 307.918C166.679 307.918 164.972 307.494 163.523 306.647C162.103 305.773 161.092 304.598 160.491 303.122L163.564 301.36C163.892 302.344 164.507 303.122 165.409 303.696C166.31 304.27 167.39 304.557 168.647 304.557C169.876 304.557 170.86 304.325 171.597 303.86C172.335 303.396 172.704 302.699 172.704 301.77C172.704 300.376 171.352 299.365 168.647 298.737C167.745 298.491 167.062 298.3 166.597 298.163C166.133 298.027 165.491 297.781 164.671 297.425C163.879 297.07 163.278 296.701 162.868 296.319C162.458 295.909 162.075 295.376 161.72 294.721C161.392 294.037 161.228 293.286 161.228 292.466C161.228 290.69 161.911 289.229 163.278 288.081C164.671 286.933 166.406 286.36 168.483 286.36C170.149 286.36 171.625 286.742 172.909 287.507C174.22 288.245 175.204 289.283 175.86 290.622L172.868 292.302C172.13 290.554 170.668 289.679 168.483 289.679C167.444 289.679 166.57 289.925 165.86 290.417C165.177 290.909 164.835 291.578 164.835 292.425Z" fill="#1A2B6B"/>
<path d="M182.325 292.425C182.325 293.737 183.678 294.761 186.383 295.499C187.394 295.718 188.241 295.95 188.924 296.196C189.634 296.415 190.399 296.756 191.219 297.221C192.066 297.685 192.708 298.3 193.145 299.065C193.583 299.83 193.801 300.732 193.801 301.77C193.801 303.628 193.077 305.117 191.629 306.237C190.181 307.357 188.35 307.918 186.137 307.918C184.17 307.918 182.462 307.494 181.014 306.647C179.593 305.773 178.582 304.598 177.981 303.122L181.055 301.36C181.383 302.344 181.998 303.122 182.899 303.696C183.801 304.27 184.88 304.557 186.137 304.557C187.367 304.557 188.35 304.325 189.088 303.86C189.826 303.396 190.195 302.699 190.195 301.77C190.195 300.376 188.842 299.365 186.137 298.737C185.235 298.491 184.552 298.3 184.088 298.163C183.623 298.027 182.981 297.781 182.162 297.425C181.369 297.07 180.768 296.701 180.358 296.319C179.948 295.909 179.566 295.376 179.211 294.721C178.883 294.037 178.719 293.286 178.719 292.466C178.719 290.69 179.402 289.229 180.768 288.081C182.162 286.933 183.897 286.36 185.973 286.36C187.64 286.36 189.115 286.742 190.399 287.507C191.711 288.245 192.695 289.283 193.35 290.622L190.358 292.302C189.621 290.554 188.159 289.679 185.973 289.679C184.935 289.679 184.061 289.925 183.35 290.417C182.667 290.909 182.325 291.578 182.325 292.425Z" fill="#1A2B6B"/>
<path d="M222.122 307.918C217.75 307.918 214.157 306.483 211.343 303.614C208.529 300.773 207.122 297.248 207.122 293.04C207.122 288.832 208.529 285.308 211.343 282.466C214.157 279.597 217.75 278.163 222.122 278.163C224.718 278.163 227.122 278.791 229.335 280.048C231.548 281.305 233.27 282.999 234.499 285.13L231.179 287.056C230.36 285.472 229.13 284.215 227.491 283.286C225.879 282.329 224.089 281.851 222.122 281.851C218.788 281.851 216.083 282.917 214.007 285.048C211.93 287.152 210.892 289.816 210.892 293.04C210.892 296.237 211.93 298.887 214.007 300.991C216.083 303.122 218.788 304.188 222.122 304.188C224.089 304.188 225.879 303.723 227.491 302.794C229.13 301.838 230.36 300.581 231.179 299.024L234.499 300.909C233.297 303.04 231.589 304.748 229.376 306.032C227.19 307.289 224.772 307.918 222.122 307.918Z" fill="#1A2B6B"/>
<path d="M248.772 286.36C251.177 286.36 253.103 287.125 254.551 288.655C255.999 290.158 256.723 292.207 256.723 294.802V307.385H253.158V295.007C253.158 293.368 252.707 292.084 251.805 291.155C250.904 290.226 249.66 289.761 248.076 289.761C246.245 289.761 244.797 290.335 243.731 291.483C242.666 292.603 242.133 294.283 242.133 296.524V307.385H238.567V278.696H242.133V289.843C243.554 287.521 245.767 286.36 248.772 286.36Z" fill="#1A2B6B"/>
<path d="M278.669 290.417V286.892H282.234V307.385H278.669V303.86C276.92 306.565 274.338 307.918 270.923 307.918C268.026 307.918 265.581 306.879 263.586 304.803C261.565 302.699 260.554 300.144 260.554 297.139C260.554 294.16 261.565 291.619 263.586 289.515C265.608 287.412 268.054 286.36 270.923 286.36C274.338 286.36 276.92 287.712 278.669 290.417ZM271.374 304.475C273.45 304.475 275.185 303.778 276.579 302.385C277.972 300.937 278.669 299.188 278.669 297.139C278.669 295.062 277.972 293.327 276.579 291.934C275.185 290.513 273.45 289.802 271.374 289.802C269.324 289.802 267.603 290.513 266.209 291.934C264.816 293.327 264.119 295.062 264.119 297.139C264.119 299.188 264.816 300.937 266.209 302.385C267.603 303.778 269.324 304.475 271.374 304.475Z" fill="#1A2B6B"/>
<path d="M289.44 283.163C288.757 283.163 288.183 282.931 287.719 282.466C287.254 282.002 287.022 281.441 287.022 280.786C287.022 280.13 287.254 279.57 287.719 279.105C288.183 278.614 288.757 278.368 289.44 278.368C290.096 278.368 290.656 278.614 291.12 279.105C291.585 279.57 291.817 280.13 291.817 280.786C291.817 281.441 291.585 282.002 291.12 282.466C290.656 282.931 290.096 283.163 289.44 283.163ZM291.202 307.385H287.637V286.892H291.202V307.385Z" fill="#1A2B6B"/>
<path d="M306.847 286.36C309.252 286.36 311.178 287.125 312.626 288.655C314.074 290.158 314.798 292.207 314.798 294.802V307.385H311.233V295.007C311.233 293.368 310.782 292.084 309.88 291.155C308.979 290.226 307.735 289.761 306.151 289.761C304.32 289.761 302.872 290.335 301.806 291.483C300.741 292.603 300.208 294.283 300.208 296.524V307.385H296.642V286.892H300.208V289.843C301.629 287.521 303.842 286.36 306.847 286.36Z" fill="#1A2B6B"/>
<path d="M94.9199 533.415V514.357H98.7315V533.251C98.7315 535.3 99.3326 536.912 100.535 538.087C101.764 539.262 103.486 539.849 105.699 539.849C107.912 539.849 109.62 539.262 110.822 538.087C112.051 536.912 112.666 535.3 112.666 533.251V514.357H116.437V533.415C116.437 536.53 115.44 539.002 113.445 540.833C111.45 542.664 108.868 543.579 105.699 543.579C102.502 543.579 99.9064 542.664 97.9118 540.833C95.9172 539.002 94.9199 536.53 94.9199 533.415Z" fill="#1A2B6B"/>
<path d="M124.77 528.087C124.77 529.398 126.122 530.423 128.827 531.161C129.838 531.379 130.685 531.611 131.368 531.857C132.079 532.076 132.844 532.417 133.664 532.882C134.511 533.346 135.153 533.961 135.59 534.726C136.027 535.491 136.246 536.393 136.246 537.431C136.246 539.289 135.521 540.778 134.073 541.899C132.625 543.019 130.795 543.579 128.581 543.579C126.614 543.579 124.906 543.155 123.458 542.308C122.038 541.434 121.027 540.259 120.425 538.784L123.499 537.021C123.827 538.005 124.442 538.784 125.344 539.358C126.245 539.931 127.325 540.218 128.581 540.218C129.811 540.218 130.795 539.986 131.532 539.521C132.27 539.057 132.639 538.36 132.639 537.431C132.639 536.038 131.286 535.027 128.581 534.398C127.68 534.153 126.997 533.961 126.532 533.825C126.068 533.688 125.426 533.442 124.606 533.087C123.814 532.732 123.212 532.363 122.803 531.98C122.393 531.57 122.01 531.038 121.655 530.382C121.327 529.699 121.163 528.947 121.163 528.128C121.163 526.352 121.846 524.89 123.212 523.742C124.606 522.595 126.341 522.021 128.417 522.021C130.084 522.021 131.56 522.404 132.844 523.169C134.155 523.906 135.139 524.945 135.795 526.283L132.803 527.964C132.065 526.215 130.603 525.341 128.417 525.341C127.379 525.341 126.505 525.587 125.794 526.079C125.111 526.57 124.77 527.24 124.77 528.087Z" fill="#1A2B6B"/>
<path d="M159.58 534.439H142.407C142.762 536.243 143.596 537.664 144.907 538.702C146.219 539.713 147.858 540.218 149.825 540.218C152.53 540.218 154.497 539.221 155.727 537.226L158.76 538.948C156.738 542.035 153.732 543.579 149.743 543.579C146.519 543.579 143.869 542.568 141.792 540.546C139.77 538.47 138.759 535.888 138.759 532.8C138.759 529.685 139.757 527.117 141.751 525.095C143.746 523.046 146.328 522.021 149.497 522.021C152.503 522.021 154.948 523.087 156.834 525.218C158.746 527.294 159.703 529.835 159.703 532.841C159.703 533.36 159.662 533.893 159.58 534.439ZM149.497 525.382C147.612 525.382 146.027 525.915 144.743 526.98C143.486 528.046 142.708 529.494 142.407 531.325H156.096C155.795 529.439 155.044 527.977 153.842 526.939C152.639 525.901 151.191 525.382 149.497 525.382Z" fill="#1A2B6B"/>
<path d="M167.367 522.554V525.997C168.542 523.456 170.673 522.185 173.761 522.185V525.915C172.012 525.833 170.509 526.297 169.252 527.308C167.995 528.319 167.367 529.945 167.367 532.185V543.046H163.801V522.554H167.367Z" fill="#1A2B6B"/>
<path d="M191.676 530.341V539.44H204.996V543.046H187.864V514.357H204.791V517.964H191.676V526.775H203.766V530.341H191.676Z" fill="#1A2B6B"/>
<path d="M219.188 532.472L227.016 543.046H222.835L217.098 535.3L211.319 543.046H207.138L215.007 532.513L207.589 522.554H211.811L217.098 529.685L222.385 522.554H226.565L219.188 532.472Z" fill="#1A2B6B"/>
<path d="M241.633 522.021C244.502 522.021 246.947 523.073 248.969 525.177C250.991 527.281 252.002 529.822 252.002 532.8C252.002 535.806 250.991 538.36 248.969 540.464C246.975 542.541 244.529 543.579 241.633 543.579C238.245 543.579 235.663 542.226 233.887 539.521V551.243H230.321V522.554H233.887V526.079C235.663 523.374 238.245 522.021 241.633 522.021ZM241.182 540.136C243.231 540.136 244.953 539.44 246.346 538.046C247.74 536.598 248.436 534.849 248.436 532.8C248.436 530.723 247.74 528.988 246.346 527.595C244.953 526.174 243.231 525.464 241.182 525.464C239.106 525.464 237.371 526.174 235.977 527.595C234.584 528.988 233.887 530.723 233.887 532.8C233.887 534.849 234.584 536.598 235.977 538.046C237.371 539.44 239.106 540.136 241.182 540.136Z" fill="#1A2B6B"/>
<path d="M275.929 534.439H258.757C259.112 536.243 259.945 537.664 261.257 538.702C262.568 539.713 264.208 540.218 266.175 540.218C268.88 540.218 270.847 539.221 272.077 537.226L275.11 538.948C273.088 542.035 270.082 543.579 266.093 543.579C262.869 543.579 260.219 542.568 258.142 540.546C256.12 538.47 255.109 535.888 255.109 532.8C255.109 529.685 256.107 527.117 258.101 525.095C260.096 523.046 262.678 522.021 265.847 522.021C268.853 522.021 271.298 523.087 273.183 525.218C275.096 527.294 276.052 529.835 276.052 532.841C276.052 533.36 276.011 533.893 275.929 534.439ZM265.847 525.382C263.962 525.382 262.377 525.915 261.093 526.98C259.836 528.046 259.057 529.494 258.757 531.325H272.446C272.145 529.439 271.394 527.977 270.192 526.939C268.989 525.901 267.541 525.382 265.847 525.382Z" fill="#1A2B6B"/>
<path d="M283.717 522.554V525.997C284.892 523.456 287.023 522.185 290.11 522.185V525.915C288.362 525.833 286.859 526.297 285.602 527.308C284.345 528.319 283.717 529.945 283.717 532.185V543.046H280.151V522.554H283.717Z" fill="#1A2B6B"/>
<path d="M295.403 518.824C294.72 518.824 294.146 518.592 293.681 518.128C293.217 517.663 292.984 517.103 292.984 516.447C292.984 515.791 293.217 515.231 293.681 514.767C294.146 514.275 294.72 514.029 295.403 514.029C296.058 514.029 296.618 514.275 297.083 514.767C297.547 515.231 297.78 515.791 297.78 516.447C297.78 517.103 297.547 517.663 297.083 518.128C296.618 518.592 296.058 518.824 295.403 518.824ZM297.165 543.046H293.599V522.554H297.165V543.046Z" fill="#1A2B6B"/>
<path d="M322.277 534.439H305.105C305.46 536.243 306.293 537.664 307.605 538.702C308.916 539.713 310.556 540.218 312.523 540.218C315.228 540.218 317.195 539.221 318.425 537.226L321.458 538.948C319.436 542.035 316.43 543.579 312.441 543.579C309.217 543.579 306.567 542.568 304.49 540.546C302.468 538.47 301.457 535.888 301.457 532.8C301.457 529.685 302.454 527.117 304.449 525.095C306.444 523.046 309.026 522.021 312.195 522.021C315.201 522.021 317.646 523.087 319.531 525.218C321.444 527.294 322.4 529.835 322.4 532.841C322.4 533.36 322.359 533.893 322.277 534.439ZM312.195 525.382C310.31 525.382 308.725 525.915 307.441 526.98C306.184 528.046 305.405 529.494 305.105 531.325H318.794C318.493 529.439 317.742 527.977 316.539 526.939C315.337 525.901 313.889 525.382 312.195 525.382Z" fill="#1A2B6B"/>
<path d="M336.704 522.021C339.109 522.021 341.035 522.786 342.483 524.316C343.931 525.819 344.655 527.868 344.655 530.464V543.046H341.09V530.669C341.09 529.029 340.639 527.745 339.737 526.816C338.835 525.887 337.592 525.423 336.007 525.423C334.177 525.423 332.729 525.997 331.663 527.144C330.597 528.264 330.065 529.945 330.065 532.185V543.046H326.499V522.554H330.065V525.505C331.485 523.182 333.699 522.021 336.704 522.021Z" fill="#1A2B6B"/>
<path d="M359.264 543.579C356.177 543.579 353.608 542.554 351.559 540.505C349.51 538.429 348.485 535.86 348.485 532.8C348.485 529.74 349.51 527.185 351.559 525.136C353.608 523.059 356.177 522.021 359.264 522.021C361.286 522.021 363.103 522.513 364.715 523.496C366.327 524.453 367.53 525.751 368.322 527.39L365.33 529.111C364.811 528.018 364.005 527.144 362.912 526.488C361.846 525.833 360.63 525.505 359.264 525.505C357.215 525.505 355.494 526.201 354.1 527.595C352.734 529.016 352.051 530.751 352.051 532.8C352.051 534.822 352.734 536.543 354.1 537.964C355.494 539.358 357.215 540.054 359.264 540.054C360.63 540.054 361.86 539.74 362.953 539.112C364.046 538.456 364.879 537.582 365.453 536.489L368.486 538.251C367.584 539.89 366.314 541.188 364.674 542.145C363.035 543.101 361.232 543.579 359.264 543.579Z" fill="#1A2B6B"/>
<path d="M391.399 534.439H374.226C374.581 536.243 375.415 537.664 376.726 538.702C378.038 539.713 379.677 540.218 381.644 540.218C384.349 540.218 386.317 539.221 387.546 537.226L390.579 538.948C388.557 542.035 385.552 543.579 381.562 543.579C378.338 543.579 375.688 542.568 373.611 540.546C371.59 538.47 370.579 535.888 370.579 532.8C370.579 529.685 371.576 527.117 373.57 525.095C375.565 523.046 378.147 522.021 381.317 522.021C384.322 522.021 386.768 523.087 388.653 525.218C390.565 527.294 391.522 529.835 391.522 532.841C391.522 533.36 391.481 533.893 391.399 534.439ZM381.317 525.382C379.431 525.382 377.847 525.915 376.562 526.98C375.305 528.046 374.527 529.494 374.226 531.325H387.915C387.615 529.439 386.863 527.977 385.661 526.939C384.459 525.901 383.011 525.382 381.317 525.382Z" fill="#1A2B6B"/>
<path d="M950.523 95.3506C947.708 95.3506 945.331 94.7222 943.391 93.4653C941.451 92.2084 940.072 90.4734 939.252 88.2602L944.088 85.4323C945.208 88.3559 947.408 89.8177 950.687 89.8177C952.217 89.8177 953.364 89.5444 954.129 88.998C954.894 88.4515 955.277 87.7138 955.277 86.7848C955.277 85.7738 954.826 84.9951 953.924 84.4487C953.023 83.8749 951.411 83.2601 949.088 82.6044C946.575 81.8393 944.594 80.9513 943.145 79.9404C941.342 78.6015 940.441 76.6343 940.441 74.0386C940.441 71.4156 941.356 69.3527 943.186 67.8499C945.017 66.2925 947.244 65.5138 949.867 65.5138C952.162 65.5138 954.198 66.0739 955.974 67.1942C957.75 68.3144 959.129 69.8991 960.113 71.9484L955.359 74.6943C954.211 72.2353 952.381 71.0057 949.867 71.0057C948.719 71.0057 947.804 71.279 947.121 71.8254C946.438 72.3446 946.096 73.0276 946.096 73.8746C946.096 74.7763 946.465 75.514 947.203 76.0878C948.023 76.6616 949.471 77.2627 951.547 77.8911L953.515 78.5469C953.87 78.6562 954.485 78.8884 955.359 79.2436C956.179 79.5442 956.78 79.8311 957.162 80.1043C958.501 80.924 959.403 81.771 959.867 82.6454C960.578 83.7929 960.933 85.1454 960.933 86.7028C960.933 89.3532 959.963 91.457 958.023 93.0145C956.083 94.5719 953.583 95.3506 950.523 95.3506Z" fill="#1A2B6B"/>
<path d="M980.51 76.7026V74.2845H985.797V94.7768H980.51V92.3587C978.926 94.3533 976.699 95.3506 973.83 95.3506C971.098 95.3506 968.748 94.3123 966.78 92.2358C964.841 90.1319 963.871 87.5635 963.871 84.5306C963.871 81.5251 964.841 78.9704 966.78 76.8665C968.748 74.7626 971.098 73.7107 973.83 73.7107C976.699 73.7107 978.926 74.708 980.51 76.7026ZM970.756 88.7111C971.822 89.7767 973.174 90.3095 974.813 90.3095C976.453 90.3095 977.805 89.7767 978.871 88.7111C979.964 87.6182 980.51 86.2247 980.51 84.5306C980.51 82.8366 979.964 81.4568 978.871 80.3912C977.805 79.2983 976.453 78.7518 974.813 78.7518C973.174 78.7518 971.822 79.2983 970.756 80.3912C969.69 81.4568 969.158 82.8366 969.158 84.5306C969.158 86.2247 969.69 87.6182 970.756 88.7111Z" fill="#1A2B6B"/>
<path d="M995.879 94.7768H990.592V64.858H995.879V94.7768Z" fill="#1A2B6B"/>
<path d="M1020.64 86.7028H1005.18C1005.87 89.2712 1007.79 90.5554 1010.96 90.5554C1012.99 90.5554 1014.52 89.8723 1015.55 88.5062L1019.82 90.9652C1017.79 93.8888 1014.82 95.3506 1010.88 95.3506C1007.49 95.3506 1004.78 94.326 1002.73 92.2767C1000.68 90.2275 999.652 87.6455 999.652 84.5306C999.652 81.4705 1000.66 78.9021 1002.68 76.8255C1004.68 74.749 1007.28 73.7107 1010.47 73.7107C1013.5 73.7107 1015.98 74.749 1017.89 76.8255C1019.86 78.9021 1020.84 81.4705 1020.84 84.5306C1020.84 85.1044 1020.77 85.8285 1020.64 86.7028ZM1005.1 82.6044H1015.55C1015.25 81.2655 1014.64 80.2409 1013.71 79.5305C1012.81 78.8201 1011.73 78.4649 1010.47 78.4649C1009.05 78.4649 1007.88 78.8338 1006.95 79.5715C1006.02 80.2819 1005.4 81.2929 1005.1 82.6044Z" fill="#1A2B6B"/>
<path d="M1037.81 80.0223L1046.62 94.7768H1040.19L1034.61 85.4323L1029.04 94.7768H1022.65L1031.42 80.0633L1023.1 66.0876H1029.49L1034.61 74.6943L1039.74 66.0876H1046.13L1037.81 80.0223Z" fill="#1A2B6B"/>
<path d="M1526.24 66.0876H1537.63C1541.57 66.0876 1544.85 67.4674 1547.47 70.227C1550.12 72.9593 1551.44 76.361 1551.44 80.4322C1551.44 84.5033 1550.12 87.9051 1547.47 90.6374C1544.85 93.397 1541.57 94.7768 1537.63 94.7768H1526.24V66.0876ZM1531.9 89.3668H1537.63C1540.12 89.3668 1542.14 88.5471 1543.7 86.9078C1545.26 85.2137 1546.03 83.0552 1546.03 80.4322C1546.03 77.7818 1545.26 75.637 1543.7 73.9976C1542.14 72.3309 1540.12 71.4975 1537.63 71.4975H1531.9V89.3668Z" fill="#1A2B6B"/>
<path d="M1565.56 84.2847L1573.06 94.7768H1566.96L1562.53 88.5471L1558.06 94.7768H1551.96L1559.46 84.3257L1552.28 74.2845H1558.39L1562.53 80.0633L1566.67 74.2845H1572.74L1565.56 84.2847Z" fill="#1A2B6B"/>
<path d="M1579.3 80.1043C1579.3 80.9786 1580.54 81.73 1583.03 82.3585C1583.9 82.5497 1584.7 82.782 1585.41 83.0552C1586.12 83.3011 1586.83 83.67 1587.54 84.1618C1588.28 84.6263 1588.85 85.2547 1589.26 86.0471C1589.67 86.8394 1589.87 87.7548 1589.87 88.793C1589.87 90.8969 1589.08 92.5227 1587.5 93.6702C1585.91 94.7905 1583.96 95.3506 1581.64 95.3506C1577.43 95.3506 1574.56 93.7249 1573.03 90.4734L1577.62 87.8914C1578.25 89.6674 1579.59 90.5554 1581.64 90.5554C1583.52 90.5554 1584.46 89.9679 1584.46 88.793C1584.46 87.9187 1583.22 87.1673 1580.73 86.5389C1579.81 86.293 1579.01 86.0471 1578.36 85.8012C1577.7 85.5553 1576.99 85.2001 1576.23 84.7356C1575.46 84.2438 1574.87 83.629 1574.46 82.8913C1574.08 82.1262 1573.89 81.2382 1573.89 80.2273C1573.89 78.2054 1574.63 76.6206 1576.1 75.473C1577.61 74.2982 1579.46 73.7107 1581.68 73.7107C1583.34 73.7107 1584.86 74.0932 1586.23 74.8583C1587.59 75.596 1588.67 76.6616 1589.46 78.0551L1584.96 80.5142C1584.3 79.1207 1583.21 78.4239 1581.68 78.4239C1580.99 78.4239 1580.42 78.5879 1579.96 78.9158C1579.52 79.2163 1579.3 79.6125 1579.3 80.1043Z" fill="#1A2B6B"/>
<path d="M1608.57 76.7026V74.2845H1613.85V94.7768H1608.57V92.3587C1606.98 94.3533 1604.76 95.3506 1601.89 95.3506C1599.15 95.3506 1596.81 94.3123 1594.84 92.2358C1592.9 90.1319 1591.93 87.5635 1591.93 84.5306C1591.93 81.5251 1592.9 78.9704 1594.84 76.8665C1596.81 74.7626 1599.15 73.7107 1601.89 73.7107C1604.76 73.7107 1606.98 74.708 1608.57 76.7026ZM1598.81 88.7111C1599.88 89.7767 1601.23 90.3095 1602.87 90.3095C1604.51 90.3095 1605.86 89.7767 1606.93 88.7111C1608.02 87.6182 1608.57 86.2247 1608.57 84.5306C1608.57 82.8366 1608.02 81.4568 1606.93 80.3912C1605.86 79.2983 1604.51 78.7518 1602.87 78.7518C1601.23 78.7518 1599.88 79.2983 1598.81 80.3912C1597.75 81.4568 1597.22 82.8366 1597.22 84.5306C1597.22 86.2247 1597.75 87.6182 1598.81 88.7111Z" fill="#1A2B6B"/>
<path d="M1623.94 94.7768H1618.65V64.858H1623.94V94.7768Z" fill="#1A2B6B"/>
<path d="M1648.69 86.7028H1633.24C1633.93 89.2712 1635.85 90.5554 1639.02 90.5554C1641.04 90.5554 1642.57 89.8723 1643.61 88.5062L1647.87 90.9652C1645.85 93.8888 1642.87 95.3506 1638.94 95.3506C1635.55 95.3506 1632.83 94.326 1630.78 92.2767C1628.73 90.2275 1627.71 87.6455 1627.71 84.5306C1627.71 81.4705 1628.72 78.9021 1630.74 76.8255C1632.74 74.749 1635.33 73.7107 1638.53 73.7107C1641.56 73.7107 1644.04 74.749 1645.95 76.8255C1647.91 78.9021 1648.9 81.4705 1648.9 84.5306C1648.9 85.1044 1648.83 85.8285 1648.69 86.7028ZM1633.16 82.6044H1643.61C1643.31 81.2655 1642.7 80.2409 1641.77 79.5305C1640.87 78.8201 1639.79 78.4649 1638.53 78.4649C1637.11 78.4649 1635.93 78.8338 1635 79.5715C1634.08 80.2819 1633.46 81.2929 1633.16 82.6044Z" fill="#1A2B6B"/>
<path d="M2031.23 79.8995C2033.74 81.3476 2035 83.5335 2035 86.457C2035 88.8888 2034.14 90.8834 2032.42 92.4408C2030.7 93.9982 2028.58 94.7769 2026.07 94.7769H2013.89V66.0877H2025.2C2027.64 66.0877 2029.7 66.8527 2031.39 68.3828C2033.09 69.9129 2033.93 71.8392 2033.93 74.1616C2033.93 76.5387 2033.03 78.4514 2031.23 79.8995ZM2025.2 71.3747H2019.55V77.6863H2025.2C2026.08 77.6863 2026.8 77.3858 2027.38 76.7847C2027.98 76.1835 2028.28 75.4322 2028.28 74.5305C2028.28 73.6288 2027.99 72.8775 2027.42 72.2763C2026.84 71.6752 2026.11 71.3747 2025.2 71.3747ZM2019.55 89.4899H2026.07C2027.02 89.4899 2027.81 89.1757 2028.44 88.5472C2029.07 87.8915 2029.38 87.0718 2029.38 86.0882C2029.38 85.1319 2029.07 84.3395 2028.44 83.7111C2027.81 83.0553 2027.02 82.7274 2026.07 82.7274H2019.55V89.4899Z" fill="#1A2B6B"/>
<path d="M2041.08 71.8255C2040.21 71.8255 2039.45 71.5113 2038.79 70.8829C2038.16 70.2271 2037.85 69.4621 2037.85 68.5877C2037.85 67.7134 2038.16 66.9483 2038.79 66.2926C2039.45 65.6368 2040.21 65.309 2041.08 65.309C2041.99 65.309 2042.75 65.6368 2043.38 66.2926C2044.04 66.9483 2044.36 67.7134 2044.36 68.5877C2044.36 69.4621 2044.04 70.2271 2043.38 70.8829C2042.75 71.5113 2041.99 71.8255 2041.08 71.8255ZM2043.75 94.7769H2038.46V74.2846H2043.75V94.7769Z" fill="#1A2B6B"/>
<path d="M2059.98 73.7108C2062.25 73.7108 2064.09 74.4622 2065.51 75.965C2066.99 77.4951 2067.73 79.5716 2067.73 82.1946V94.7769H2062.44V82.8504C2062.44 81.5115 2062.07 80.4733 2061.33 79.7355C2060.62 78.9978 2059.64 78.629 2058.38 78.629C2056.99 78.629 2055.88 79.0661 2055.06 79.9405C2054.27 80.7875 2053.87 82.0443 2053.87 83.7111V94.7769H2048.59V74.2846H2053.87V76.5797C2055.13 74.6671 2057.17 73.7108 2059.98 73.7108Z" fill="#1A2B6B"/>
<path d="M2087.82 76.7027V74.2846H2093.1V94.7769H2087.82V92.3588C2086.23 94.3534 2084 95.3507 2081.14 95.3507C2078.4 95.3507 2076.05 94.3124 2074.09 92.2359C2072.15 90.132 2071.18 87.5636 2071.18 84.5307C2071.18 81.5252 2072.15 78.9705 2074.09 76.8666C2076.05 74.7627 2078.4 73.7108 2081.14 73.7108C2084 73.7108 2086.23 74.7081 2087.82 76.7027ZM2078.06 88.7112C2079.13 89.7768 2080.48 90.3096 2082.12 90.3096C2083.76 90.3096 2085.11 89.7768 2086.18 88.7112C2087.27 87.6183 2087.82 86.2248 2087.82 84.5307C2087.82 82.8367 2087.27 81.4569 2086.18 80.3913C2085.11 79.2984 2083.76 78.7519 2082.12 78.7519C2080.48 78.7519 2079.13 79.2984 2078.06 80.3913C2077 81.4569 2076.46 82.8367 2076.46 84.5307C2076.46 86.2248 2077 87.6183 2078.06 88.7112Z" fill="#1A2B6B"/>
<path d="M2109.29 73.7108C2111.56 73.7108 2113.4 74.4622 2114.82 75.965C2116.3 77.4951 2117.04 79.5716 2117.04 82.1946V94.7769H2111.75V82.8504C2111.75 81.5115 2111.38 80.4733 2110.64 79.7355C2109.93 78.9978 2108.95 78.629 2107.69 78.629C2106.3 78.629 2105.19 79.0661 2104.37 79.9405C2103.58 80.7875 2103.18 82.0443 2103.18 83.7111V94.7769H2097.9V74.2846H2103.18V76.5797C2104.44 74.6671 2106.48 73.7108 2109.29 73.7108Z" fill="#1A2B6B"/>
<path d="M2131.31 95.3507C2128.22 95.3507 2125.64 94.3124 2123.56 92.2359C2121.51 90.1593 2120.49 87.5909 2120.49 84.5307C2120.49 81.4706 2121.51 78.9022 2123.56 76.8256C2125.64 74.7491 2128.22 73.7108 2131.31 73.7108C2133.3 73.7108 2135.12 74.189 2136.76 75.1453C2138.4 76.1016 2139.64 77.3858 2140.49 78.9978L2135.94 81.6618C2135.53 80.8148 2134.9 80.1454 2134.05 79.6536C2133.23 79.1618 2132.3 78.9159 2131.26 78.9159C2129.68 78.9159 2128.37 79.4487 2127.33 80.5143C2126.29 81.5525 2125.77 82.8914 2125.77 84.5307C2125.77 86.1155 2126.29 87.4543 2127.33 88.5472C2128.37 89.5855 2129.68 90.1047 2131.26 90.1047C2132.33 90.1047 2133.27 89.8724 2134.09 89.4079C2134.94 88.9161 2135.57 88.2467 2135.98 87.3997L2140.57 90.0227C2139.67 91.6621 2138.38 92.9599 2136.72 93.9162C2135.08 94.8725 2133.27 95.3507 2131.31 95.3507Z" fill="#1A2B6B"/>
<path d="M2162.96 86.7029H2147.51C2148.19 89.2713 2150.12 90.5555 2153.29 90.5555C2155.31 90.5555 2156.84 89.8724 2157.88 88.5063L2162.14 90.9653C2160.12 93.8889 2157.14 95.3507 2153.21 95.3507C2149.82 95.3507 2147.1 94.3261 2145.05 92.2768C2143 90.2276 2141.98 87.6456 2141.98 84.5307C2141.98 81.4706 2142.99 78.9022 2145.01 76.8256C2147.01 74.7491 2149.6 73.7108 2152.8 73.7108C2155.83 73.7108 2158.3 74.7491 2160.22 76.8256C2162.18 78.9022 2163.17 81.4706 2163.17 84.5307C2163.17 85.1045 2163.1 85.8286 2162.96 86.7029ZM2147.43 82.6045H2157.88C2157.58 81.2656 2156.97 80.241 2156.04 79.5306C2155.13 78.8202 2154.06 78.465 2152.8 78.465C2151.38 78.465 2150.2 78.8339 2149.27 79.5716C2148.35 80.282 2147.73 81.293 2147.43 82.6045Z" fill="#1A2B6B"/>
<path d="M2183.01 66.0877V89.3669H2193.95V94.7769H2177.35V66.0877H2183.01Z" fill="#1A2B6B"/>
<path d="M2212.09 76.7027V74.2846H2217.38V94.7769H2212.09V92.3588C2210.51 94.3534 2208.28 95.3507 2205.41 95.3507C2202.68 95.3507 2200.33 94.3124 2198.36 92.2359C2196.42 90.132 2195.45 87.5636 2195.45 84.5307C2195.45 81.5252 2196.42 78.9705 2198.36 76.8666C2200.33 74.7627 2202.68 73.7108 2205.41 73.7108C2208.28 73.7108 2210.51 74.7081 2212.09 76.7027ZM2202.34 88.7112C2203.4 89.7768 2204.75 90.3096 2206.39 90.3096C2208.03 90.3096 2209.39 89.7768 2210.45 88.7112C2211.54 87.6183 2212.09 86.2248 2212.09 84.5307C2212.09 82.8367 2211.54 81.4569 2210.45 80.3913C2209.39 79.2984 2208.03 78.7519 2206.39 78.7519C2204.75 78.7519 2203.4 79.2984 2202.34 80.3913C2201.27 81.4569 2200.74 82.8367 2200.74 84.5307C2200.74 86.2248 2201.27 87.6183 2202.34 88.7112Z" fill="#1A2B6B"/>
<path d="M2235.7 85.3504V74.2846H2240.98V94.7769H2235.7V92.4818C2234.44 94.3944 2232.4 95.3507 2229.59 95.3507C2227.35 95.3507 2225.49 94.5993 2224.02 93.0965C2222.57 91.5664 2221.84 89.4899 2221.84 86.8669V74.2846H2227.13V86.2111C2227.13 87.5499 2227.49 88.5882 2228.2 89.3259C2228.93 90.0637 2229.93 90.4325 2231.19 90.4325C2232.58 90.4325 2233.67 90.009 2234.47 89.162C2235.29 88.2877 2235.7 87.0171 2235.7 85.3504Z" fill="#1A2B6B"/>
<path d="M2257.22 73.7108C2259.49 73.7108 2261.33 74.4622 2262.75 75.965C2264.23 77.4951 2264.97 79.5716 2264.97 82.1946V94.7769H2259.68V82.8504C2259.68 81.5115 2259.31 80.4733 2258.57 79.7355C2257.86 78.9978 2256.88 78.629 2255.62 78.629C2254.23 78.629 2253.12 79.0661 2252.3 79.9405C2251.51 80.7875 2251.11 82.0443 2251.11 83.7111V94.7769H2245.83V74.2846H2251.11V76.5797C2252.37 74.6671 2254.41 73.7108 2257.22 73.7108Z" fill="#1A2B6B"/>
<path d="M2279.23 95.3507C2276.15 95.3507 2273.57 94.3124 2271.49 92.2359C2269.44 90.1593 2268.41 87.5909 2268.41 84.5307C2268.41 81.4706 2269.44 78.9022 2271.49 76.8256C2273.57 74.7491 2276.15 73.7108 2279.23 73.7108C2281.23 73.7108 2283.05 74.189 2284.69 75.1453C2286.32 76.1016 2287.57 77.3858 2288.42 78.9978L2283.87 81.6618C2283.46 80.8148 2282.83 80.1454 2281.98 79.6536C2281.16 79.1618 2280.23 78.9159 2279.19 78.9159C2277.61 78.9159 2276.3 79.4487 2275.26 80.5143C2274.22 81.5525 2273.7 82.8914 2273.7 84.5307C2273.7 86.1155 2274.22 87.4543 2275.26 88.5472C2276.3 89.5855 2277.61 90.1047 2279.19 90.1047C2280.26 90.1047 2281.2 89.8724 2282.02 89.4079C2282.87 88.9161 2283.5 88.2467 2283.91 87.3997L2288.5 90.0227C2287.6 91.6621 2286.31 92.9599 2284.64 93.9162C2283.01 94.8725 2281.2 95.3507 2279.23 95.3507Z" fill="#1A2B6B"/>
<path d="M2302.69 73.7108C2304.95 73.7108 2306.8 74.4622 2308.22 75.965C2309.7 77.4951 2310.43 79.5716 2310.43 82.1946V94.7769H2305.15V82.8504C2305.15 81.5115 2304.78 80.4733 2304.04 79.7355C2303.33 78.9978 2302.35 78.629 2301.09 78.629C2299.7 78.629 2298.59 79.0661 2297.77 79.9405C2296.98 80.7875 2296.58 82.0443 2296.58 83.7111V94.7769H2291.29V66.0877H2296.58V76.5797C2297.84 74.6671 2299.87 73.7108 2302.69 73.7108Z" fill="#1A2B6B"/>
<path d="M2326.87 73.7108C2329.63 73.7108 2331.98 74.7627 2333.92 76.8666C2335.89 78.9705 2336.87 81.5252 2336.87 84.5307C2336.87 87.5909 2335.89 90.1593 2333.92 92.2359C2332.01 94.3124 2329.66 95.3507 2326.87 95.3507C2324.01 95.3507 2321.79 94.3534 2320.23 92.3588V102.974H2314.95V74.2846H2320.23V76.7027C2321.79 74.7081 2324.01 73.7108 2326.87 73.7108ZM2321.83 88.7112C2322.9 89.7768 2324.25 90.3096 2325.89 90.3096C2327.53 90.3096 2328.88 89.7768 2329.95 88.7112C2331.04 87.6183 2331.59 86.2248 2331.59 84.5307C2331.59 82.8367 2331.04 81.4569 2329.95 80.3913C2328.88 79.2984 2327.53 78.7519 2325.89 78.7519C2324.25 78.7519 2322.9 79.2984 2321.83 80.3913C2320.77 81.4569 2320.23 82.8367 2320.23 84.5307C2320.23 86.2248 2320.77 87.6183 2321.83 88.7112Z" fill="#1A2B6B"/>
<path d="M2356.18 76.7027V74.2846H2361.46V94.7769H2356.18V92.3588C2354.59 94.3534 2352.37 95.3507 2349.5 95.3507C2346.76 95.3507 2344.41 94.3124 2342.45 92.2359C2340.51 90.132 2339.54 87.5636 2339.54 84.5307C2339.54 81.5252 2340.51 78.9705 2342.45 76.8666C2344.41 74.7627 2346.76 73.7108 2349.5 73.7108C2352.37 73.7108 2354.59 74.7081 2356.18 76.7027ZM2346.42 88.7112C2347.49 89.7768 2348.84 90.3096 2350.48 90.3096C2352.12 90.3096 2353.47 89.7768 2354.54 88.7112C2355.63 87.6183 2356.18 86.2248 2356.18 84.5307C2356.18 82.8367 2355.63 81.4569 2354.54 80.3913C2353.47 79.2984 2352.12 78.7519 2350.48 78.7519C2348.84 78.7519 2347.49 79.2984 2346.42 80.3913C2345.36 81.4569 2344.82 82.8367 2344.82 84.5307C2344.82 86.2248 2345.36 87.6183 2346.42 88.7112Z" fill="#1A2B6B"/>
<path d="M2381.79 76.7027V66.0877H2387.08V94.7769H2381.79V92.3588C2380.23 94.3534 2378.02 95.3507 2375.15 95.3507C2372.39 95.3507 2370.03 94.3124 2368.06 92.2359C2366.12 90.132 2365.15 87.5636 2365.15 84.5307C2365.15 81.5252 2366.12 78.9705 2368.06 76.8666C2370.03 74.7627 2372.39 73.7108 2375.15 73.7108C2378.02 73.7108 2380.23 74.7081 2381.79 76.7027ZM2372.04 88.7112C2373.16 89.7768 2374.52 90.3096 2376.14 90.3096C2377.78 90.3096 2379.13 89.7768 2380.19 88.7112C2381.26 87.6183 2381.79 86.2248 2381.79 84.5307C2381.79 82.8367 2381.26 81.4569 2380.19 80.3913C2379.13 79.2984 2377.78 78.7519 2376.14 78.7519C2374.5 78.7519 2373.13 79.2984 2372.04 80.3913C2370.97 81.4569 2370.44 82.8367 2370.44 84.5307C2370.44 86.2248 2370.97 87.6183 2372.04 88.7112Z" fill="#1A2B6B"/>
<path d="M970.823 281.769H1014.37V299.7H970.823V281.769Z" fill="url(#paint0_linear)"/>
<path d="M1565.1 281.769H1608.65V299.7H1565.1V281.769Z" fill="url(#paint1_linear)"/>
<path d="M970.823 522.554H1014.37V540.485H970.823V522.554Z" fill="url(#paint2_linear)"/>
<path d="M2177.31 522.554H2220.85V540.485H2177.31V522.554Z" fill="url(#paint3_linear)"/>
<defs>
<linearGradient id="paint0_linear" x1="965.487" y1="285.932" x2="1023.34" y2="290.959" gradientUnits="userSpaceOnUse">
<stop stop-color="#375BD2"/>
<stop offset="1" stop-color="#1A2B6B"/>
</linearGradient>
<linearGradient id="paint1_linear" x1="1559.76" y1="285.932" x2="1617.61" y2="290.959" gradientUnits="userSpaceOnUse">
<stop stop-color="#375BD2"/>
<stop offset="1" stop-color="#1A2B6B"/>
</linearGradient>
<linearGradient id="paint2_linear" x1="965.487" y1="526.716" x2="1023.34" y2="531.744" gradientUnits="userSpaceOnUse">
<stop stop-color="#375BD2"/>
<stop offset="1" stop-color="#1A2B6B"/>
</linearGradient>
<linearGradient id="paint3_linear" x1="2171.97" y1="526.716" x2="2229.82" y2="531.744" gradientUnits="userSpaceOnUse">
<stop stop-color="#375BD2"/>
<stop offset="1" stop-color="#1A2B6B"/>
</linearGradient>
</defs>
</svg>
