<?xml version="1.0" encoding="utf-8"?>
<!-- Generator: Adobe Illustrator 23.0.1, SVG Export Plug-In . SVG Version: 6.00 Build 0)  -->
<svg version="1.1" id="Layer_1" xmlns="http://www.w3.org/2000/svg" xmlns:xlink="http://www.w3.org/1999/xlink" x="0px" y="0px"
	 viewBox="0 0 73.2 73.2" style="enable-background:new 0 0 73.2 73.2;" xml:space="preserve">
<style type="text/css">
	.st0{fill:#F8E19A;}
</style>
<title>lbank-logo</title>
<g id="页面-1">
	<g id="lbank-logo">
		<g id="XMLID_245_">
			<path id="XMLID_280_" class="st0" d="M36.6,1.3C17,1.3,1.3,17,1.3,36.6S17,71.9,36.6,71.9s35.3-15.7,35.3-35.3
				C71.6,17,55.8,1.3,36.6,1.3z M39.8,42.4c1,1,1.6,1.9,1.6,3.5c0,2.6-2.2,4.8-4.8,4.8c-1.3,0-2.6-0.6-3.5-1.6
				c-1.6-1.3-3.5-2.2-6.1-2.2s-4.5,1-6.1,2.2l-0.3,0.3c-1,0.6-1.9,1.3-3.2,1.3s-2.2-0.3-3.2-1.3c-0.3-0.3-0.3-0.3-0.6-0.6
				c0,0,0,0,0-0.3l-0.3-0.3c0-0.3-0.3-0.6-0.3-1c0-0.3-0.3-1-0.3-1.3l0,0c0-0.6,0-1,0.3-1.3c0-0.3,0.3-0.6,0.3-1c0,0,0-0.3,0.3-0.3
				c0,0,0,0,0-0.3c0.6,0,0.6,0,0.6-0.3l0.3-0.3l0,0c1.3-1.6,2.2-3.5,2.2-5.8s-0.6-4.2-2.2-5.8c-0.6-1-1.3-2.2-1.3-3.9
				c0-2.6,2.2-4.8,4.8-4.8s4.5,2.2,4.5,4.8c0,1.3-0.6,2.6-1.6,3.5c-1.3,1.6-2.2,3.9-2.2,6.1s1,4.5,2.2,6.1l0.3,0.3l0,0
				c1.6,1.3,3.5,2.2,5.8,2.2s4.2-0.6,5.8-2.2c0-0.3,0.3-0.3,0.6-0.6l0,0c1.3-1.6,2.2-3.5,2.2-5.8s-0.6-4.2-2.2-5.8
				c-1-1-1.6-2.2-1.6-3.9c0-2.6,2.2-4.8,4.8-4.8s4.8,2.2,4.8,4.8c0,1.3-0.6,2.6-1.6,3.5c-1.3,1.6-2.2,3.5-2.2,6.1
				C37.5,38.8,38.2,40.7,39.8,42.4z M45.9,41.1c-2.6,0-4.8-2.2-4.8-4.8c0-2.6,2.2-4.8,4.8-4.8c2.6,0,4.8,2.2,4.8,4.8
				C50.7,39.1,48.4,41.1,45.9,41.1z M58.4,42.4C58.7,42.7,58.7,42.7,58.4,42.4C58.7,43,59,43,59,43s0,0,0,0.3l0.3,0.3
				c0,0.3,0.3,0.6,0.3,1c0,0.3,0.3,1,0.3,1.3l0,0c0,0.6,0,1-0.3,1.3c0,0.3-0.3,0.6-0.3,1c0,0,0,0.3-0.3,0.3c0,0,0,0,0,0.3
				c-0.3,0.3-0.3,0.3-0.6,0.6c-1,0.6-1.9,1.3-3.2,1.3c-1.3,0-2.2-0.3-3.2-1.3c-0.3-0.3-0.3-0.3-0.6-0.6c0,0,0,0,0-0.3L51,48.1
				c0-0.3-0.3-0.6-0.3-1c0-0.3-0.3-1-0.3-1.3l0,0c0-0.6,0-1,0.3-1.3c0-0.3,0.3-0.6,0.3-1c0,0,0-0.3,0.3-0.3c0,0,0,0,0-0.3l0.3-0.3
				l0.3-0.3c1.3-1.6,2.2-3.5,2.2-5.8s-0.6-4.2-2.2-5.8c-1-1-1.6-2.2-1.6-3.5c0-2.6,2.2-4.8,4.8-4.8c2.6,0,4.8,2.2,4.8,4.8
				c0,1.3-0.6,2.6-1.6,3.5c-1.3,1.6-2.2,3.5-2.2,6.1C56.2,38.8,57.1,40.7,58.4,42.4z"/>
		</g>
	</g>
</g>
</svg>
