<svg width="53" height="59" viewBox="0 0 53 59" fill="none" xmlns="http://www.w3.org/2000/svg">
<path d="M7.3446 45.7686C7.59052 45.7686 7.88562 45.6701 8.08235 45.5225C8.62336 45.0795 8.72173 44.3412 8.32826 43.7998C5.13137 39.7147 3.45915 34.7929 3.45915 29.5758C3.45915 16.7298 13.8859 6.29552 26.7227 6.29552C29.7229 6.29552 32.6738 6.88615 35.4281 7.96895C36.0675 8.21504 36.8052 7.91972 37.0511 7.27988C37.2971 6.64005 37.002 5.90178 36.3626 5.65569C33.3132 4.42523 30.0672 3.7854 26.7227 3.7854C12.5088 3.7854 1 15.3517 1 29.5265C1 35.2851 2.86895 40.7483 6.36094 45.2764C6.60686 45.6209 6.95114 45.7686 7.3446 45.7686Z" stroke="#375BD2" stroke-width="0.7049" stroke-miterlimit="10"/>
<path d="M47.0846 13.7768C46.6419 13.2354 45.9042 13.137 45.3632 13.5308C44.8222 13.9245 44.7238 14.712 45.1173 15.2534C48.3142 19.3385 49.9864 24.2603 49.9864 29.4775C49.9864 42.3234 39.5596 52.7577 26.7228 52.7577C23.7227 52.7577 20.7717 52.1671 18.0174 51.0843C17.3781 50.8382 16.6403 51.1335 16.3944 51.7734C16.1485 52.4132 16.4436 53.1515 17.083 53.3976C20.1323 54.628 23.3784 55.2678 26.7228 55.2678C40.9367 55.2678 52.4455 43.7016 52.4455 29.5267C52.4455 23.7682 50.5766 18.3541 47.0846 13.7768Z" stroke="#375BD2" stroke-width="0.7049" stroke-miterlimit="10"/>
<path d="M42.6088 29.1821C42.4612 28.6899 41.9694 28.3454 41.4284 28.3454H32.4279L50.6256 2.99796C50.9699 2.50578 50.9207 1.81671 50.478 1.37375C50.0354 0.930783 49.3468 0.881571 48.855 1.2261L11.2792 28.5422C10.8365 28.8376 10.6398 29.4282 10.8365 29.9204C11.0332 30.4125 11.4759 30.7571 12.0169 30.7571H21.0174L2.81968 56.1045C2.4754 56.5967 2.52459 57.2857 2.96723 57.7287C3.21315 57.9748 3.50825 58.0732 3.85253 58.0732C4.09845 58.0732 4.34436 57.9748 4.59028 57.8271L42.1661 30.511C42.6088 30.2157 42.7563 29.6743 42.6088 29.1821ZM9.36102 51.3303L24.4602 30.2649C24.7553 29.8711 24.7553 29.379 24.5586 28.9852C24.3619 28.5915 23.9192 28.2962 23.4766 28.2962H15.8532L44.1334 7.77212L29.0342 28.8376C28.7391 29.2313 28.7391 29.7235 28.9359 30.1172C29.1326 30.511 29.5753 30.8063 30.0179 30.8063H37.6413L9.36102 51.3303Z" stroke="#375BD2" stroke-width="0.7049" stroke-miterlimit="10"/>
</svg>
