<svg width="56" height="51" viewBox="0 0 56 51" fill="none" xmlns="http://www.w3.org/2000/svg">
<path d="M17.7143 14.4336H17.2653C8.28571 14.4336 1 21.7284 1 30.7192C1 39.7101 8.28571 47.0049 17.2653 47.0049C20.4898 47.0049 23.6327 46.0445 26.3061 44.2464" stroke="#375BD2"/>
<path d="M22.8571 29.3501C19.4285 26.2646 17.4694 21.8714 17.4694 17.2534C17.4694 16.3134 17.551 15.3735 17.7143 14.4335C19.2857 5.58575 27.7347 -0.319583 36.5714 1.25381C45.4081 2.82721 51.3061 11.2868 49.7347 20.1345C49.653 20.5841 49.551 21.0132 49.4489 21.4423" stroke="#375BD2"/>
<path d="M38.551 49.8247C47.5341 49.8247 54.8163 42.5334 54.8163 33.5391C54.8163 24.5448 47.5341 17.2534 38.551 17.2534C29.5679 17.2534 22.2857 24.5448 22.2857 33.5391C22.2857 42.5334 29.5679 49.8247 38.551 49.8247Z" stroke="#375BD2"/>
<path d="M39.7551 39.567V41.5287H38.3878V39.5875C36.7551 39.4853 35.1837 38.9336 34.3265 38.1367L35.0612 36.3794C36.0204 37.1354 37.1633 37.6054 38.3674 37.7076V34.2134C36.5306 33.7435 34.551 33.11 34.551 30.6988C34.551 28.9211 35.7755 27.3681 38.3674 27.1025V25.1409H39.7347V27.0821C40.9388 27.1434 42.0816 27.5112 43.102 28.1446L42.4286 29.9019C41.6122 29.3911 40.6939 29.0846 39.7347 28.962V32.4766C41.5714 32.9465 43.5918 33.5595 43.5918 35.9707C43.5918 37.7689 42.3469 39.3014 39.7551 39.567ZM38.3878 32.1088V29.0028C37.2041 29.1867 36.7143 29.8202 36.7143 30.5967C36.7143 31.4344 37.4286 31.8227 38.3878 32.1088ZM41.4694 36.1342C41.4694 35.276 40.7347 34.8877 39.7551 34.5812V37.6667C40.9592 37.4828 41.4694 36.8902 41.4694 36.1342Z" stroke="white" stroke-width="0.8"/>
<path d="M30.1837 9.42725L37.2857 15.6187" stroke="white" stroke-width="0.8"/>
<path d="M37.2857 9.42725L30.1837 15.6187" stroke="white" stroke-width="0.8"/>
<path d="M10.9388 27.6133L18.0408 33.8047" stroke="white" stroke-width="0.8"/>
<path d="M18.0408 27.6133L10.9388 33.8047" stroke="white" stroke-width="0.8"/>
</svg>
