<svg width="768" height="853" viewBox="0 0 768 853" fill="none" xmlns="http://www.w3.org/2000/svg">
<path d="M95.2003 668.772C105.367 668.772 113.686 660.454 113.686 650.287C113.686 646.589 112.762 641.968 109.989 639.195C61.9264 578.193 36.971 503.327 36.971 426.612C36.971 234.363 193.173 79.0849 384.498 79.0849C428.863 79.0849 473.229 87.4033 513.897 104.04C523.139 107.737 534.231 103.116 537.928 93.8733C541.625 84.6305 537.004 73.5392 527.761 69.8421C331.815 -8.72123 107.216 86.4791 27.7282 283.35C9.24275 328.639 0 377.626 0 426.612C0 511.645 27.7282 594.83 80.4119 661.378C84.109 665.999 88.7304 668.772 95.2003 668.772Z" fill="white"/>
<path d="M688.585 191.841C682.115 183.522 671.024 182.598 662.705 188.144C654.387 194.614 653.463 205.705 659.008 214.023C706.146 275.025 732.026 349.892 731.102 426.607C731.102 618.856 574.899 774.134 382.65 773.21C338.285 773.21 293.92 764.891 253.252 748.254C244.009 743.633 232.918 748.254 228.296 757.497C223.675 766.74 228.296 777.831 237.539 782.452C238.463 782.452 238.463 783.377 239.388 783.377C436.258 862.864 660.857 767.664 739.42 569.869C757.906 524.58 767.148 475.593 767.148 426.607C768.997 341.573 740.345 258.389 688.585 191.841Z" fill="white"/>
<path d="M621.113 421.065C618.34 413.671 611.87 408.125 603.552 408.125H469.532L741.269 30.0967C747.739 21.7782 745.89 10.6869 737.572 4.21701C731.102 -0.404367 721.859 -0.404367 715.389 4.21701L153.43 411.822C145.111 417.368 143.263 429.383 149.733 437.702C153.43 442.323 158.976 445.096 164.521 445.096H299.465L27.7286 823.124C22.1829 831.443 24.0315 842.534 32.3499 849.004C35.1228 850.853 39.7441 852.701 43.4412 852.701C47.1383 852.701 50.8354 851.777 54.5325 849.004L615.567 441.399C621.113 436.778 623.886 428.459 621.113 421.065ZM124.777 751.955L350.3 437.702C355.846 429.383 353.998 418.292 345.679 411.822C342.906 409.974 338.285 408.125 334.588 408.125H221.826L644.22 102.19L417.773 416.443C412.227 424.762 414.075 435.853 422.394 442.323C425.167 444.172 429.788 446.02 433.485 446.02H547.171L124.777 751.955Z" fill="white"/>
</svg>
