<svg width="1012" height="1576" viewBox="0 0 1012 1576" fill="none" xmlns="http://www.w3.org/2000/svg">
<g clip-path="url(#clip0)">
<rect width="1012" height="1576" fill="white"/>
<rect width="1012" height="1576" fill="#375BD2"/>
<g style="mix-blend-mode:overlay" opacity="0.07">
<path d="M-88.1614 1551.72C-76.5378 1551.72 -67.0277 1542.21 -67.0277 1530.59C-67.0277 1526.36 -68.0844 1521.08 -71.2544 1517.91C-126.202 1448.17 -154.733 1362.57 -154.733 1274.87C-154.733 1055.08 23.8473 877.556 242.581 877.556C293.302 877.556 344.023 887.066 390.517 906.086C401.084 910.313 413.764 905.03 417.991 894.463C422.218 883.896 416.934 871.216 406.367 866.989C182.35 777.171 -74.4245 886.009 -165.299 1111.08C-186.433 1162.86 -197 1218.87 -197 1274.87C-197 1372.08 -165.299 1467.19 -105.068 1543.27C-100.842 1548.55 -95.5582 1551.72 -88.1614 1551.72Z" fill="white"/>
<path d="M590.231 1006.47C582.835 996.955 570.154 995.898 560.644 1002.24C551.134 1009.64 550.077 1022.32 556.418 1031.83C610.309 1101.57 639.896 1187.16 638.839 1274.86C638.839 1494.65 460.259 1672.18 240.469 1671.12C189.748 1671.12 139.027 1661.61 92.5325 1642.59C81.9657 1637.31 69.2855 1642.59 64.002 1653.16C58.7186 1663.72 64.002 1676.4 74.5689 1681.69C75.6256 1681.69 75.6256 1682.74 76.6823 1682.74C301.756 1773.62 558.531 1664.78 648.349 1438.65C669.483 1386.87 680.05 1330.87 680.05 1274.86C682.163 1177.65 649.406 1082.55 590.231 1006.47Z" fill="white"/>
<path d="M513.092 1268.53C509.922 1260.07 502.526 1253.73 493.015 1253.73H339.796L650.462 821.55C657.858 812.04 655.745 799.359 646.235 791.963C638.838 786.679 628.271 786.679 620.874 791.963L-21.5905 1257.96C-31.1007 1264.3 -33.214 1278.04 -25.8172 1287.55C-21.5905 1292.83 -15.2504 1296 -8.91027 1296H145.366L-165.3 1728.19C-171.64 1737.7 -169.526 1750.38 -160.016 1757.77C-156.846 1759.89 -151.563 1762 -147.336 1762C-143.109 1762 -138.883 1760.94 -134.656 1757.77L506.752 1291.77C513.092 1286.49 516.263 1276.98 513.092 1268.53ZM-54.3477 1646.82L203.484 1287.55C209.824 1278.04 207.71 1265.36 198.2 1257.96C195.03 1255.85 189.747 1253.73 185.52 1253.73H56.6042L539.51 903.971L280.622 1263.24C274.281 1272.75 276.395 1285.43 285.905 1292.83C289.075 1294.94 294.359 1297.06 298.585 1297.06H428.558L-54.3477 1646.82Z" fill="white"/>
</g>
</g>
<defs>
<clipPath id="clip0">
<rect width="1012" height="1576" fill="white"/>
</clipPath>
</defs>
</svg>
