<svg width="62" height="61" viewBox="0 0 62 61" fill="none" xmlns="http://www.w3.org/2000/svg">
<path d="M21.5087 35.2688H4.33047C2.48995 35.2688 1 33.7788 1 31.9383V4.33047C1 2.48995 2.48995 1 4.33047 1H32.0259C33.8665 1 35.3564 2.48995 35.3564 4.33047V23.1739" stroke="#191919" stroke-width="0.7049" stroke-miterlimit="10"/>
<path d="M10.7285 13.2701C12.1322 13.2701 13.2701 12.1322 13.2701 10.7284C13.2701 9.32471 12.1322 8.18677 10.7285 8.18677C9.32477 8.18677 8.18683 9.32471 8.18683 10.7284C8.18683 12.1322 9.32477 13.2701 10.7285 13.2701Z" stroke="#191919" stroke-width="0.7049" stroke-miterlimit="10"/>
<path d="M25.6279 13.2701C27.0317 13.2701 28.1696 12.1322 28.1696 10.7284C28.1696 9.32471 27.0317 8.18677 25.6279 8.18677C24.2242 8.18677 23.0863 9.32471 23.0863 10.7284C23.0863 12.1322 24.2242 13.2701 25.6279 13.2701Z" stroke="#191919" stroke-width="0.7049" stroke-miterlimit="10"/>
<path d="M10.7285 28.1696C12.1322 28.1696 13.2701 27.0316 13.2701 25.6279C13.2701 24.2242 12.1322 23.0862 10.7285 23.0862C9.32477 23.0862 8.18683 24.2242 8.18683 25.6279C8.18683 27.0316 9.32477 28.1696 10.7285 28.1696Z" stroke="#191919" stroke-width="0.7049" stroke-miterlimit="10"/>
<path d="M25.6279 28.1696C27.0317 28.1696 28.1696 27.0316 28.1696 25.6279C28.1696 24.2242 27.0317 23.0862 25.6279 23.0862C24.2242 23.0862 23.0863 24.2242 23.0863 25.6279C23.0863 27.0316 24.2242 28.1696 25.6279 28.1696Z" stroke="#191919" stroke-width="0.7049" stroke-miterlimit="10"/>
<path d="M60.5102 44.2961L41.7544 59.7214C40.5274 60.7732 38.6869 60.5979 37.6352 59.3709L22.2098 40.6151C21.1581 39.388 21.3334 37.5475 22.5604 36.4958L41.3162 21.0705C42.5432 20.0187 44.3838 20.194 45.4355 21.421L60.8608 40.1768C61.9125 41.4039 61.7373 43.2444 60.5102 44.2961Z" stroke="#375BD2" stroke-width="0.7049" stroke-miterlimit="10"/>
<path d="M41.5791 42.9815C43.0313 42.9815 44.2085 41.8043 44.2085 40.3522C44.2085 38.9 43.0313 37.7228 41.5791 37.7228C40.127 37.7228 38.9498 38.9 38.9498 40.3522C38.9498 41.8043 40.127 42.9815 41.5791 42.9815Z" stroke="#375BD2" stroke-width="0.7049" stroke-miterlimit="10"/>
</svg>
