<svg width="62" height="70" viewBox="0 0 62 70" fill="none" xmlns="http://www.w3.org/2000/svg">
<path d="M60.0315 29.5986V39.8301C59.8825 56.0715 46.5963 69.1093 30.355 68.9603C14.3123 68.8361 1.34896 55.8728 1.19995 39.8301V10.4268H19.7012" stroke="#2E3192" stroke-miterlimit="10"/>
<path d="M31.1 21.6765H45.901C46.8447 21.6765 47.5897 22.4215 47.5897 23.3652V32.4544C47.5897 33.3981 46.8447 34.1431 45.901 34.1431H31.1C30.1563 34.1431 29.4113 33.3981 29.4113 32.4544V23.3652C29.4113 22.4463 30.1563 21.6765 31.1 21.6765Z" stroke="black" stroke-miterlimit="10"/>
<path d="M31.5222 21.3536V18.8454C31.5222 14.9961 34.6513 11.8671 38.5005 11.8671C42.3498 11.8671 45.4788 14.9961 45.4788 18.8454V21.3536" stroke="black" stroke-miterlimit="10"/>
<path d="M38.5005 45.517C50.9266 45.517 61 35.4436 61 23.0175C61 10.5913 50.9266 0.517944 38.5005 0.517944C26.0743 0.517944 16.001 10.5913 16.001 23.0175C16.001 35.4436 26.0743 45.517 38.5005 45.517Z" stroke="black" stroke-miterlimit="10"/>
</svg>
