<svg xmlns="http://www.w3.org/2000/svg" viewBox="0 0 229.33 289.94"><defs><style>.cls-1{fill:#1a2b6b;}.cls-2{fill:#375bd2;}</style></defs><g id="Layer_2" data-name="Layer 2"><g id="Layer_1-2" data-name="Layer 1"><path class="cls-1" d="M138.25,271H8.75c-4.9-.07-8.81-4.65-8.75-10.22,0-32.4,8.78-57.7,26.11-75.19s42.55-26.43,74.83-26.43c33.41,0,59.06,9.38,76.25,27.87l-2.2,2c-16.6-17.85-41.51-26.91-74.05-26.91-63.16,0-97.94,35-97.94,98.63,0,3.94,2.54,7.16,5.77,7.21H138.25Z"/><path class="cls-1" d="M105.08,154.38H95.9A59.43,59.43,0,0,1,36.53,95V67.88A59.44,59.44,0,0,1,95.9,8.51h9.18a59.44,59.44,0,0,1,59.37,59.37V95A59.43,59.43,0,0,1,105.08,154.38ZM95.9,11.51A56.44,56.44,0,0,0,39.53,67.88V95A56.44,56.44,0,0,0,95.9,151.38h9.18A56.44,56.44,0,0,0,161.45,95V67.88a56.44,56.44,0,0,0-56.37-56.37Z"/><path class="cls-1" d="M110,150.82h-2l0-3c23.32.29,39.54-4.4,49.58-14.32,8.25-8.15,12.26-19.65,12.26-35.16V71.59C169.8,33.77,138.54,3,100.12,3S30.45,33.77,30.45,71.59V97.27h-3V71.59C27.45,32.11,60.05,0,100.12,0S172.8,32.11,172.8,71.59V98.33c0,16.13-4.42,28.68-13.15,37.29C149.31,145.84,133,150.82,110,150.82Z"/><path class="cls-1" d="M30.1,99.17H19.36a10.84,10.84,0,0,1-11-10.63V68.66A10.83,10.83,0,0,1,19.36,58H30.1v3H19.36a7.83,7.83,0,0,0-8,7.63V88.54a7.84,7.84,0,0,0,8,7.63H30.1Z"/><path class="cls-1" d="M182,99.17H171.3v-3H182a7.84,7.84,0,0,0,8-7.63V68.66A7.83,7.83,0,0,0,182,61H171.3V58H182a10.83,10.83,0,0,1,11,10.63V88.54A10.84,10.84,0,0,1,182,99.17Z"/><path class="cls-1" d="M105.71,151.26H95.27a7.44,7.44,0,0,1-7.44-7.43v-.25a7.45,7.45,0,0,1,7.44-7.44h10.44a7.45,7.45,0,0,1,7.44,7.44v.25A7.44,7.44,0,0,1,105.71,151.26ZM95.27,139.14a4.44,4.44,0,0,0-4.44,4.44v.25a4.44,4.44,0,0,0,4.44,4.43h10.44a4.44,4.44,0,0,0,4.44-4.43v-.25a4.44,4.44,0,0,0-4.44-4.44Z"/><path class="cls-1" d="M102,128.3c-7.71,0-12.93-1.47-21.76-9.82a1.5,1.5,0,0,1,2.06-2.18c8.88,8.39,13.37,9,19.7,9,8.35,0,18.19-8.93,18.28-9a1.5,1.5,0,0,1,2,2.21C121.89,118.89,111.53,128.3,102,128.3Z"/><path class="cls-1" d="M62.4,63.37a1.51,1.51,0,0,1-1.07-2.56c4.33-4.36,6.92-5.13,10.75-5.13,4.65,0,9.51,4.59,10,5.11a1.5,1.5,0,1,1-2.08,2.15c-1.52-1.47-5.15-4.26-8-4.26s-4.69.29-8.62,4.24A1.48,1.48,0,0,1,62.4,63.37Z"/><path class="cls-1" d="M119.16,63.37a1.51,1.51,0,0,1-1.07-2.56c4.33-4.36,6.91-5.13,10.74-5.13,4.66,0,9.52,4.59,10.06,5.11a1.5,1.5,0,0,1-1,2.58,1.53,1.53,0,0,1-1-.43c-1.52-1.47-5.14-4.26-8-4.26s-4.68.29-8.61,4.24A1.48,1.48,0,0,1,119.16,63.37Z"/><path class="cls-1" d="M177.58,289.94a51.65,51.65,0,0,1-39.09-17.87,51.75,51.75,0,1,1,39.09,17.87Zm0-100.46a48.73,48.73,0,0,0-13.23,95.63,47.87,47.87,0,0,0,13.23,1.83,48.73,48.73,0,1,0,0-97.46Z"/><path class="cls-2" d="M193.63,287.42l-10.79-15.27a4,4,0,0,0-3.09-1.65,28,28,0,0,1-21.37-11.84,28.27,28.27,0,0,1-.47-31.75l1.22-1.83,15.69,22.22a3.35,3.35,0,0,0,4.64.8l7.8-5.51a3.33,3.33,0,0,0,.8-4.64l-15.71-22.22,2.13-.53a28.08,28.08,0,0,1,33.78,35.15,4,4,0,0,0,.54,3.46l10.56,14.94-.67.87a51.52,51.52,0,0,1-24,17.42Zm-34.36-56.94a25.25,25.25,0,0,0,1.56,26.45,25,25,0,0,0,19.09,10.57,7,7,0,0,1,5.37,2.92l9.47,13.41a48.56,48.56,0,0,0,20.87-15.16l-9.28-13.13a7,7,0,0,1-1-6,25.09,25.09,0,0,0-28-31.85l13.12,18.56A6.34,6.34,0,0,1,189,245l-7.8,5.51a6.37,6.37,0,0,1-8.82-1.51Z"/></g></g></svg>