<svg width="23" height="23" viewBox="0 0 23 23" fill="none" xmlns="http://www.w3.org/2000/svg">
<rect width="23" height="23" rx="11.5" fill="#FFC4D5"/>
<path d="M12.0488 13.44H10.7738C10.7738 13.1457 10.8404 12.8699 10.9734 12.6124C11.1064 12.3476 11.269 12.1232 11.4612 11.9393C11.6534 11.748 11.8455 11.5678 12.0377 11.3986C12.2299 11.2221 12.3925 11.0308 12.5255 10.8248C12.6585 10.6189 12.7251 10.4092 12.7251 10.1959C12.7251 9.89425 12.6179 9.65885 12.4035 9.48966C12.1892 9.32046 11.901 9.23586 11.5388 9.23586C11.1914 9.23586 10.8921 9.32414 10.6408 9.50069C10.3895 9.67724 10.2084 9.92736 10.0976 10.251L9 9.6331C9.19956 9.11816 9.52846 8.71724 9.9867 8.43034C10.4523 8.14345 10.9808 8 11.5721 8C12.2373 8 12.8064 8.18759 13.2794 8.56276C13.7598 8.93793 14 9.45655 14 10.1186C14 10.4202 13.9335 10.7071 13.8004 10.9793C13.6674 11.2515 13.5048 11.4832 13.3126 11.6745C13.1205 11.8657 12.9283 12.0533 12.7361 12.2372C12.544 12.4138 12.3814 12.6051 12.2483 12.811C12.1153 13.017 12.0488 13.2267 12.0488 13.44ZM11.4169 14.3448C11.646 14.3448 11.8418 14.4257 12.0044 14.5876C12.167 14.7494 12.2483 14.9444 12.2483 15.1724C12.2483 15.4005 12.167 15.5954 12.0044 15.7572C11.8418 15.9191 11.646 16 11.4169 16C11.1877 16 10.9919 15.9191 10.8293 15.7572C10.6667 15.5954 10.5854 15.4005 10.5854 15.1724C10.5854 14.9444 10.663 14.7494 10.8182 14.5876C10.9808 14.4257 11.1803 14.3448 11.4169 14.3448Z" fill="#EC0E50"/>
</svg>
