<?xml version="1.0" encoding="utf-8"?>
<!-- Generator: Adobe Illustrator 24.3.0, SVG Export Plug-In . SVG Version: 6.00 Build 0)  -->
<svg version="1.1" id="Layer_1" xmlns="http://www.w3.org/2000/svg" xmlns:xlink="http://www.w3.org/1999/xlink" x="0px" y="0px"
	 viewBox="0 0 560 617.3" style="enable-background:new 0 0 560 617.3;" xml:space="preserve">
<style type="text/css">
	.st0{fill:none;stroke:#000000;stroke-width:1.0657;stroke-linecap:round;stroke-miterlimit:10;stroke-dasharray:5.5735,5.5735;}
	.st1{fill:none;stroke:#000000;stroke-width:1.2357;stroke-linecap:round;stroke-miterlimit:10;stroke-dasharray:5.372;}
	.st2{fill:none;stroke:#1A1A1A;stroke-width:1.0708;stroke-linecap:round;stroke-miterlimit:10;}
	.st3{fill:none;stroke:#1F1F1F;stroke-width:0.9575;stroke-miterlimit:10;}
	.st4{fill:none;stroke:#455BCD;stroke-width:0.9575;stroke-miterlimit:10;}
	.st5{fill:none;stroke:#1F1F1F;stroke-width:1.0502;stroke-miterlimit:10;}
	.st6{fill:none;stroke:#455BCD;stroke-width:1.0502;stroke-miterlimit:10;}
	.st7{fill:none;stroke:#1F1F1F;stroke-width:0.9987;stroke-miterlimit:10;}
	.st8{fill:none;stroke:#455BCD;stroke-width:0.9987;stroke-miterlimit:10;}
	.st9{fill:none;stroke:#1F1F1F;stroke-width:1.0708;stroke-miterlimit:10;}
	.st10{fill:#FFFFFF;stroke:#1F1F1F;stroke-width:1.0708;stroke-miterlimit:10;}
	.st11{fill:none;stroke:#455BCD;stroke-width:1.0708;stroke-miterlimit:10;}
	.st12{fill:none;stroke:#1F1F1F;stroke-width:1.1119;stroke-miterlimit:10;}
	.st13{fill:#FFFFFF;stroke:#455BCD;stroke-width:1.1119;stroke-miterlimit:10;}
	.st14{fill:none;stroke:#455BCD;stroke-width:1.1119;stroke-miterlimit:10;}
	.st15{fill:none;stroke:#1F1F1F;stroke-width:0.906;stroke-miterlimit:10;}
	.st16{fill:none;stroke:#455BCD;stroke-width:0.906;stroke-miterlimit:10;}
	.st17{fill:none;stroke:#455BCD;stroke-width:0.7516;stroke-miterlimit:10;}
	.st18{fill:#01C668;}
	.st19{fill:#FFFFFF;}
	.st20{fill:#9EE8C3;}
	.st21{fill:none;stroke:#9EE8C3;stroke-width:9.8189;stroke-linecap:round;stroke-miterlimit:10;}
	.st22{fill:none;stroke:#94ADF2;stroke-width:9.8189;stroke-linecap:round;stroke-miterlimit:10;}
	.st23{fill:none;stroke:#FFEDB3;stroke-width:9.8189;stroke-linecap:round;stroke-miterlimit:10;}
</style>
<g>
	<path class="st0" d="M464.9,160.1L319.8,79.7"/>
	<path class="st0" d="M497.2,383.5V228.3"/>
	<path class="st0" d="M462.2,452.1l-144.3,83.1"/>
	<path class="st0" d="M241.5,533.1L97.7,452.2"/>
	<path class="st0" d="M62.7,384.7V227.8"/>
	<path class="st0" d="M98.1,160.3l142.5-82.1L98.1,160.3z"/>
	<path class="st1" d="M279.9,510.6V348.4"/>
	<path class="st1" d="M279.9,263.7V107"/>
	<path class="st1" d="M315.8,327.8l68.3,42.5l19.5,12.1l52.7,32.7"/>
	<path class="st1" d="M243.6,282.9l-75.7-45.2l-20-11.9L103.2,199"/>
	<path class="st1" d="M105.1,412.9l55.5-34l17.2-10.5l65.3-39.9"/>
	<path class="st1" d="M454.7,198.4l-50.6,30.9l-19.8,12l-69.1,42.2"/>
	<path class="st2" d="M497.9,227.4c23.4,0,42.3-18.9,42.3-42.3s-18.9-42.3-42.3-42.3c-23.4,0-42.3,18.9-42.3,42.3
		S474.5,227.4,497.9,227.4z"/>
	<path class="st2" d="M279.2,348.4c23.4,0,42.3-18.9,42.3-42.3s-18.9-42.3-42.3-42.3s-42.4,18.9-42.4,42.3
		C236.9,329.5,255.9,348.4,279.2,348.4z"/>
	<path class="st2" d="M497.7,469.9c23.4,0,42.3-18.9,42.3-42.3s-18.9-42.3-42.3-42.3c-23.4,0-42.3,18.9-42.3,42.3
		C455.3,450.9,474.2,469.9,497.7,469.9z"/>
	<path class="st2" d="M279.2,106.2c23.4,0,42.3-18.9,42.3-42.3s-18.9-42.3-42.3-42.3s-42.4,18.9-42.4,42.3
		C236.9,87.4,255.9,106.2,279.2,106.2z"/>
	<path class="st2" d="M62.2,227.4c23.4,0,42.3-18.9,42.3-42.3s-18.9-42.3-42.3-42.3s-42.4,19-42.4,42.4S38.8,227.4,62.2,227.4z"/>
	<path class="st2" d="M62.2,469.9c23.4,0,42.3-18.9,42.3-42.3s-18.9-42.3-42.3-42.3s-42.3,18.9-42.3,42.3
		C19.8,450.9,38.8,469.9,62.2,469.9z"/>
	<path class="st2" d="M279.2,595.7c23.4,0,42.3-18.9,42.3-42.3c0-23.4-18.9-42.3-42.3-42.3s-42.4,18.9-42.4,42.3
		C236.9,576.8,255.9,595.7,279.2,595.7z"/>
	<path class="st3" d="M287.9,86.2L277.4,71L267,86.2h-11.6L271.5,64l-15.3-21.4h11.5l10.1,14.2l9.9-14.2h10.9l-15.2,21.1l16.3,22.5
		h-11.7V86.2z"/>
	<path class="st4" d="M291.4,63.5l8.1-11.4v22.7L291.4,63.5z"/>
	<path class="st5" d="M54.4,190.2H40c-1.5,0-2.8-1.2-2.8-2.8v-23.1c0-1.5,1.2-2.8,2.8-2.8h23.2c1.5,0,2.8,1.2,2.8,2.8v15.8"/>
	<path class="st5" d="M45.3,171.7c1.1,0,2.2-0.9,2.2-2.2c0-1.1-0.9-2.2-2.2-2.2c-1.1,0-2.2,0.9-2.2,2.2
		C43.2,170.8,44.2,171.7,45.3,171.7z"/>
	<path class="st5" d="M57.8,171.7c1.1,0,2.2-0.9,2.2-2.2c0-1.1-0.9-2.2-2.2-2.2c-1.1,0-2.2,0.9-2.2,2.2
		C55.7,170.8,56.6,171.7,57.8,171.7z"/>
	<path class="st5" d="M45.3,184.2c1.1,0,2.2-0.9,2.2-2.2c0-1.1-0.9-2.2-2.2-2.2c-1.1,0-2.2,0.9-2.2,2.2
		C43.2,183.2,44.2,184.2,45.3,184.2z"/>
	<path class="st5" d="M57.8,184.2c1.1,0,2.2-0.9,2.2-2.2c0-1.1-0.9-2.2-2.2-2.2c-1.1,0-2.2,0.9-2.2,2.2
		C55.7,183.2,56.6,184.2,57.8,184.2z"/>
	<path class="st6" d="M55.3,191.2l15.6-12.9c1-0.8,2.6-0.7,3.5,0.3l12.9,15.6c0.8,1,0.7,2.6-0.3,3.5l-15.6,12.9
		c-1,0.8-2.6,0.7-3.5-0.3L55,194.7C54.2,193.6,54.3,192,55.3,191.2z"/>
	<path class="st6" d="M71.2,196.6c1.2,0,2.3-1,2.3-2.3s-1-2.3-2.3-2.3s-2.3,1-2.3,2.3S69.9,196.6,71.2,196.6z"/>
	<path class="st7" d="M500,192.6l-4.2,4.2l-22.3-22.3c-0.2-0.2-0.2-0.7,0-0.9c0.1-0.1,0.3-0.2,0.5-0.2H485c1.1,0,2.2,0.4,3,1.2
		l12,11.9C501.7,188.3,501.7,191,500,192.6z"/>
	<path class="st7" d="M495.7,196.8l-8.9,8.9c-0.8,0.8-1.9,1.2-3,1.2h-11.1c-0.3,0-0.7-0.3-0.7-0.6c0-0.2,0.1-0.3,0.2-0.5l15.5-15.5
		c0.4-0.4,0.4-1,0-1.4L495.7,196.8z"/>
	<path class="st8" d="M525.3,193.8c0.2,0.2,0.2,0.7,0,0.9c-0.1,0.1-0.3,0.2-0.5,0.2h-11.1c-1.1,0-2.3-0.4-3-1.2l-8.9-8.9l8-7.9
		c-0.4,0.4-0.4,1,0,1.4L525.3,193.8z"/>
	<path class="st8" d="M523.5,161.2c0.3,0,0.7,0.3,0.7,0.6c0,0.2,0,0.3-0.2,0.5l-14.4,14.4l-8,7.9l-4.2-4.2c-1.6-1.6-1.6-4.3,0-6
		l12-11.9c0.8-0.8,1.9-1.2,3-1.2L523.5,161.2z"/>
	<path class="st9" d="M467,431.1l18.9,9.3l15.1-17.2l23.1-13.4"/>
	<path class="st10" d="M485.9,442.3c1.1,0,2.1-0.9,2.1-2.1s-0.9-2.1-2.1-2.1s-2.1,0.9-2.1,2.1C483.9,441.4,484.8,442.3,485.9,442.3z
		"/>
	<path class="st10" d="M467,433.1c1.1,0,2.1-0.9,2.1-2.1s-0.9-2.1-2.1-2.1s-2.1,0.9-2.1,2.1S465.9,433.1,467,433.1z"/>
	<path class="st10" d="M501,425.1c1.1,0,2.1-0.9,2.1-2.1s-0.9-2.1-2.1-2.1s-2.1,0.9-2.1,2.1C498.9,424.2,499.9,425.1,501,425.1z"/>
	<path class="st10" d="M524.1,411.7c1.1,0,2.1-0.9,2.1-2.1s-0.9-2.1-2.1-2.1s-2.1,0.9-2.1,2.1C522.1,410.9,523,411.7,524.1,411.7z"
		/>
	<path class="st11" d="M498.5,434.6h5.5c0.3,0,0.6,0.3,0.6,0.6v13.4c0,0.3-0.3,0.6-0.6,0.6h-5.5c-0.3,0-0.6-0.3-0.6-0.6v-13.4
		C497.9,434.8,498.2,434.6,498.5,434.6z"/>
	<path class="st11" d="M501.3,449.2v3"/>
	<path class="st11" d="M501.3,431.6v3"/>
	<path class="st11" d="M518.2,422.8h5.5c0.3,0,0.6,0.3,0.6,0.6v13.4c0,0.3-0.3,0.6-0.6,0.6h-5.5c-0.3,0-0.6-0.3-0.6-0.6v-13.4
		C517.6,423.2,517.9,422.8,518.2,422.8z"/>
	<path class="st11" d="M521,437.5v3"/>
	<path class="st11" d="M521,419.9v3"/>
	<path class="st9" d="M508.6,430.2h5.5c0.3,0,0.6,0.3,0.6,0.6v7.2c0,0.3-0.3,0.6-0.6,0.6h-5.5c-0.3,0-0.6-0.3-0.6-0.6v-7.2
		C508,430.5,508.3,430.2,508.6,430.2z"/>
	<path class="st9" d="M511.4,438.7v3"/>
	<path class="st9" d="M511.4,427.2v3"/>
	<path class="st12" d="M275.8,530.7c-12.4,0-22.3,10.3-22.3,22.3c0,12.3,10.1,22.2,22.3,22.2c12,0,22.3-9.9,22.3-22.2
		C298.2,541.1,288.3,530.7,275.8,530.7z M277.4,536.8l6.2-4.5c4,1.4,7.5,4,10,7.4l-2.5,7.2l-7.2,2.2l-6.6-4.9v-7.3H277.4z
		 M268.2,532.2l6.2,4.5v7.3l-6.8,4.6l-6.6-2.3l-2.4-7.4C261.1,536,264.4,533.6,268.2,532.2z M257.2,565.1c-2.3-3.5-3.6-7.4-3.7-11.5
		l6.4-4.3l6.7,2.3l2.6,8l-4.2,5.8L257.2,565.1z M281.5,574.6c-3.9,1-8,1-11.9-0.1l-2.3-7.4l4.3-5.8h8.3l4.2,5.9L281.5,574.6z
		 M286.4,565.5l-4.2-6.1l2.5-7.6l7.2-2.2l6.3,4.5c-0.2,4.1-1.6,8-4,11.4L286.4,565.5z M275.5,547l-6.1,4l2.8,7.5h6.9l3-7.5
		L275.5,547z"/>
	<path class="st13" d="M296.5,575.6c5.5,0,9.9-4.4,9.9-9.9s-4.4-9.9-9.9-9.9c-5.5,0-9.9,4.4-9.9,9.9S291.1,575.6,296.5,575.6z"/>
	<path class="st14" d="M300.6,561.2c-2-1.3-8.3-1.8-8.3,1.6c0,3.8,8.9,2.1,8.9,5.7c0,3.8-7.9,2.9-9.3,1.1"/>
	<path class="st14" d="M296.5,558.2v14.9"/>
	<path class="st15" d="M32.6,415h59.2c1.3,0,2.4,1,2.4,2.4v20.8c0,1.3-1,2.4-2.4,2.4H32.6c-1.3,0-2.4-1-2.4-2.4v-20.8
		C30.3,416,31.3,415,32.6,415z"/>
	<path class="st15" d="M75.1,422.4l11,10.9"/>
	<path class="st15" d="M75.1,433.3l11-10.9"/>
	<path class="st15" d="M58.7,422.4l11,10.9"/>
	<path class="st15" d="M58.7,433.3l11-10.9"/>
	<path class="st16" d="M49.2,424.3c-1.5-1-6.8-1.3-6.8,1.3c0,3.1,7.2,1.6,7.2,4.6c0,3.1-6.4,2.3-7.5,0.9"/>
	<path class="st16" d="M45.8,421.8V434"/>
	<path class="st16" d="M53.9,428c0-4.4-3.6-8-8-8s-8,3.6-8,8s3.6,8,8,8S53.9,432.4,53.9,428z"/>
	<path class="st17" d="M257.7,323.7c0.7,0,1.3-0.6,1.3-1.3c0-0.3-0.1-0.5-0.2-0.8c-3.4-4.3-5.3-9.8-5.3-15.2c0-13.8,11.2-25,25-25
		c3.2,0,6.4,0.6,9.4,1.9c0.6,0.3,1.4,0,1.8-0.7c0.2-0.6,0-1.4-0.7-1.8c-14.2-5.8-30.3,1.1-36,15.2c-3.7,9.1-2.3,19.5,3.8,27.3
		C256.9,323.5,257.3,323.7,257.7,323.7z"/>
	<path class="st17" d="M300.4,289.4c-0.4-0.5-1.2-0.7-1.9-0.2c-0.5,0.4-0.7,1.2-0.2,1.9c3.4,4.3,5.3,9.8,5.3,15.2
		c0,13.8-11.2,25-25,25c-3.2,0-6.4-0.6-9.4-1.9c-0.6-0.3-1.4,0-1.8,0.7c-0.2,0.6,0,1.4,0.7,1.8c14.2,5.8,30.3-1.1,36-15.2
		C307.9,307.5,306.5,297.1,300.4,289.4z"/>
	<path class="st17" d="M295.6,305.9c-0.2-0.5-0.7-0.9-1.2-0.9h-9.7l19.6-27.2c0.4-0.6,0.3-1.4-0.3-1.9c-0.4-0.3-1.1-0.3-1.5,0
		l-40.5,29.2c-0.6,0.4-0.7,1.2-0.3,1.9c0.2,0.3,0.6,0.5,1,0.5h9.7l-19.6,27.2c-0.4,0.6-0.3,1.4,0.2,1.9c0.4,0.3,1.1,0.3,1.5,0
		l40.4-29.2C295.6,307,295.8,306.4,295.6,305.9z M259.9,329.6l16.3-22.5c0.4-0.6,0.3-1.4-0.3-1.9c-0.2-0.1-0.5-0.2-0.7-0.2h-8.2
		l30.4-21.9L281,305.6c-0.4,0.6-0.3,1.4,0.3,1.9c0.2,0.1,0.5,0.2,0.7,0.2h8.2L259.9,329.6z"/>
	<path class="st18" d="M174.2,250c5.1,0,9.3-4.1,9.3-9.3c0-5.1-4.1-9.3-9.3-9.3c-5.1,0-9.3,4.1-9.3,9.3
		C164.9,245.9,169.1,250,174.2,250z"/>
	<path class="st19" d="M173,244.3c-0.1,0.1-0.2,0.1-0.3,0.1s-0.2,0-0.3-0.1l-2.9-2.9c-0.3-0.3-0.3-0.7,0-1l0.3-0.3
		c0.3-0.3,0.7-0.3,1,0l1.8,1.8l4.7-4.7c0.3-0.3,0.7-0.3,1,0l0.3,0.3c0.3,0.3,0.3,0.7,0,1L173,244.3z"/>
	<g>
		<path class="st20" d="M62.2,315.6c5.1,0,9.3-4.1,9.3-9.3c0-5.1-4.1-9.3-9.3-9.3s-9.3,4.1-9.3,9.3C52.9,311.4,57,315.6,62.2,315.6z
			"/>
		<path class="st18" d="M61,309.9c-0.1,0.1-0.2,0.1-0.3,0.1s-0.2,0-0.3-0.1l-2.9-2.9c-0.3-0.3-0.3-0.7,0-1l0.3-0.3
			c0.3-0.3,0.7-0.3,1,0l1.8,1.8l4.7-4.7c0.3-0.3,0.7-0.3,1,0l0.3,0.3c0.3,0.3,0.3,0.7,0,1L61,309.9z"/>
	</g>
	<g>
		<path class="st20" d="M169.6,501.9c5.1,0,9.3-4.1,9.3-9.3c0-5.1-4.1-9.3-9.3-9.3s-9.3,4.1-9.3,9.3
			C160.4,497.8,164.5,501.9,169.6,501.9z"/>
		<path class="st18" d="M168.4,496.3c-0.1,0.1-0.2,0.1-0.3,0.1c-0.1,0-0.2,0-0.3-0.1l-2.9-2.9c-0.3-0.3-0.3-0.7,0-1l0.3-0.3
			c0.3-0.3,0.7-0.3,1,0l1.8,1.8l4.7-4.7c0.3-0.3,0.7-0.3,1,0l0.3,0.3c0.3,0.3,0.3,0.7,0,1L168.4,496.3z"/>
	</g>
	<g>
		<path class="st20" d="M169.6,128.5c5.1,0,9.3-4.1,9.3-9.3c0-5.1-4.1-9.3-9.3-9.3s-9.3,4.1-9.3,9.3
			C160.4,124.4,164.5,128.5,169.6,128.5z"/>
		<path class="st18" d="M168.4,122.8c-0.1,0.1-0.2,0.1-0.3,0.1c-0.1,0-0.2,0-0.3-0.1l-2.9-2.9c-0.3-0.3-0.3-0.7,0-1l0.3-0.3
			c0.3-0.3,0.7-0.3,1,0l1.8,1.8l4.7-4.7c0.3-0.3,0.7-0.3,1,0l0.3,0.3c0.3,0.3,0.3,0.7,0,1L168.4,122.8z"/>
	</g>
	<g>
		<path class="st20" d="M390,502.9c5.1,0,9.3-4.1,9.3-9.3s-4.1-9.3-9.3-9.3s-9.3,4.1-9.3,9.3S384.9,502.9,390,502.9z"/>
		<path class="st18" d="M388.8,497.2c-0.1,0.1-0.2,0.1-0.3,0.1s-0.2,0-0.3-0.1l-2.9-2.9c-0.3-0.3-0.3-0.7,0-1l0.3-0.3
			c0.3-0.3,0.7-0.3,1,0l1.8,1.8l4.7-4.7c0.3-0.3,0.7-0.3,1,0l0.3,0.3c0.3,0.3,0.3,0.7,0,1L388.8,497.2z"/>
	</g>
	<g>
		<path class="st20" d="M390,128.5c5.1,0,9.3-4.1,9.3-9.3s-4.1-9.3-9.3-9.3s-9.3,4.1-9.3,9.3S384.9,128.5,390,128.5z"/>
		<path class="st18" d="M388.8,122.9c-0.1,0.1-0.2,0.1-0.3,0.1s-0.2,0-0.3-0.1l-2.9-2.9c-0.3-0.3-0.3-0.7,0-1l0.3-0.3
			c0.3-0.3,0.7-0.3,1,0l1.8,1.8l4.7-4.7c0.3-0.3,0.7-0.3,1,0l0.3,0.3c0.3,0.3,0.3,0.7,0,1L388.8,122.9z"/>
	</g>
	<g>
		<path class="st20" d="M497.2,315.6c5.1,0,9.3-4.1,9.3-9.3c0-5.1-4.1-9.3-9.3-9.3s-9.3,4.1-9.3,9.3
			C487.9,311.4,492,315.6,497.2,315.6z"/>
		<path class="st18" d="M496,309.9c-0.1,0.1-0.2,0.1-0.3,0.1c-0.1,0-0.2,0-0.3-0.1l-2.9-2.9c-0.3-0.3-0.3-0.7,0-1l0.3-0.3
			c0.3-0.3,0.7-0.3,1,0l1.8,1.8l4.7-4.7c0.3-0.3,0.7-0.3,1,0l0.3,0.3c0.3,0.3,0.3,0.7,0,1L496,309.9z"/>
	</g>
	<path class="st18" d="M280.8,190.9c5.1,0,9.3-4.1,9.3-9.3c0-5.1-4.1-9.3-9.3-9.3s-9.3,4.1-9.3,9.3
		C271.5,186.8,275.7,190.9,280.8,190.9z"/>
	<path class="st19" d="M279.6,185.3c-0.1,0.1-0.2,0.1-0.3,0.1c-0.1,0-0.2,0-0.3-0.1l-2.9-2.9c-0.3-0.3-0.3-0.7,0-1l0.3-0.3
		c0.3-0.3,0.7-0.3,1,0l1.8,1.8l4.7-4.7c0.3-0.3,0.7-0.3,1,0l0.3,0.3c0.3,0.3,0.3,0.7,0,1L279.6,185.3z"/>
	<path class="st18" d="M386.2,250c5.1,0,9.3-4.1,9.3-9.3c0-5.1-4.1-9.3-9.3-9.3c-5.1,0-9.3,4.1-9.3,9.3
		C376.9,245.9,381.2,250,386.2,250z"/>
	<path class="st19" d="M385.1,244.3c-0.1,0.1-0.2,0.1-0.3,0.1c-0.1,0-0.2,0-0.3-0.1l-2.9-2.9c-0.3-0.3-0.3-0.7,0-1l0.3-0.3
		c0.3-0.3,0.7-0.3,1,0l1.8,1.8l4.7-4.7c0.3-0.3,0.7-0.3,1,0l0.3,0.3c0.3,0.3,0.3,0.7,0,1L385.1,244.3z"/>
	<path class="st18" d="M389.4,383.8c5.1,0,9.3-4.1,9.3-9.3c0-5.1-4.1-9.3-9.3-9.3s-9.3,4.1-9.3,9.3
		C380.1,379.7,384.2,383.8,389.4,383.8z"/>
	<path class="st19" d="M389.2,378.3c-0.1,0.1-0.2,0.1-0.3,0.1c-0.1,0-0.2,0-0.3-0.1l-2.4-2.9c-0.3-0.3-0.3-0.7,0-1l0.3-0.3
		c0.3-0.3,0.6-0.3,0.9,0l1.5,1.8l4-4.7c0.3-0.3,0.6-0.3,0.9,0l0.3,0.3c0.3,0.3,0.3,0.7,0,1L389.2,378.3z"/>
	<path class="st18" d="M280.8,439.4c5.1,0,9.3-4.1,9.3-9.3c0-5.1-4.1-9.3-9.3-9.3s-9.3,4.1-9.3,9.3
		C271.5,435.2,275.7,439.4,280.8,439.4z"/>
	<path class="st19" d="M279.6,433.8c-0.1,0.1-0.2,0.1-0.3,0.1c-0.1,0-0.2,0-0.3-0.1l-2.9-2.9c-0.3-0.3-0.3-0.7,0-1l0.3-0.3
		c0.3-0.3,0.7-0.3,1,0l1.8,1.8l4.7-4.7c0.3-0.3,0.7-0.3,1,0l0.3,0.3c0.3,0.3,0.3,0.7,0,1L279.6,433.8z"/>
	<path class="st18" d="M174.2,379.8c5.1,0,9.3-4.1,9.3-9.3s-4.1-9.3-9.3-9.3c-5.1,0-9.3,4.1-9.3,9.3S169.1,379.8,174.2,379.8z"/>
	<path class="st19" d="M173,374.2c-0.1,0.1-0.2,0.1-0.3,0.1s-0.2,0-0.3-0.1l-2.9-2.9c-0.3-0.3-0.3-0.7,0-1l0.3-0.3
		c0.3-0.3,0.7-0.3,1,0l1.8,1.8l4.7-4.7c0.3-0.3,0.7-0.3,1,0l0.3,0.3c0.3,0.3,0.3,0.7,0,1L173,374.2z"/>
	<g>
		<path class="st21" d="M351.5,291.9c7.5,39.9-18.8,78.4-58.8,86"/>
		<path class="st22" d="M296.1,377c-39.6,9.4-79.2-15.1-88.7-54.5"/>
		<path class="st23" d="M206.8,319.1c-7.5-39.9,18.8-78.4,58.8-86"/>
	</g>
</g>
</svg>
