<svg xmlns="http://www.w3.org/2000/svg" viewBox="0 0 289 266.77"><defs><style>.cls-1{fill:#0c162c;}.cls-2{fill:#1a2b6b;}.cls-3{fill:#375bd2;}</style></defs><g id="Layer_2" data-name="Layer 2"><g id="Layer_1-2" data-name="Layer 1"><path class="cls-1" d="M116.59,182.74l9.58-46.09a88.25,88.25,0,1,1,33,30.23ZM200.41,3A85.48,85.48,0,0,0,129,135.52l.34.52-8.72,42,38.73-14.44.6.32a85.55,85.55,0,0,0,126-72.28,85.53,85.53,0,0,0-82.4-88.57C202.5,3,201.45,3,200.41,3Z"/><path class="cls-2" d="M116.34,266.77H5.83A6.19,6.19,0,0,1,0,260.28C0,241.61,5.36,227,15.93,216.9s25.88-15.25,45.48-15.25c20.25,0,35.83,5.4,46.32,16,9.92,10.07,14.81,24.42,14.54,42.62v.12a6.7,6.7,0,0,1-2,4.69A5.68,5.68,0,0,1,116.34,266.77Zm0-3a2.77,2.77,0,0,0,1.93-.79,3.68,3.68,0,0,0,1-2.57v-.13c.26-17.38-4.34-31-13.68-40.48-9.9-10.05-24.76-15.15-44.18-15.15C23.75,204.65,3,224.42,3,260.3a3.21,3.21,0,0,0,2.89,3.47Z"/><path class="cls-2" d="M61.17,197h0c-19.36,0-35.64-17.37-36.28-38.72,0-.69,0-1.4,0-2.1a35.63,35.63,0,0,1,35.58-34.86h.75c.39,0,.83,0,1.27,0a36,36,0,0,1,35,36.93A37.63,37.63,0,0,1,61.19,197Zm-.71-72.68a32.58,32.58,0,0,0-32.62,31.92c0,.65,0,1.29,0,1.93.6,19.76,15.52,35.82,33.27,35.83a34.65,34.65,0,0,0,33.31-35.72,33,33,0,0,0-32.07-33.95h-1.9Z"/><path class="cls-3" d="M198.14,148.72a12.73,12.73,0,0,1-8.88-3.39,11.12,11.12,0,0,1,0-16.64,13.33,13.33,0,0,1,17.76,0,11.1,11.1,0,0,1,0,16.64A12.71,12.71,0,0,1,198.14,148.72Zm0-20.42a9.68,9.68,0,0,0-6.85,2.6,8.12,8.12,0,0,0,0,12.22,10.34,10.34,0,0,0,13.71,0,8.12,8.12,0,0,0,0-12.22A9.7,9.7,0,0,0,198.14,128.3Zm8.6-10.35H189.4l-1.25-28.07h3a38.9,38.9,0,0,0,10.45-1.39,16.72,16.72,0,0,0,6.13-3.19,10.31,10.31,0,0,0,3-4.38,17.58,17.58,0,0,0,.87-5.58,11.85,11.85,0,0,0-1.12-5.18,11.32,11.32,0,0,0-3-3.86,14.54,14.54,0,0,0-4.4-2.44,14,14,0,0,0-9.48-.08,16,16,0,0,0-3.85,2,14.13,14.13,0,0,0-2.8,2.63,12.62,12.62,0,0,0-1.7,2.73L184.4,73,169.17,59.74l.69-1.09a32.86,32.86,0,0,1,3.5-4.37,29.61,29.61,0,0,1,5.86-4.77,36,36,0,0,1,8.21-3.73,35,35,0,0,1,10.71-1.53,37.62,37.62,0,0,1,13.57,2.43,33.69,33.69,0,0,1,10.9,6.72,32.05,32.05,0,0,1,7.25,10.09,29.6,29.6,0,0,1,2.68,12.44,28.28,28.28,0,0,1-2.1,10.69,31.94,31.94,0,0,1-5.67,9.18,31.5,31.5,0,0,1-8.42,6.73,32.15,32.15,0,0,1-9.13,3.37Zm-14.47-3h11.58l.47-11.58,1.2-.2a29.48,29.48,0,0,0,9.38-3.26,28.56,28.56,0,0,0,12.76-14.42,25.17,25.17,0,0,0,1.88-9.56,26.64,26.64,0,0,0-2.41-11.19,29,29,0,0,0-6.57-9.15,30.52,30.52,0,0,0-9.93-6.11,34.58,34.58,0,0,0-12.49-2.23,32.11,32.11,0,0,0-9.79,1.38,32.93,32.93,0,0,0-7.52,3.42,26.2,26.2,0,0,0-5.26,4.26c-1,1.07-1.81,2-2.45,2.89l10.29,9a19.76,19.76,0,0,1,1.16-1.63,16.79,16.79,0,0,1,3.4-3.2A19.15,19.15,0,0,1,192.54,61,17.13,17.13,0,0,1,204,61a17.93,17.93,0,0,1,5.3,2.95,14.33,14.33,0,0,1,3.82,4.89,14.79,14.79,0,0,1,1.42,6.48,20.63,20.63,0,0,1-1,6.53,13.13,13.13,0,0,1-3.84,5.67,19.45,19.45,0,0,1-7.23,3.81,41.85,41.85,0,0,1-11.19,1.53Z"/></g></g></svg>