<svg id="Layer_1" data-name="Layer 1" xmlns="http://www.w3.org/2000/svg" viewBox="0 0 409.55 92.16"><defs><style>.cls-1{fill:#2a5ada;}.cls-2{fill:#1a2b6b;}</style></defs><path class="cls-1" d="M10.27,72.29a2,2,0,0,0,1.58-3.23A37.23,37.23,0,0,1,4,46.08,37.6,37.6,0,0,1,55.67,11.24a2,2,0,1,0,1.5-3.71A41.61,41.61,0,0,0,0,46.08,41.18,41.18,0,0,0,8.68,71.51,2,2,0,0,0,10.27,72.29Z"/><path class="cls-1" d="M74.47,20.65A2,2,0,0,0,71.3,23.1a37.23,37.23,0,0,1,7.84,23A37.6,37.6,0,0,1,27.48,80.92,2,2,0,1,0,26,84.63,41.61,41.61,0,0,0,83.15,46.08,41.18,41.18,0,0,0,74.47,20.65Z"/><path class="cls-1" d="M67.24,45.46a2,2,0,0,0-1.91-1.38H50.76L80.16,3.17A2,2,0,0,0,77.35.38L16.64,44.46a2,2,0,0,0,1.18,3.62H32.39L3,89a2,2,0,0,0,1.63,3.17,2.07,2.07,0,0,0,1.18-.38L66.51,47.7A2,2,0,0,0,67.24,45.46ZM13.5,81.23l24.43-34a2,2,0,0,0-1.63-3.17H24L69.65,10.93l-24.43,34a2,2,0,0,0,1.63,3.17H59.16Z"/><path class="cls-2" d="M110,64a10.16,10.16,0,0,1-4.31-3.36,8.86,8.86,0,0,1-1.63-5.17h7a4.59,4.59,0,0,0,1.42,3.17A5.08,5.08,0,0,0,116,59.81a5.42,5.42,0,0,0,3.59-1.09,3.57,3.57,0,0,0,1.3-2.87,3.34,3.34,0,0,0-.88-2.38A6.27,6.27,0,0,0,117.81,52a38,38,0,0,0-3.66-1.19A40,40,0,0,1,109,49a9,9,0,0,1-3.4-2.75,7.82,7.82,0,0,1-1.42-4.92,8.82,8.82,0,0,1,1.44-5A9.11,9.11,0,0,1,109.68,33a14.7,14.7,0,0,1,6-1.14,13,13,0,0,1,8.18,2.44,9.1,9.1,0,0,1,3.47,6.83h-7.18a3.7,3.7,0,0,0-1.42-2.77,5.35,5.35,0,0,0-3.52-1.1,4.54,4.54,0,0,0-3,1A3.54,3.54,0,0,0,111,41.08a3,3,0,0,0,.86,2.17,6.79,6.79,0,0,0,2.14,1.4c.86.35,2.06.76,3.62,1.23a38.28,38.28,0,0,1,5.17,1.86,9.52,9.52,0,0,1,3.45,2.8,7.77,7.77,0,0,1,1.44,4.89,9.22,9.22,0,0,1-1.35,4.85,9.49,9.49,0,0,1-4,3.56,13.47,13.47,0,0,1-6.2,1.33A15.58,15.58,0,0,1,110,64Z"/><path class="cls-2" d="M141.78,32.32V52.45a6.91,6.91,0,0,0,1.72,5.06,7.69,7.69,0,0,0,9.74,0A6.91,6.91,0,0,0,155,52.45V32.32h6.57V52.4a13,13,0,0,1-1.79,7,11.47,11.47,0,0,1-4.8,4.31,15.26,15.26,0,0,1-6.69,1.44,14.85,14.85,0,0,1-6.59-1.44A11.05,11.05,0,0,1,137,59.42a13.38,13.38,0,0,1-1.73-7V32.32Z"/><path class="cls-2" d="M192.35,47.28A9.06,9.06,0,0,1,188.49,51a14.11,14.11,0,0,1-6.64,1.4H176.4V64.84h-6.53V32.32h12a14.48,14.48,0,0,1,6.43,1.31,9,9,0,0,1,4,3.59,10.49,10.49,0,0,1,.09,10.06Zm-6.78-1.42a4.55,4.55,0,0,0,1.31-3.47q0-4.76-5.31-4.76H176.4v9.46h5.17A5.65,5.65,0,0,0,185.57,45.86Z"/><path class="cls-2" d="M206.77,37.59v8.15h10.95v5.17H206.77v8.62h12.35v5.31H200.25V32.28h18.87v5.31Z"/><path class="cls-2" d="M243.86,64.84l-7.17-12.67h-3.08V64.84h-6.52V32.32H239.3a14.34,14.34,0,0,1,6.43,1.33,9.31,9.31,0,0,1,4,3.59,9.72,9.72,0,0,1,1.33,5,9.42,9.42,0,0,1-7.41,9.37l7.78,13.18ZM233.61,47.28h5.45A5.47,5.47,0,0,0,243,46a4.78,4.78,0,0,0,1.31-3.57A4.56,4.56,0,0,0,243,39a5.59,5.59,0,0,0-4-1.23h-5.45Z"/><path class="cls-2" d="M264.11,64a10,10,0,0,1-4.31-3.36,8.79,8.79,0,0,1-1.63-5.17h7a4.55,4.55,0,0,0,1.43,3.17,5,5,0,0,0,3.51,1.16,5.4,5.4,0,0,0,3.59-1.09A3.57,3.57,0,0,0,275,55.85a3.34,3.34,0,0,0-.89-2.38A6.27,6.27,0,0,0,271.89,52a38,38,0,0,0-3.66-1.19A40,40,0,0,1,263.08,49a9,9,0,0,1-3.4-2.75,7.82,7.82,0,0,1-1.42-4.92,8.82,8.82,0,0,1,1.44-5A9.22,9.22,0,0,1,263.76,33a14.74,14.74,0,0,1,6-1.14,13,13,0,0,1,8.18,2.44,9.1,9.1,0,0,1,3.47,6.83h-7.18a3.7,3.7,0,0,0-1.42-2.77,5.34,5.34,0,0,0-3.51-1.1,4.55,4.55,0,0,0-3.06,1,3.54,3.54,0,0,0-1.14,2.84,3,3,0,0,0,.86,2.17,6.73,6.73,0,0,0,2.15,1.4c.85.35,2.05.76,3.61,1.23a38.28,38.28,0,0,1,5.17,1.86,9.52,9.52,0,0,1,3.45,2.8,7.77,7.77,0,0,1,1.44,4.89,9.22,9.22,0,0,1-1.35,4.85,9.49,9.49,0,0,1-4,3.56,13.44,13.44,0,0,1-6.2,1.33A15.53,15.53,0,0,1,264.11,64Z"/><path class="cls-2" d="M296.14,63a16,16,0,0,1-6.06-5.94,16.66,16.66,0,0,1-2.23-8.6,16.53,16.53,0,0,1,2.23-8.55A16,16,0,0,1,296.14,34a17.56,17.56,0,0,1,16.8,0,15.94,15.94,0,0,1,6,5.94,16.71,16.71,0,0,1,2.21,8.55,16.84,16.84,0,0,1-2.21,8.6,15.88,15.88,0,0,1-6,5.94,17.5,17.5,0,0,1-16.77,0Zm13.56-5a9.12,9.12,0,0,0,3.49-3.8,12.46,12.46,0,0,0,1.26-5.73,12.32,12.32,0,0,0-1.26-5.71A9,9,0,0,0,309.7,39a10.08,10.08,0,0,0-5.17-1.3,10.22,10.22,0,0,0-5.2,1.3,8.93,8.93,0,0,0-3.52,3.75,12.32,12.32,0,0,0-1.26,5.71,12.46,12.46,0,0,0,1.26,5.73,9.06,9.06,0,0,0,3.52,3.8,10.13,10.13,0,0,0,5.2,1.33A10,10,0,0,0,309.7,58Z"/><path class="cls-2" d="M355.87,64.84h-6.52L334.58,42.53V64.84h-6.53V32.28h6.53l14.77,22.36V32.28h6.52Z"/><path class="cls-2" d="M370.87,32.32V64.84h-6.52V32.32Z"/><path class="cls-2" d="M379.93,39.94A15.58,15.58,0,0,1,385.85,34a16.84,16.84,0,0,1,8.41-2.12,16.47,16.47,0,0,1,9.55,2.8,14.6,14.6,0,0,1,5.74,7.73H402a7.76,7.76,0,0,0-3.14-3.49,9.19,9.19,0,0,0-4.68-1.17,9.7,9.7,0,0,0-5.06,1.33,9.14,9.14,0,0,0-3.45,3.75,12.43,12.43,0,0,0-1.23,5.69,12.44,12.44,0,0,0,1.23,5.66A9,9,0,0,0,389.16,58a9.61,9.61,0,0,0,5.06,1.33,9.1,9.1,0,0,0,4.68-1.19A7.84,7.84,0,0,0,402,54.59h7.51a14.53,14.53,0,0,1-5.71,7.76,17.85,17.85,0,0,1-18,.65,15.51,15.51,0,0,1-5.92-5.89,17,17,0,0,1-2.16-8.57A17.08,17.08,0,0,1,379.93,39.94Z"/></svg>