<svg width="83" height="34" viewBox="0 0 83 34" fill="none" xmlns="http://www.w3.org/2000/svg">
<path d="M79.4242 33.4352H4.00694C2.3003 33.4352 1 32.0636 1 30.3692V4.06601C1 2.37164 2.38157 1 4.00694 1H79.4242C81.1308 1 82.4311 2.37164 82.4311 4.06601V30.3692C82.5124 32.0636 81.1308 33.4352 79.4242 33.4352Z" stroke="#191919" stroke-width="0.7049" stroke-miterlimit="10"/>
<path d="M58.0505 10.5208L72.11 24.3985" stroke="#191919" stroke-width="0.7049" stroke-miterlimit="10"/>
<path d="M58.0505 24.3985L72.11 10.5208" stroke="#191919" stroke-width="0.7049" stroke-miterlimit="10"/>
<path d="M37.3271 10.5208L51.3053 24.3985" stroke="#191919" stroke-width="0.7049" stroke-miterlimit="10"/>
<path d="M37.3271 24.3985L51.3053 10.5208" stroke="#191919" stroke-width="0.7049" stroke-miterlimit="10"/>
<path d="M25.1368 12.8607C23.1051 11.4891 16.5223 11.0856 16.5223 14.5551C16.5223 18.5086 25.6244 16.7336 25.6244 20.3644C25.6244 24.3179 17.4975 23.269 16.0347 21.5746" stroke="#375BD2" stroke-width="0.7049" stroke-miterlimit="10"/>
<path d="M20.8295 9.71399V25.2055" stroke="#375BD2" stroke-width="0.7049" stroke-miterlimit="10"/>
<path d="M20.8295 27.626C26.4848 27.626 31.0694 23.0744 31.0694 17.4598C31.0694 11.8451 26.4848 7.29346 20.8295 7.29346C15.1742 7.29346 10.5897 11.8451 10.5897 17.4598C10.5897 23.0744 15.1742 27.626 20.8295 27.626Z" stroke="#375BD2" stroke-width="0.7049" stroke-miterlimit="10"/>
</svg>
