<svg width="1440" height="726" viewBox="0 0 1440 726" fill="none" xmlns="http://www.w3.org/2000/svg">
<mask id="mask0" mask-type="alpha" maskUnits="userSpaceOnUse" x="0" y="0" width="1440" height="726">
<rect width="1440" height="726" fill="#0E205D"/>
</mask>
<g mask="url(#mask0)">
<g opacity="0.1">
<path d="M830.692 744.222C834.013 744.222 837.999 742.894 840.656 740.901C847.963 734.922 849.291 724.958 843.977 717.651C800.799 662.516 778.214 596.089 778.214 525.676C778.214 352.3 919.04 211.473 1092.42 211.473C1132.94 211.473 1172.79 219.444 1209.99 234.058C1218.63 237.38 1228.59 233.394 1231.91 224.758C1235.24 216.123 1231.25 206.159 1222.61 202.837C1181.43 186.23 1137.59 177.595 1092.42 177.595C900.441 177.595 745 333.7 745 525.011C745 602.732 770.242 676.466 817.406 737.58C820.727 742.229 825.377 744.222 830.692 744.222Z" stroke="#4767CE" stroke-width="0.7049" stroke-miterlimit="10"/>
<path d="M1367.43 312.441C1361.45 305.134 1351.48 303.806 1344.18 309.12C1336.87 314.434 1335.54 325.063 1340.86 332.37C1384.03 387.505 1406.62 453.932 1406.62 524.345C1406.62 697.721 1265.79 838.548 1092.42 838.548C1051.9 838.548 1012.04 830.577 974.839 815.962C966.204 812.641 956.24 816.627 952.918 825.263C949.597 833.898 953.583 843.862 962.218 847.184C1003.4 863.79 1047.25 872.426 1092.42 872.426C1284.39 872.426 1439.83 716.321 1439.83 525.01C1439.83 447.289 1414.59 374.219 1367.43 312.441Z" stroke="#4767CE" stroke-width="0.7049" stroke-miterlimit="10"/>
<path d="M1306.98 520.36C1304.98 513.718 1298.34 509.068 1291.03 509.068H1169.47L1415.25 166.966C1419.9 160.323 1419.24 151.023 1413.26 145.044C1407.28 139.066 1397.98 138.402 1391.34 143.052L883.834 511.725C877.855 515.71 875.198 523.682 877.855 530.324C880.512 536.967 886.491 541.617 893.798 541.617H1015.36L769.578 883.719C764.928 890.362 765.592 899.662 771.571 905.64C774.892 908.962 778.878 910.29 783.528 910.29C786.849 910.29 790.171 908.962 793.492 906.969L1301 538.296C1306.98 534.31 1308.97 527.003 1306.98 520.36ZM857.927 819.284L1061.86 534.974C1065.85 529.66 1065.85 523.017 1063.19 517.703C1060.53 512.389 1054.55 508.403 1048.57 508.403H945.611L1327.57 231.4L1123.64 515.71C1119.65 521.025 1119.65 527.667 1122.31 532.982C1124.97 538.296 1130.94 542.281 1136.92 542.281H1239.89L857.927 819.284Z" stroke="#4767CE" stroke-width="0.7049" stroke-miterlimit="10"/>
</g>
</g>
</svg>
