<svg width="508" height="560" viewBox="0 0 508 560" fill="none" xmlns="http://www.w3.org/2000/svg">
<path d="M433.493 135.594L292.606 57.5001" stroke="#702FFF" stroke-width="1.04" stroke-miterlimit="10" stroke-linecap="round"/>
<path d="M464.862 352.622V201.807" stroke="#702FFF" stroke-width="1.04" stroke-miterlimit="10" stroke-linecap="round"/>
<path d="M430.925 419.278L290.679 499.936" stroke="#702FFF" stroke-width="1.04" stroke-miterlimit="10" stroke-linecap="round"/>
<path d="M216.58 497.915L76.8778 419.327" stroke="#702FFF" stroke-width="1.04" stroke-miterlimit="10" stroke-linecap="round"/>
<path d="M42.9402 353.854V201.462" stroke="#702FFF" stroke-width="1.04" stroke-miterlimit="10" stroke-linecap="round"/>
<path d="M77.2729 135.792L215.691 56.0703L77.2729 135.792Z" stroke="#702FFF" stroke-width="1.04" stroke-miterlimit="10" stroke-linecap="round"/>
<path d="M253.876 476.025V318.554" stroke="#662D91" stroke-width="1.04" stroke-miterlimit="10" stroke-linecap="round" stroke-dasharray="10.1 10.1"/>
<path d="M253.876 236.269V84.0245" stroke="#662D91" stroke-width="1.04" stroke-miterlimit="10" stroke-linecap="round" stroke-dasharray="10.28 10.28"/>
<path d="M288.703 298.537L355.047 339.853L373.918 351.636L425.145 383.485" stroke="#662D91" stroke-width="1.04" stroke-miterlimit="10" stroke-linecap="round" stroke-dasharray="11.49 11.49"/>
<path d="M218.605 254.905L145.148 211.027L125.734 199.441L82.2129 173.458" stroke="#662D91" stroke-width="1.04" stroke-miterlimit="10" stroke-linecap="round" stroke-dasharray="11.3 11.3"/>
<path d="M84.1395 381.118L138.084 348.086L154.781 337.881L218.161 299.08" stroke="#662D91" stroke-width="1.04" stroke-miterlimit="10" stroke-linecap="round" stroke-dasharray="10.4 10.4"/>
<path d="M423.564 172.818L374.461 202.842L355.294 214.527L288.209 255.497" stroke="#662D91" stroke-width="1.04" stroke-miterlimit="10" stroke-linecap="round" stroke-dasharray="11.47 11.47"/>
<path d="M465.603 201.068C488.33 201.068 506.753 182.681 506.753 159.999C506.753 137.317 488.33 118.93 465.603 118.93C442.877 118.93 424.453 137.317 424.453 159.999C424.453 182.681 442.877 201.068 465.603 201.068Z" stroke="#1A1A1A" stroke-width="1.04" stroke-miterlimit="10" stroke-linecap="round"/>
<path d="M253.234 318.505C275.961 318.505 294.384 300.118 294.384 277.436C294.384 254.755 275.961 236.368 253.234 236.368C230.508 236.368 212.084 254.755 212.084 277.436C212.084 300.118 230.508 318.505 253.234 318.505Z" stroke="#1A1A1A" stroke-width="1.04" stroke-miterlimit="10" stroke-linecap="round"/>
<path d="M465.356 436.534C488.083 436.534 506.506 418.147 506.506 395.465C506.506 372.784 488.083 354.397 465.356 354.397C442.63 354.397 424.206 372.784 424.206 395.465C424.206 418.147 442.63 436.534 465.356 436.534Z" stroke="#1A1A1A" stroke-width="1.04" stroke-miterlimit="10" stroke-linecap="round"/>
<path d="M253.234 83.3836C275.961 83.3836 294.384 64.9966 294.384 42.315C294.384 19.6335 275.961 1.24646 253.234 1.24646C230.508 1.24646 212.084 19.6335 212.084 42.315C212.084 64.9966 230.508 83.3836 253.234 83.3836Z" stroke="#1A1A1A" stroke-width="1.04" stroke-miterlimit="10" stroke-linecap="round"/>
<path d="M42.3968 201.068C65.1232 201.068 83.5467 182.681 83.5467 159.999C83.5467 137.317 65.1232 118.93 42.3968 118.93C19.6704 118.93 1.24695 137.317 1.24695 159.999C1.24695 182.681 19.6704 201.068 42.3968 201.068Z" stroke="#1A1A1A" stroke-width="1.04" stroke-miterlimit="10" stroke-linecap="round"/>
<path d="M42.3968 436.534C65.1232 436.534 83.5467 418.147 83.5467 395.465C83.5467 372.784 65.1232 354.397 42.3968 354.397C19.6704 354.397 1.24695 372.784 1.24695 395.465C1.24695 418.147 19.6704 436.534 42.3968 436.534Z" stroke="#1A1A1A" stroke-width="1.04" stroke-miterlimit="10" stroke-linecap="round"/>
<path d="M253.234 558.753C275.961 558.753 294.384 540.366 294.384 517.685C294.384 495.003 275.961 476.616 253.234 476.616C230.508 476.616 212.084 495.003 212.084 517.685C212.084 540.366 230.508 558.753 253.234 558.753Z" stroke="#1A1A1A" stroke-width="1.04" stroke-miterlimit="10" stroke-linecap="round"/>
<path d="M261.583 63.8107L251.357 49.1187L241.28 63.8107H230.016L245.726 42.2658L230.807 21.4603H241.971L251.752 35.2156L261.336 21.4603H271.957L257.137 41.9207L272.945 63.8107H261.583Z" stroke="#1F1F1F" stroke-width="0.93" stroke-miterlimit="10"/>
<path d="M264.991 41.8221L272.895 30.7291V52.7671L264.991 41.8221Z" stroke="#455BCD" stroke-width="0.93" stroke-miterlimit="10"/>
<path d="M34.8387 164.83H20.8586C19.3767 164.83 18.1417 163.647 18.1417 162.119V139.686C18.1417 138.207 19.3273 136.975 20.8092 136.975H43.286C44.768 136.975 46.003 138.158 46.003 139.686V154.97" stroke="#1F1F1F" stroke-width="1.02" stroke-miterlimit="10"/>
<path d="M26.0456 146.934C27.1915 146.934 28.1204 146.007 28.1204 144.863C28.1204 143.72 27.1915 142.793 26.0456 142.793C24.8997 142.793 23.9708 143.72 23.9708 144.863C23.9708 146.007 24.8997 146.934 26.0456 146.934Z" stroke="#1F1F1F" stroke-width="1.02" stroke-miterlimit="10"/>
<path d="M38.1485 146.934C39.2944 146.934 40.2233 146.007 40.2233 144.863C40.2233 143.72 39.2944 142.793 38.1485 142.793C37.0026 142.793 36.0737 143.72 36.0737 144.863C36.0737 146.007 37.0026 146.934 38.1485 146.934Z" stroke="#1F1F1F" stroke-width="1.02" stroke-miterlimit="10"/>
<path d="M26.0456 159.013C27.1915 159.013 28.1204 158.086 28.1204 156.942C28.1204 155.799 27.1915 154.872 26.0456 154.872C24.8997 154.872 23.9708 155.799 23.9708 156.942C23.9708 158.086 24.8997 159.013 26.0456 159.013Z" stroke="#1F1F1F" stroke-width="1.02" stroke-miterlimit="10"/>
<path d="M38.1485 159.013C39.2944 159.013 40.2233 158.086 40.2233 156.942C40.2233 155.799 39.2944 154.872 38.1485 154.872C37.0026 154.872 36.0737 155.799 36.0737 156.942C36.0737 158.086 37.0026 159.013 38.1485 159.013Z" stroke="#1F1F1F" stroke-width="1.02" stroke-miterlimit="10"/>
<path d="M35.7279 165.817L50.943 153.294C51.9309 152.456 53.4623 152.604 54.3021 153.59L66.8496 168.775C67.6894 169.761 67.5412 171.289 66.5532 172.127L51.3382 184.65C50.3502 185.488 48.8188 185.34 47.979 184.354L35.4315 169.12C34.5917 168.134 34.7399 166.605 35.7279 165.817Z" stroke="#455BCD" stroke-width="1.02" stroke-miterlimit="10"/>
<path d="M51.1406 171.092C52.3411 171.092 53.3142 170.121 53.3142 168.923C53.3142 167.725 52.3411 166.753 51.1406 166.753C49.9402 166.753 48.967 167.725 48.967 168.923C48.967 170.121 49.9402 171.092 51.1406 171.092Z" stroke="#455BCD" stroke-width="1.02" stroke-miterlimit="10"/>
<path d="M467.629 167.197L463.479 171.338L441.743 149.646C441.496 149.399 441.496 148.955 441.743 148.709C441.891 148.561 442.04 148.512 442.237 148.512H453.056C454.142 148.512 455.18 148.955 455.97 149.744L467.629 161.379C469.259 163.006 469.259 165.619 467.629 167.197Z" stroke="#1F1F1F" stroke-width="0.97" stroke-miterlimit="10"/>
<path d="M463.479 171.388L454.834 180.015C454.044 180.804 453.006 181.199 451.919 181.248H441.101C440.755 181.248 440.409 180.952 440.409 180.607C440.409 180.41 440.459 180.262 440.607 180.114L455.723 165.028C456.118 164.633 456.118 164.042 455.723 163.647L463.479 171.388Z" stroke="#1F1F1F" stroke-width="0.97" stroke-miterlimit="10"/>
<path d="M492.18 168.331C492.427 168.578 492.427 169.021 492.18 169.268C492.032 169.416 491.884 169.465 491.686 169.465H480.868C479.781 169.465 478.694 169.021 477.953 168.232L469.308 159.605L477.064 151.864C476.669 152.259 476.669 152.85 477.064 153.245L492.18 168.331Z" stroke="#455BCD" stroke-width="0.97" stroke-miterlimit="10"/>
<path d="M490.55 136.778C490.896 136.778 491.242 137.074 491.242 137.419C491.242 137.616 491.192 137.764 491.044 137.912L477.064 151.864L469.308 159.605L465.159 155.463C463.528 153.836 463.528 151.223 465.159 149.646L476.817 138.01C477.607 137.221 478.645 136.827 479.731 136.827L490.55 136.778Z" stroke="#455BCD" stroke-width="0.97" stroke-miterlimit="10"/>
<path d="M435.568 398.818L453.945 407.791L468.617 391.077L491.044 378.111" stroke="#1F1F1F" stroke-width="1.04" stroke-miterlimit="10"/>
<path d="M453.945 409.763C455.036 409.763 455.921 408.88 455.921 407.791C455.921 406.702 455.036 405.819 453.945 405.819C452.854 405.819 451.969 406.702 451.969 407.791C451.969 408.88 452.854 409.763 453.945 409.763Z" fill="white" stroke="#1F1F1F" stroke-width="1.04" stroke-miterlimit="10"/>
<path d="M435.568 400.79C436.66 400.79 437.544 399.907 437.544 398.818C437.544 397.729 436.66 396.846 435.568 396.846C434.477 396.846 433.592 397.729 433.592 398.818C433.592 399.907 434.477 400.79 435.568 400.79Z" fill="white" stroke="#1F1F1F" stroke-width="1.04" stroke-miterlimit="10"/>
<path d="M468.616 393.049C469.708 393.049 470.592 392.167 470.592 391.077C470.592 389.988 469.708 389.105 468.616 389.105C467.525 389.105 466.64 389.988 466.64 391.077C466.64 392.167 467.525 393.049 468.616 393.049Z" fill="white" stroke="#1F1F1F" stroke-width="1.04" stroke-miterlimit="10"/>
<path d="M491.044 380.083C492.135 380.083 493.02 379.2 493.02 378.111C493.02 377.022 492.135 376.139 491.044 376.139C489.953 376.139 489.068 377.022 489.068 378.111C489.068 379.2 489.953 380.083 491.044 380.083Z" fill="white" stroke="#1F1F1F" stroke-width="1.04" stroke-miterlimit="10"/>
<path d="M466.196 402.22H471.531C471.877 402.22 472.173 402.515 472.173 402.861V415.827C472.173 416.172 471.877 416.468 471.531 416.468H466.196C465.85 416.468 465.554 416.172 465.554 415.827V402.811C465.554 402.466 465.85 402.22 466.196 402.22Z" stroke="#455BCD" stroke-width="1.04" stroke-miterlimit="10"/>
<path d="M468.863 416.419V419.327" stroke="#455BCD" stroke-width="1.04" stroke-miterlimit="10"/>
<path d="M468.863 399.311V402.22" stroke="#455BCD" stroke-width="1.04" stroke-miterlimit="10"/>
<path d="M485.313 390.831H490.649C490.994 390.831 491.291 391.127 491.291 391.472V404.438C491.291 404.783 490.994 405.079 490.649 405.079H485.313C484.968 405.079 484.671 404.783 484.671 404.438V391.472C484.721 391.127 484.968 390.831 485.313 390.831Z" stroke="#455BCD" stroke-width="1.04" stroke-miterlimit="10"/>
<path d="M488.031 405.03V407.939" stroke="#455BCD" stroke-width="1.04" stroke-miterlimit="10"/>
<path d="M488.031 387.922V390.831" stroke="#455BCD" stroke-width="1.04" stroke-miterlimit="10"/>
<path d="M476.026 397.93H481.362C481.707 397.93 482.004 398.226 482.004 398.571V405.621C482.004 405.967 481.707 406.262 481.362 406.262H476.026C475.681 406.262 475.384 405.967 475.384 405.621V398.571C475.384 398.226 475.681 397.93 476.026 397.93Z" stroke="#1F1F1F" stroke-width="1.04" stroke-miterlimit="10"/>
<path d="M478.694 406.262V409.122" stroke="#1F1F1F" stroke-width="1.04" stroke-miterlimit="10"/>
<path d="M478.694 395.022V397.93" stroke="#1F1F1F" stroke-width="1.04" stroke-miterlimit="10"/>
<path d="M249.925 495.647C237.97 495.647 228.189 505.606 228.189 517.389C228.238 529.32 237.97 538.983 249.925 538.983C261.583 538.983 271.66 529.419 271.66 517.389C271.611 505.754 261.978 495.647 249.925 495.647ZM251.357 501.514L257.384 497.077C261.237 498.506 264.646 501.021 267.116 504.275L264.695 511.276L257.73 513.396L251.357 508.564V501.514ZM242.465 497.077L248.492 501.514V508.613L241.872 513.1L235.45 510.931L233.178 503.732C235.648 500.725 238.81 498.457 242.465 497.077ZM231.795 529.074C229.572 525.721 228.337 521.826 228.238 517.833L234.462 513.593L240.983 515.811L243.453 523.65L239.304 529.222L231.795 529.074ZM255.408 538.195C251.604 539.23 247.603 539.181 243.799 538.047L241.576 530.849L245.726 525.277H253.778L257.878 530.996L255.408 538.195ZM260.249 529.468L256.099 523.601L258.471 516.206L265.485 514.086L271.562 518.523C271.315 522.516 269.981 526.362 267.659 529.665L260.249 529.468ZM249.628 511.473L243.75 515.417L246.417 522.714H253.086L255.951 515.417L249.628 511.473Z" stroke="#1F1F1F" stroke-width="1.08" stroke-miterlimit="10"/>
<path d="M269.981 539.23C275.301 539.23 279.614 534.926 279.614 529.616C279.614 524.306 275.301 520.002 269.981 520.002C264.661 520.002 260.348 524.306 260.348 529.616C260.348 534.926 264.661 539.23 269.981 539.23Z" fill="white" stroke="#455BCD" stroke-width="1.08" stroke-miterlimit="10"/>
<path d="M274.031 525.277C272.105 523.996 265.881 523.601 265.881 526.855C265.881 530.602 274.476 528.876 274.476 532.377C274.476 536.124 266.819 535.138 265.485 533.511" stroke="#455BCD" stroke-width="1.08" stroke-miterlimit="10"/>
<path d="M269.981 522.369V536.913" stroke="#455BCD" stroke-width="1.08" stroke-miterlimit="10"/>
<path d="M13.6957 383.189H71.1474C72.4318 383.189 73.4692 384.224 73.4692 385.506V405.671C73.4692 406.953 72.4318 407.988 71.1474 407.988H13.6957C12.4113 407.988 11.3739 406.953 11.3739 405.671V385.506C11.3739 384.224 12.4113 383.189 13.6957 383.189Z" stroke="#1F1F1F" stroke-width="0.88" stroke-miterlimit="10"/>
<path d="M54.895 390.437L65.5653 401.086" stroke="#1F1F1F" stroke-width="0.88" stroke-miterlimit="10"/>
<path d="M54.895 401.086L65.5653 390.437" stroke="#1F1F1F" stroke-width="0.88" stroke-miterlimit="10"/>
<path d="M39.0377 390.437L49.708 401.086" stroke="#1F1F1F" stroke-width="0.88" stroke-miterlimit="10"/>
<path d="M39.0377 401.086L49.708 390.437" stroke="#1F1F1F" stroke-width="0.88" stroke-miterlimit="10"/>
<path d="M29.7999 392.211C28.2685 391.176 23.2298 390.88 23.2298 393.493C23.2298 396.501 30.1951 395.12 30.1951 397.98C30.1951 400.987 24.0202 400.198 22.884 398.867" stroke="#455BCD" stroke-width="0.88" stroke-miterlimit="10"/>
<path d="M26.4902 389.845V401.677" stroke="#455BCD" stroke-width="0.88" stroke-miterlimit="10"/>
<path d="M34.2868 395.825C34.3036 391.522 30.8228 388.021 26.5122 388.004C22.2015 387.988 18.6934 391.462 18.6766 395.764C18.6597 400.066 22.1405 403.567 26.4512 403.584C30.7618 403.601 34.27 400.127 34.2868 395.825Z" stroke="#455BCD" stroke-width="0.88" stroke-miterlimit="10"/>
<path d="M232.338 294.495C233.03 294.495 233.623 293.903 233.623 293.213C233.623 292.917 233.524 292.671 233.376 292.424C230.066 288.184 228.287 282.958 228.287 277.584C228.287 264.174 239.155 253.328 252.592 253.328C255.704 253.328 258.816 253.919 261.682 255.102C262.324 255.398 263.114 255.053 263.361 254.412C263.608 253.771 263.312 252.982 262.67 252.736C248.887 247.165 233.227 253.821 227.695 267.527C224.088 276.352 225.521 286.459 231.35 294.002C231.548 294.298 231.943 294.495 232.338 294.495Z" stroke="#455BCD" stroke-width="0.73" stroke-miterlimit="10"/>
<path d="M273.834 261.216C273.389 260.674 272.599 260.526 272.006 260.969C271.463 261.413 271.314 262.202 271.759 262.794C275.069 267.034 276.847 272.26 276.847 277.584C276.847 290.994 265.979 301.841 252.543 301.841C249.431 301.841 246.318 301.249 243.453 300.066C242.811 299.77 242.021 300.115 241.774 300.756C241.527 301.397 241.823 302.186 242.465 302.432C256.248 308.003 271.907 301.348 277.44 287.642C281.046 278.817 279.663 268.71 273.834 261.216Z" stroke="#455BCD" stroke-width="0.73" stroke-miterlimit="10"/>
<path d="M269.141 277.19C268.943 276.647 268.449 276.302 267.906 276.302H258.471L277.489 249.926C277.885 249.334 277.786 248.545 277.193 248.102C276.748 247.756 276.106 247.756 275.662 248.102L236.389 276.549C235.796 276.993 235.697 277.781 236.093 278.373C236.34 278.718 236.735 278.915 237.13 278.915H246.565L227.546 305.292C227.102 305.884 227.25 306.672 227.793 307.116C228.238 307.461 228.88 307.461 229.325 307.116L268.548 278.669C269.141 278.324 269.338 277.732 269.141 277.19ZM234.413 300.263L250.221 278.324C250.616 277.732 250.517 276.943 249.924 276.5C249.727 276.352 249.43 276.253 249.183 276.253H241.23L270.722 254.905L254.914 276.845C254.519 277.436 254.617 278.225 255.21 278.669C255.408 278.817 255.704 278.915 255.951 278.915H263.905L234.413 300.263Z" stroke="#455BCD" stroke-width="0.73" stroke-miterlimit="10"/>
<path d="M151.175 222.908C156.14 222.908 160.165 218.891 160.165 213.935C160.165 208.98 156.14 204.962 151.175 204.962C146.209 204.962 142.184 208.98 142.184 213.935C142.184 218.891 146.209 222.908 151.175 222.908Z" fill="#01C668"/>
<path d="M150.039 217.485C149.94 217.584 149.841 217.633 149.693 217.633C149.545 217.633 149.446 217.584 149.347 217.485L146.581 214.724C146.284 214.428 146.284 213.985 146.581 213.689L146.926 213.344C147.223 213.048 147.667 213.048 147.964 213.344L149.693 215.069L154.336 210.435C154.633 210.139 155.077 210.139 155.374 210.435L155.719 210.78C156.016 211.076 156.016 211.52 155.719 211.815L150.039 217.485Z" fill="white"/>
<path d="M254.716 165.521C259.682 165.521 263.707 161.503 263.707 156.548C263.707 151.592 259.682 147.575 254.716 147.575C249.751 147.575 245.726 151.592 245.726 156.548C245.726 161.503 249.751 165.521 254.716 165.521Z" fill="#01C668"/>
<path d="M253.629 160.097C253.531 160.196 253.432 160.245 253.284 160.245C253.135 160.245 253.037 160.196 252.938 160.097L250.172 157.337C249.875 157.041 249.875 156.597 250.172 156.301L250.517 155.956C250.814 155.66 251.258 155.66 251.555 155.956L253.284 157.682L257.927 153.047C258.224 152.751 258.668 152.751 258.965 153.047L259.31 153.392C259.607 153.688 259.607 154.132 259.31 154.428L253.629 160.097Z" fill="white"/>
<path d="M357.122 222.908C362.087 222.908 366.112 218.891 366.112 213.935C366.112 208.98 362.087 204.962 357.122 204.962C352.156 204.962 348.131 208.98 348.131 213.935C348.131 218.891 352.156 222.908 357.122 222.908Z" fill="#01C668"/>
<path d="M356.035 217.485C355.936 217.584 355.837 217.633 355.689 217.633C355.541 217.633 355.442 217.584 355.343 217.485L352.577 214.724C352.28 214.428 352.28 213.985 352.577 213.689L352.923 213.344C353.219 213.048 353.664 213.048 353.96 213.344L355.689 215.069L360.333 210.435C360.629 210.139 361.074 210.139 361.37 210.435L361.716 210.78C362.012 211.076 362.012 211.52 361.716 211.815L356.035 217.485Z" fill="white"/>
<path d="M360.184 352.918C365.15 352.918 369.175 348.9 369.175 343.945C369.175 338.989 365.15 334.972 360.184 334.972C355.219 334.972 351.194 338.989 351.194 343.945C351.194 348.9 355.219 352.918 360.184 352.918Z" fill="#01C668"/>
<path d="M359.098 347.494C358.999 347.593 358.9 347.642 358.752 347.642C358.604 347.642 358.505 347.593 358.406 347.494L355.64 344.733C355.343 344.438 355.343 343.994 355.64 343.698L355.985 343.353C356.282 343.057 356.726 343.057 357.023 343.353L358.752 345.079L363.395 340.444C363.692 340.148 364.136 340.148 364.433 340.444L364.779 340.789C365.075 341.085 365.075 341.529 364.779 341.825L359.098 347.494Z" fill="white"/>
<path d="M254.716 406.903C259.682 406.903 263.707 402.886 263.707 397.93C263.707 392.975 259.682 388.957 254.716 388.957C249.751 388.957 245.726 392.975 245.726 397.93C245.726 402.886 249.751 406.903 254.716 406.903Z" fill="#01C668"/>
<path d="M253.629 401.48C253.531 401.579 253.432 401.628 253.284 401.628C253.135 401.628 253.037 401.579 252.938 401.48L250.172 398.719C249.875 398.423 249.875 397.98 250.172 397.684L250.517 397.339C250.814 397.043 251.258 397.043 251.555 397.339L253.284 399.064L257.927 394.43C258.224 394.134 258.668 394.134 258.965 394.43L259.31 394.775C259.607 395.071 259.607 395.515 259.31 395.81L253.629 401.48Z" fill="white"/>
<path d="M151.175 349.072C156.14 349.072 160.165 345.055 160.165 340.099C160.165 335.143 156.14 331.126 151.175 331.126C146.209 331.126 142.184 335.143 142.184 340.099C142.184 345.055 146.209 349.072 151.175 349.072Z" fill="#01C668"/>
<path d="M150.039 343.649C149.94 343.747 149.841 343.797 149.693 343.797C149.545 343.797 149.446 343.747 149.347 343.649L146.581 340.888C146.284 340.592 146.284 340.148 146.581 339.853L146.926 339.507C147.223 339.212 147.667 339.212 147.964 339.507L149.693 341.233L154.336 336.599C154.633 336.303 155.077 336.303 155.374 336.599L155.719 336.944C156.016 337.24 156.016 337.683 155.719 337.979L150.039 343.649Z" fill="white"/>
</svg>
