<svg width="65" height="56" viewBox="0 0 65 56" fill="none" xmlns="http://www.w3.org/2000/svg">
<path d="M33.9297 37.9569L28.931 42.9555L2.62685 16.6514C2.13518 16.1597 2.46296 15.2583 3.20046 15.2583H16.3116C17.6227 15.2583 18.9338 15.75 19.8352 16.7333L33.9297 30.8277C35.8963 32.7944 35.8963 35.9902 33.9297 37.9569Z" stroke="#191919" stroke-width="0.7049" stroke-miterlimit="10"/>
<path d="M28.931 42.9555L18.4421 53.4444C17.5408 54.3458 16.2296 54.9194 14.9185 54.9194H1.8074C1.0699 54.9194 0.742118 54.018 1.23378 53.5263L19.5074 35.2527C19.9991 34.7611 19.9991 34.0236 19.5074 33.6138L28.931 42.9555Z" stroke="#191919" stroke-width="0.7049" stroke-miterlimit="10"/>
<path d="M63.6755 39.268C64.1671 39.7597 63.8394 40.6611 63.1019 40.6611H49.9907C48.6796 40.6611 47.3685 40.1694 46.4671 39.1861L35.9782 28.6972L45.4019 19.2736C44.9102 19.7652 44.9102 20.5027 45.4019 20.9124L63.6755 39.268Z" stroke="#375BD2" stroke-width="0.7049" stroke-miterlimit="10"/>
<path d="M61.7088 1C62.4463 1 62.7741 1.90139 62.2824 2.39306L45.4019 19.2736L35.9783 28.6972L30.9797 23.6986C29.013 21.7319 29.013 18.6181 30.9797 16.6514L45.0741 2.55694C45.9755 1.65556 47.2866 1.08194 48.5977 1.08194L61.7088 1Z" stroke="#375BD2" stroke-width="0.7049" stroke-miterlimit="10"/>
</svg>
