<?xml version="1.0" encoding="utf-8"?>
<!-- Generator: Adobe Illustrator 23.0.1, SVG Export Plug-In . SVG Version: 6.00 Build 0)  -->
<svg version="1.1" id="Layer_1" xmlns="http://www.w3.org/2000/svg" xmlns:xlink="http://www.w3.org/1999/xlink" x="0px" y="0px"
	 viewBox="0 0 20.7 20.7" style="enable-background:new 0 0 20.7 20.7;" xml:space="preserve">
<style type="text/css">
	.st0{fill:url(#SVGID_1_);}
	.st1{fill:url(#SVGID_2_);}
	.st2{fill:url(#SVGID_3_);}
	.st3{fill:url(#SVGID_4_);}
	.st4{fill:url(#SVGID_5_);}
</style>
<g>
	
		<linearGradient id="SVGID_1_" gradientUnits="userSpaceOnUse" x1="0.9101" y1="88.1982" x2="19.9824" y2="88.1982" gradientTransform="matrix(1 0 0 1 0 -77.8482)">
		<stop  offset="0" style="stop-color:#702FFF"/>
		<stop  offset="1" style="stop-color:#9B2FFF"/>
	</linearGradient>
	<path class="st0" d="M2.9,0.8H18c1.1,0,2,0.9,2,2v15.1c0,1.1-0.9,2-2,2H2.9c-1.1,0-2-0.9-2-2V2.8C0.9,1.7,1.8,0.8,2.9,0.8z"/>
	
		<linearGradient id="SVGID_2_" gradientUnits="userSpaceOnUse" x1="-4.4947" y1="14.0311" x2="-4.6163" y2="9.6036" gradientTransform="matrix(1 7.000000e-02 -7.000000e-02 1 12.5047 0.4951)">
		<stop  offset="0" style="stop-color:#DDDDDD"/>
		<stop  offset="1" style="stop-color:#FFFFFF"/>
	</linearGradient>
	<path class="st1" d="M10.7,12.8l-1.3,1.1l-6-6.7C3.3,7.1,3.4,7,3.5,6.9h0.1l3.2,0.2c0.3,0,0.6,0.2,0.8,0.4l3.2,3.6
		C11.3,11.6,11.2,12.4,10.7,12.8z"/>
	
		<linearGradient id="SVGID_3_" gradientUnits="userSpaceOnUse" x1="-3.4956" y1="12.4317" x2="-7.0473" y2="16.6889" gradientTransform="matrix(1 7.000000e-02 -7.000000e-02 1 12.5047 0.4951)">
		<stop  offset="0" style="stop-color:#C6C6C6"/>
		<stop  offset="1" style="stop-color:#FFFFFF"/>
	</linearGradient>
	<path class="st2" d="M9.4,13.9l-2.7,2.4c-0.2,0.2-0.6,0.3-0.9,0.3l-3.2-0.2c-0.1-0.1-0.1-0.2-0.1-0.3c0,0,0-0.1,0.1-0.1l4.7-4.2
		c0.1-0.1,0.1-0.2,0-0.3l0,0L9.4,13.9z"/>
	
		<linearGradient id="SVGID_4_" gradientUnits="userSpaceOnUse" x1="0.5949" y1="10.4231" x2="7.382" y2="10.4231" gradientTransform="matrix(1 7.000000e-02 -7.000000e-02 1 12.5047 0.4951)">
		<stop  offset="0" style="stop-color:#C6C6C6"/>
		<stop  offset="1" style="stop-color:#FFFFFF"/>
	</linearGradient>
	<path class="st3" d="M18.1,13.6c0.1,0.1,0.1,0.2,0,0.3H18l-3.2-0.2c-0.3,0-0.6-0.2-0.8-0.4l-2.4-2.7L14,8.5c-0.1,0.1-0.1,0.3,0,0.4
		l0,0L18.1,13.6z"/>
	
		<linearGradient id="SVGID_5_" gradientUnits="userSpaceOnUse" x1="1.9691" y1="4.6782" x2="2.9422" y2="8.1812" gradientTransform="matrix(1 7.000000e-02 -7.000000e-02 1 12.5047 0.4951)">
		<stop  offset="0" style="stop-color:#DDDDDD"/>
		<stop  offset="1" style="stop-color:#FFFFFF"/>
	</linearGradient>
	<path class="st4" d="M18.3,4.3c0.1,0,0.2,0.1,0.2,0.2s0,0.1-0.1,0.1L14,8.4l-2.4,2.1l-1-1.3c-0.4-0.5-0.4-1.2,0.1-1.7l0,0l3.6-3.2
		C14.5,4.1,14.9,4,15.2,4L18.3,4.3z"/>
</g>
</svg>
