<svg width="970" height="260" viewBox="0 0 970 260" fill="none" xmlns="http://www.w3.org/2000/svg">
<rect x="0.275" y="0.275" width="967.45" height="259.45" rx="4.725" fill="white" stroke="#9FA8DA" stroke-width="0.55"/>
<line y1="63.5" x2="970" y2="63.5" stroke="#9FA8DA"/>
<line y1="132.7" x2="970" y2="132.7" stroke="#9FA8DA" stroke-width="0.6"/>
<line y1="197.7" x2="970" y2="197.7" stroke="#9FA8DA" stroke-width="0.6"/>
<line x1="276.3" y1="1" x2="276.3" y2="260" stroke="#9FA8DA" stroke-width="0.6"/>
<line x1="500.3" y1="1" x2="500.3" y2="260" stroke="#9FA8DA" stroke-width="0.6"/>
<line x1="741.3" y1="1" x2="741.3" y2="260" stroke="#9FA8DA" stroke-width="0.6"/>
<path d="M46 92.8H47.68V104H46.208V95.248L42.544 101.344H42.352L38.688 95.264V104H37.2V92.8H38.88L42.448 98.72L46 92.8ZM55.451 100.24V96H56.843V104H55.451V102.848C54.8963 103.755 54.0323 104.208 52.859 104.208C51.9203 104.208 51.1683 103.915 50.603 103.328C50.0377 102.731 49.755 101.925 49.755 100.912V96H51.147V100.832C51.147 101.472 51.323 101.973 51.675 102.336C52.027 102.699 52.5123 102.88 53.131 102.88C53.8457 102.88 54.411 102.661 54.827 102.224C55.243 101.776 55.451 101.115 55.451 100.24ZM60.3543 104H58.9622V92.32H60.3543V104ZM66.8299 96V97.344H64.7019V101.68C64.7019 102.075 64.7765 102.357 64.9259 102.528C65.0859 102.688 65.3259 102.773 65.6459 102.784C65.9659 102.784 66.3605 102.773 66.8299 102.752V104C65.6032 104.16 64.7072 104.059 64.1419 103.696C63.5872 103.333 63.3099 102.661 63.3099 101.68V97.344H61.7259V96H63.3099V94.176L64.7019 93.76V96H66.8299ZM69.1819 94.544C68.9152 94.544 68.6912 94.4533 68.5099 94.272C68.3285 94.0907 68.2379 93.872 68.2379 93.616C68.2379 93.36 68.3285 93.1413 68.5099 92.96C68.6912 92.768 68.9152 92.672 69.1819 92.672C69.4379 92.672 69.6565 92.768 69.8379 92.96C70.0192 93.1413 70.1099 93.36 70.1099 93.616C70.1099 93.872 70.0192 94.0907 69.8379 94.272C69.6565 94.4533 69.4379 94.544 69.1819 94.544ZM69.8699 104H68.4779V96H69.8699V104ZM77.9775 99.76H72.1375V98.416H77.9775V99.76ZM85.6359 104.208C83.9292 104.208 82.5265 103.648 81.4279 102.528C80.3292 101.419 79.7799 100.043 79.7799 98.4C79.7799 96.7573 80.3292 95.3813 81.4279 94.272C82.5265 93.152 83.9292 92.592 85.6359 92.592C86.6492 92.592 87.5879 92.8373 88.4519 93.328C89.3159 93.8187 89.9879 94.48 90.4679 95.312L89.1719 96.064C88.8519 95.4453 88.3719 94.9547 87.7319 94.592C87.1025 94.2187 86.4039 94.032 85.6359 94.032C84.3345 94.032 83.2785 94.448 82.4679 95.28C81.6572 96.1013 81.2519 97.1413 81.2519 98.4C81.2519 99.648 81.6572 100.683 82.4679 101.504C83.2785 102.336 84.3345 102.752 85.6359 102.752C86.4039 102.752 87.1025 102.571 87.7319 102.208C88.3719 101.835 88.8519 101.344 89.1719 100.736L90.4679 101.472C89.9985 102.304 89.3319 102.971 88.4679 103.472C87.6145 103.963 86.6705 104.208 85.6359 104.208ZM96.04 95.792C96.9787 95.792 97.7307 96.0907 98.296 96.688C98.8613 97.2747 99.144 98.0747 99.144 99.088V104H97.752V99.168C97.752 98.528 97.576 98.0267 97.224 97.664C96.872 97.3013 96.3867 97.12 95.768 97.12C95.0533 97.12 94.488 97.344 94.072 97.792C93.656 98.2293 93.448 98.8853 93.448 99.76V104H92.056V92.8H93.448V97.152C94.0027 96.2453 94.8667 95.792 96.04 95.792ZM107.711 97.376V96H109.103V104H107.711V102.624C107.029 103.68 106.021 104.208 104.687 104.208C103.557 104.208 102.602 103.803 101.823 102.992C101.034 102.171 100.639 101.173 100.639 100C100.639 98.8373 101.034 97.8453 101.823 97.024C102.613 96.2027 103.567 95.792 104.687 95.792C106.021 95.792 107.029 96.32 107.711 97.376ZM104.863 102.864C105.674 102.864 106.351 102.592 106.895 102.048C107.439 101.483 107.711 100.8 107.711 100C107.711 99.1893 107.439 98.512 106.895 97.968C106.351 97.4133 105.674 97.136 104.863 97.136C104.063 97.136 103.391 97.4133 102.847 97.968C102.303 98.512 102.031 99.1893 102.031 100C102.031 100.8 102.303 101.483 102.847 102.048C103.391 102.592 104.063 102.864 104.863 102.864ZM111.916 94.544C111.65 94.544 111.426 94.4533 111.244 94.272C111.063 94.0907 110.972 93.872 110.972 93.616C110.972 93.36 111.063 93.1413 111.244 92.96C111.426 92.768 111.65 92.672 111.916 92.672C112.172 92.672 112.391 92.768 112.572 92.96C112.754 93.1413 112.844 93.36 112.844 93.616C112.844 93.872 112.754 94.0907 112.572 94.272C112.391 94.4533 112.172 94.544 111.916 94.544ZM112.604 104H111.212V96H112.604V104ZM118.712 95.792C119.651 95.792 120.403 96.0907 120.968 96.688C121.533 97.2747 121.816 98.0747 121.816 99.088V104H120.424V99.168C120.424 98.528 120.248 98.0267 119.896 97.664C119.544 97.3013 119.059 97.12 118.44 97.12C117.725 97.12 117.16 97.344 116.744 97.792C116.328 98.2293 116.12 98.8853 116.12 99.76V104H114.728V96H116.12V97.152C116.675 96.2453 117.539 95.792 118.712 95.792Z" fill="#1A2B6B"/>
<path d="M42.464 170.208C40.7573 170.208 39.3547 169.648 38.256 168.528C37.1573 167.419 36.608 166.043 36.608 164.4C36.608 162.757 37.1573 161.381 38.256 160.272C39.3547 159.152 40.7573 158.592 42.464 158.592C43.4773 158.592 44.416 158.837 45.28 159.328C46.144 159.819 46.816 160.48 47.296 161.312L46 162.064C45.68 161.445 45.2 160.955 44.56 160.592C43.9307 160.219 43.232 160.032 42.464 160.032C41.1627 160.032 40.1067 160.448 39.296 161.28C38.4853 162.101 38.08 163.141 38.08 164.4C38.08 165.648 38.4853 166.683 39.296 167.504C40.1067 168.336 41.1627 168.752 42.464 168.752C43.232 168.752 43.9307 168.571 44.56 168.208C45.2 167.835 45.68 167.344 46 166.736L47.296 167.472C46.8267 168.304 46.16 168.971 45.296 169.472C44.4427 169.963 43.4987 170.208 42.464 170.208ZM50.2761 162V163.344C50.7348 162.352 51.5668 161.856 52.7721 161.856V163.312C52.0895 163.28 51.5028 163.461 51.0121 163.856C50.5215 164.251 50.2761 164.885 50.2761 165.76V170H48.8841V162H50.2761ZM60.4486 168.992C59.638 169.803 58.6406 170.208 57.4566 170.208C56.2726 170.208 55.2753 169.803 54.4646 168.992C53.654 168.181 53.2486 167.184 53.2486 166C53.2486 164.816 53.654 163.819 54.4646 163.008C55.2753 162.197 56.2726 161.792 57.4566 161.792C58.6406 161.792 59.638 162.197 60.4486 163.008C61.27 163.829 61.6806 164.827 61.6806 166C61.6806 167.173 61.27 168.171 60.4486 168.992ZM57.4566 168.848C58.2566 168.848 58.9286 168.576 59.4726 168.032C60.0166 167.488 60.2886 166.811 60.2886 166C60.2886 165.189 60.0166 164.512 59.4726 163.968C58.9286 163.424 58.2566 163.152 57.4566 163.152C56.6673 163.152 56.0006 163.424 55.4566 163.968C54.9126 164.512 54.6406 165.189 54.6406 166C54.6406 166.811 54.9126 167.488 55.4566 168.032C56.0006 168.576 56.6673 168.848 57.4566 168.848ZM64.3498 164.16C64.3498 164.672 64.8778 165.072 65.9338 165.36C66.3284 165.445 66.6591 165.536 66.9258 165.632C67.2031 165.717 67.5018 165.851 67.8218 166.032C68.1524 166.213 68.4031 166.453 68.5738 166.752C68.7444 167.051 68.8298 167.403 68.8298 167.808C68.8298 168.533 68.5471 169.115 67.9818 169.552C67.4164 169.989 66.7018 170.208 65.8378 170.208C65.0698 170.208 64.4031 170.043 63.8378 169.712C63.2831 169.371 62.8884 168.912 62.6538 168.336L63.8538 167.648C63.9818 168.032 64.2218 168.336 64.5738 168.56C64.9258 168.784 65.3471 168.896 65.8378 168.896C66.3178 168.896 66.7018 168.805 66.9898 168.624C67.2778 168.443 67.4218 168.171 67.4218 167.808C67.4218 167.264 66.8938 166.869 65.8378 166.624C65.4858 166.528 65.2191 166.453 65.0378 166.4C64.8564 166.347 64.6058 166.251 64.2858 166.112C63.9764 165.973 63.7418 165.829 63.5818 165.68C63.4218 165.52 63.2724 165.312 63.1338 165.056C63.0058 164.789 62.9418 164.496 62.9418 164.176C62.9418 163.483 63.2084 162.912 63.7418 162.464C64.2858 162.016 64.9631 161.792 65.7738 161.792C66.4244 161.792 67.0004 161.941 67.5018 162.24C68.0138 162.528 68.3978 162.933 68.6538 163.456L67.4858 164.112C67.1978 163.429 66.6271 163.088 65.7738 163.088C65.3684 163.088 65.0271 163.184 64.7498 163.376C64.4831 163.568 64.3498 163.829 64.3498 164.16ZM71.1779 164.16C71.1779 164.672 71.7059 165.072 72.7619 165.36C73.1565 165.445 73.4872 165.536 73.7539 165.632C74.0312 165.717 74.3299 165.851 74.6499 166.032C74.9805 166.213 75.2312 166.453 75.4019 166.752C75.5725 167.051 75.6579 167.403 75.6579 167.808C75.6579 168.533 75.3752 169.115 74.8099 169.552C74.2445 169.989 73.5299 170.208 72.6659 170.208C71.8979 170.208 71.2312 170.043 70.6659 169.712C70.1112 169.371 69.7165 168.912 69.4819 168.336L70.6819 167.648C70.8099 168.032 71.0499 168.336 71.4019 168.56C71.7539 168.784 72.1752 168.896 72.6659 168.896C73.1459 168.896 73.5299 168.805 73.8179 168.624C74.1059 168.443 74.2499 168.171 74.2499 167.808C74.2499 167.264 73.7219 166.869 72.6659 166.624C72.3139 166.528 72.0472 166.453 71.8659 166.4C71.6845 166.347 71.4339 166.251 71.1139 166.112C70.8045 165.973 70.5699 165.829 70.4099 165.68C70.2499 165.52 70.1005 165.312 69.9619 165.056C69.8339 164.789 69.7699 164.496 69.7699 164.176C69.7699 163.483 70.0365 162.912 70.5699 162.464C71.1139 162.016 71.7912 161.792 72.6019 161.792C73.2525 161.792 73.8285 161.941 74.3299 162.24C74.8419 162.528 75.2259 162.933 75.4819 163.456L74.3139 164.112C74.0259 163.429 73.4552 163.088 72.6019 163.088C72.1965 163.088 71.8552 163.184 71.5779 163.376C71.3112 163.568 71.1779 163.829 71.1779 164.16ZM86.714 170.208C85.0073 170.208 83.6047 169.648 82.506 168.528C81.4073 167.419 80.858 166.043 80.858 164.4C80.858 162.757 81.4073 161.381 82.506 160.272C83.6047 159.152 85.0073 158.592 86.714 158.592C87.7273 158.592 88.666 158.837 89.53 159.328C90.394 159.819 91.066 160.48 91.546 161.312L90.25 162.064C89.93 161.445 89.45 160.955 88.81 160.592C88.1807 160.219 87.482 160.032 86.714 160.032C85.4127 160.032 84.3567 160.448 83.546 161.28C82.7353 162.101 82.33 163.141 82.33 164.4C82.33 165.648 82.7353 166.683 83.546 167.504C84.3567 168.336 85.4127 168.752 86.714 168.752C87.482 168.752 88.1807 168.571 88.81 168.208C89.45 167.835 89.93 167.344 90.25 166.736L91.546 167.472C91.0767 168.304 90.41 168.971 89.546 169.472C88.6927 169.963 87.7487 170.208 86.714 170.208ZM97.1181 161.792C98.0568 161.792 98.8088 162.091 99.3741 162.688C99.9395 163.275 100.222 164.075 100.222 165.088V170H98.8301V165.168C98.8301 164.528 98.6541 164.027 98.3021 163.664C97.9501 163.301 97.4648 163.12 96.8461 163.12C96.1315 163.12 95.5661 163.344 95.1501 163.792C94.7341 164.229 94.5261 164.885 94.5261 165.76V170H93.1341V158.8H94.5261V163.152C95.0808 162.245 95.9448 161.792 97.1181 161.792ZM108.789 163.376V162H110.181V170H108.789V168.624C108.107 169.68 107.099 170.208 105.765 170.208C104.635 170.208 103.68 169.803 102.901 168.992C102.112 168.171 101.717 167.173 101.717 166C101.717 164.837 102.112 163.845 102.901 163.024C103.691 162.203 104.645 161.792 105.765 161.792C107.099 161.792 108.107 162.32 108.789 163.376ZM105.941 168.864C106.752 168.864 107.429 168.592 107.973 168.048C108.517 167.483 108.789 166.8 108.789 166C108.789 165.189 108.517 164.512 107.973 163.968C107.429 163.413 106.752 163.136 105.941 163.136C105.141 163.136 104.469 163.413 103.925 163.968C103.381 164.512 103.109 165.189 103.109 166C103.109 166.8 103.381 167.483 103.925 168.048C104.469 168.592 105.141 168.864 105.941 168.864ZM112.994 160.544C112.728 160.544 112.504 160.453 112.322 160.272C112.141 160.091 112.05 159.872 112.05 159.616C112.05 159.36 112.141 159.141 112.322 158.96C112.504 158.768 112.728 158.672 112.994 158.672C113.25 158.672 113.469 158.768 113.65 158.96C113.832 159.141 113.922 159.36 113.922 159.616C113.922 159.872 113.832 160.091 113.65 160.272C113.469 160.453 113.25 160.544 112.994 160.544ZM113.682 170H112.29V162H113.682V170ZM119.79 161.792C120.729 161.792 121.481 162.091 122.046 162.688C122.611 163.275 122.894 164.075 122.894 165.088V170H121.502V165.168C121.502 164.528 121.326 164.027 120.974 163.664C120.622 163.301 120.137 163.12 119.518 163.12C118.803 163.12 118.238 163.344 117.822 163.792C117.406 164.229 117.198 164.885 117.198 165.76V170H115.806V162H117.198V163.152C117.753 162.245 118.617 161.792 119.79 161.792Z" fill="#1A2B6B"/>
<path d="M37.056 228.24V220.8H38.544V228.176C38.544 228.976 38.7787 229.605 39.248 230.064C39.728 230.523 40.4 230.752 41.264 230.752C42.128 230.752 42.7947 230.523 43.264 230.064C43.744 229.605 43.984 228.976 43.984 228.176V220.8H45.456V228.24C45.456 229.456 45.0667 230.421 44.288 231.136C43.5093 231.851 42.5013 232.208 41.264 232.208C40.016 232.208 39.0027 231.851 38.224 231.136C37.4453 230.421 37.056 229.456 37.056 228.24ZM48.7091 226.16C48.7091 226.672 49.2371 227.072 50.2931 227.36C50.6878 227.445 51.0185 227.536 51.2851 227.632C51.5625 227.717 51.8611 227.851 52.1811 228.032C52.5118 228.213 52.7625 228.453 52.9331 228.752C53.1038 229.051 53.1891 229.403 53.1891 229.808C53.1891 230.533 52.9065 231.115 52.3411 231.552C51.7758 231.989 51.0611 232.208 50.1971 232.208C49.4291 232.208 48.7625 232.043 48.1971 231.712C47.6425 231.371 47.2478 230.912 47.0131 230.336L48.2131 229.648C48.3411 230.032 48.5811 230.336 48.9331 230.56C49.2851 230.784 49.7065 230.896 50.1971 230.896C50.6771 230.896 51.0611 230.805 51.3491 230.624C51.6371 230.443 51.7811 230.171 51.7811 229.808C51.7811 229.264 51.2531 228.869 50.1971 228.624C49.8451 228.528 49.5785 228.453 49.3971 228.4C49.2158 228.347 48.9651 228.251 48.6451 228.112C48.3358 227.973 48.1011 227.829 47.9411 227.68C47.7811 227.52 47.6318 227.312 47.4931 227.056C47.3651 226.789 47.3011 226.496 47.3011 226.176C47.3011 225.483 47.5678 224.912 48.1011 224.464C48.6451 224.016 49.3225 223.792 50.1331 223.792C50.7838 223.792 51.3598 223.941 51.8611 224.24C52.3731 224.528 52.7571 224.933 53.0131 225.456L51.8451 226.112C51.5571 225.429 50.9865 225.088 50.1331 225.088C49.7278 225.088 49.3865 225.184 49.1091 225.376C48.8425 225.568 48.7091 225.829 48.7091 226.16ZM62.2985 228.64H55.5945C55.7332 229.344 56.0585 229.899 56.5705 230.304C57.0825 230.699 57.7225 230.896 58.4905 230.896C59.5465 230.896 60.3145 230.507 60.7945 229.728L61.9785 230.4C61.1892 231.605 60.0158 232.208 58.4585 232.208C57.1998 232.208 56.1652 231.813 55.3545 231.024C54.5652 230.213 54.1705 229.205 54.1705 228C54.1705 226.784 54.5598 225.781 55.3385 224.992C56.1172 224.192 57.1252 223.792 58.3625 223.792C59.5358 223.792 60.4905 224.208 61.2265 225.04C61.9732 225.851 62.3465 226.843 62.3465 228.016C62.3465 228.219 62.3305 228.427 62.2985 228.64ZM58.3625 225.104C57.6265 225.104 57.0078 225.312 56.5065 225.728C56.0158 226.144 55.7118 226.709 55.5945 227.424H60.9385C60.8212 226.688 60.5278 226.117 60.0585 225.712C59.5892 225.307 59.0238 225.104 58.3625 225.104ZM65.3386 224V225.344C65.7973 224.352 66.6293 223.856 67.8346 223.856V225.312C67.152 225.28 66.5653 225.461 66.0746 225.856C65.584 226.251 65.3386 226.885 65.3386 227.76V232H63.9466V224H65.3386ZM74.8286 227.04V230.592H80.0286V232H73.3406V220.8H79.9486V222.208H74.8286V225.648H79.5486V227.04H74.8286ZM85.569 227.872L88.625 232H86.993L84.753 228.976L82.497 232H80.865L83.937 227.888L81.041 224H82.689L84.753 226.784L86.817 224H88.449L85.569 227.872ZM94.3314 223.792C95.4514 223.792 96.406 224.203 97.1954 225.024C97.9847 225.845 98.3794 226.837 98.3794 228C98.3794 229.173 97.9847 230.171 97.1954 230.992C96.4167 231.803 95.462 232.208 94.3314 232.208C93.0087 232.208 92.0007 231.68 91.3074 230.624V235.2H89.9154V224H91.3074V225.376C92.0007 224.32 93.0087 223.792 94.3314 223.792ZM94.1554 230.864C94.9554 230.864 95.6274 230.592 96.1714 230.048C96.7154 229.483 96.9874 228.8 96.9874 228C96.9874 227.189 96.7154 226.512 96.1714 225.968C95.6274 225.413 94.9554 225.136 94.1554 225.136C93.3447 225.136 92.6674 225.413 92.1234 225.968C91.5794 226.512 91.3074 227.189 91.3074 228C91.3074 228.8 91.5794 229.483 92.1234 230.048C92.6674 230.592 93.3447 230.864 94.1554 230.864ZM107.72 228.64H101.016C101.155 229.344 101.48 229.899 101.992 230.304C102.504 230.699 103.144 230.896 103.912 230.896C104.968 230.896 105.736 230.507 106.216 229.728L107.4 230.4C106.611 231.605 105.438 232.208 103.88 232.208C102.622 232.208 101.587 231.813 100.776 231.024C99.987 230.213 99.5924 229.205 99.5924 228C99.5924 226.784 99.9817 225.781 100.76 224.992C101.539 224.192 102.547 223.792 103.784 223.792C104.958 223.792 105.912 224.208 106.648 225.04C107.395 225.851 107.768 226.843 107.768 228.016C107.768 228.219 107.752 228.427 107.72 228.64ZM103.784 225.104C103.048 225.104 102.43 225.312 101.928 225.728C101.438 226.144 101.134 226.709 101.016 227.424H106.36C106.243 226.688 105.95 226.117 105.48 225.712C105.011 225.307 104.446 225.104 103.784 225.104ZM110.761 224V225.344C111.219 224.352 112.051 223.856 113.257 223.856V225.312C112.574 225.28 111.987 225.461 111.497 225.856C111.006 226.251 110.761 226.885 110.761 227.76V232H109.368V224H110.761ZM115.323 222.544C115.056 222.544 114.832 222.453 114.651 222.272C114.469 222.091 114.379 221.872 114.379 221.616C114.379 221.36 114.469 221.141 114.651 220.96C114.832 220.768 115.056 220.672 115.323 220.672C115.579 220.672 115.797 220.768 115.979 220.96C116.16 221.141 116.251 221.36 116.251 221.616C116.251 221.872 116.16 222.091 115.979 222.272C115.797 222.453 115.579 222.544 115.323 222.544ZM116.011 232H114.618V224H116.011V232ZM125.814 228.64H119.11C119.249 229.344 119.574 229.899 120.086 230.304C120.598 230.699 121.238 230.896 122.006 230.896C123.062 230.896 123.83 230.507 124.31 229.728L125.494 230.4C124.705 231.605 123.531 232.208 121.974 232.208C120.715 232.208 119.681 231.813 118.87 231.024C118.081 230.213 117.686 229.205 117.686 228C117.686 226.784 118.075 225.781 118.854 224.992C119.633 224.192 120.641 223.792 121.878 223.792C123.051 223.792 124.006 224.208 124.742 225.04C125.489 225.851 125.862 226.843 125.862 228.016C125.862 228.219 125.846 228.427 125.814 228.64ZM121.878 225.104C121.142 225.104 120.523 225.312 120.022 225.728C119.531 226.144 119.227 226.709 119.11 227.424H124.454C124.337 226.688 124.043 226.117 123.574 225.712C123.105 225.307 122.539 225.104 121.878 225.104ZM131.446 223.792C132.385 223.792 133.137 224.091 133.702 224.688C134.268 225.275 134.55 226.075 134.55 227.088V232H133.158V227.168C133.158 226.528 132.982 226.027 132.63 225.664C132.278 225.301 131.793 225.12 131.174 225.12C130.46 225.12 129.894 225.344 129.478 225.792C129.062 226.229 128.854 226.885 128.854 227.76V232H127.462V224H128.854V225.152C129.409 224.245 130.273 223.792 131.446 223.792ZM140.254 232.208C139.048 232.208 138.046 231.808 137.246 231.008C136.446 230.197 136.046 229.195 136.046 228C136.046 226.805 136.446 225.808 137.246 225.008C138.046 224.197 139.048 223.792 140.254 223.792C141.043 223.792 141.752 223.984 142.382 224.368C143.011 224.741 143.48 225.248 143.79 225.888L142.622 226.56C142.419 226.133 142.104 225.792 141.678 225.536C141.262 225.28 140.787 225.152 140.254 225.152C139.454 225.152 138.782 225.424 138.238 225.968C137.704 226.523 137.438 227.2 137.438 228C137.438 228.789 137.704 229.461 138.238 230.016C138.782 230.56 139.454 230.832 140.254 230.832C140.787 230.832 141.267 230.709 141.694 230.464C142.12 230.208 142.446 229.867 142.67 229.44L143.854 230.128C143.502 230.768 143.006 231.275 142.366 231.648C141.726 232.021 141.022 232.208 140.254 232.208ZM152.799 228.64H146.095C146.233 229.344 146.559 229.899 147.071 230.304C147.583 230.699 148.223 230.896 148.991 230.896C150.047 230.896 150.815 230.507 151.295 229.728L152.479 230.4C151.689 231.605 150.516 232.208 148.959 232.208C147.7 232.208 146.665 231.813 145.855 231.024C145.065 230.213 144.671 229.205 144.671 228C144.671 226.784 145.06 225.781 145.839 224.992C146.617 224.192 147.625 223.792 148.863 223.792C150.036 223.792 150.991 224.208 151.727 225.04C152.473 225.851 152.847 226.843 152.847 228.016C152.847 228.219 152.831 228.427 152.799 228.64ZM148.863 225.104C148.127 225.104 147.508 225.312 147.007 225.728C146.516 226.144 146.212 226.709 146.095 227.424H151.439C151.321 226.688 151.028 226.117 150.559 225.712C150.089 225.307 149.524 225.104 148.863 225.104Z" fill="#1A2B6B"/>
<path d="M371.075 37.224C369.976 37.224 369.048 36.9787 368.291 36.488C367.534 35.9973 366.995 35.32 366.675 34.456L368.563 33.352C369 34.4933 369.859 35.064 371.139 35.064C371.736 35.064 372.184 34.9573 372.483 34.744C372.782 34.5307 372.931 34.2427 372.931 33.88C372.931 33.4853 372.755 33.1813 372.403 32.968C372.051 32.744 371.422 32.504 370.515 32.248C369.534 31.9493 368.76 31.6027 368.195 31.208C367.491 30.6853 367.139 29.9173 367.139 28.904C367.139 27.88 367.496 27.0747 368.211 26.488C368.926 25.88 369.795 25.576 370.819 25.576C371.715 25.576 372.51 25.7947 373.203 26.232C373.896 26.6693 374.435 27.288 374.819 28.088L372.963 29.16C372.515 28.2 371.8 27.72 370.819 27.72C370.371 27.72 370.014 27.8267 369.747 28.04C369.48 28.2427 369.347 28.5093 369.347 28.84C369.347 29.192 369.491 29.48 369.779 29.704C370.099 29.928 370.664 30.1627 371.475 30.408L372.243 30.664C372.382 30.7067 372.622 30.7973 372.963 30.936C373.283 31.0533 373.518 31.1653 373.667 31.272C374.19 31.592 374.542 31.9227 374.723 32.264C375 32.712 375.139 33.24 375.139 33.848C375.139 34.8827 374.76 35.704 374.003 36.312C373.246 36.92 372.27 37.224 371.075 37.224ZM382.782 29.944V29H384.846V37H382.782V36.056C382.163 36.8347 381.294 37.224 380.174 37.224C379.107 37.224 378.19 36.8187 377.422 36.008C376.664 35.1867 376.286 34.184 376.286 33C376.286 31.8267 376.664 30.8293 377.422 30.008C378.19 29.1867 379.107 28.776 380.174 28.776C381.294 28.776 382.163 29.1653 382.782 29.944ZM378.974 34.632C379.39 35.048 379.918 35.256 380.558 35.256C381.198 35.256 381.726 35.048 382.142 34.632C382.568 34.2053 382.782 33.6613 382.782 33C382.782 32.3387 382.568 31.8 382.142 31.384C381.726 30.9573 381.198 30.744 380.558 30.744C379.918 30.744 379.39 30.9573 378.974 31.384C378.558 31.8 378.35 32.3387 378.35 33C378.35 33.6613 378.558 34.2053 378.974 34.632ZM388.781 37H386.717V25.32H388.781V37ZM398.447 33.848H392.415C392.681 34.8507 393.433 35.352 394.671 35.352C395.46 35.352 396.057 35.0853 396.463 34.552L398.127 35.512C397.337 36.6533 396.175 37.224 394.639 37.224C393.316 37.224 392.255 36.824 391.455 36.024C390.655 35.224 390.255 34.216 390.255 33C390.255 31.8053 390.649 30.8027 391.439 29.992C392.217 29.1813 393.231 28.776 394.479 28.776C395.663 28.776 396.628 29.1813 397.375 29.992C398.143 30.8027 398.527 31.8053 398.527 33C398.527 33.224 398.5 33.5067 398.447 33.848ZM392.383 32.248H396.463C396.345 31.7253 396.105 31.3253 395.743 31.048C395.391 30.7707 394.969 30.632 394.479 30.632C393.924 30.632 393.465 30.776 393.103 31.064C392.74 31.3413 392.5 31.736 392.383 32.248ZM405.151 31.24L408.591 37H406.079L403.903 33.352L401.727 37H399.231L402.655 31.256L399.407 25.8H401.903L403.903 29.16L405.903 25.8H408.399L405.151 31.24Z" fill="#1A2B6B"/>
<path d="M595.829 25.8H600.277C601.813 25.8 603.093 26.3387 604.117 27.416C605.152 28.4827 605.669 29.8107 605.669 31.4C605.669 32.9893 605.152 34.3173 604.117 35.384C603.093 36.4613 601.813 37 600.277 37H595.829V25.8ZM598.037 34.888H600.277C601.248 34.888 602.037 34.568 602.645 33.928C603.253 33.2667 603.557 32.424 603.557 31.4C603.557 30.3653 603.253 29.528 602.645 28.888C602.037 28.2373 601.248 27.912 600.277 27.912H598.037V34.888ZM611.181 32.904L614.109 37H611.725L609.997 34.568L608.253 37H605.869L608.797 32.92L605.997 29H608.381L609.997 31.256L611.613 29H613.981L611.181 32.904ZM616.543 31.272C616.543 31.6133 617.029 31.9067 617.999 32.152C618.341 32.2267 618.65 32.3173 618.927 32.424C619.205 32.52 619.482 32.664 619.759 32.856C620.047 33.0373 620.271 33.2827 620.431 33.592C620.591 33.9013 620.671 34.2587 620.671 34.664C620.671 35.4853 620.362 36.12 619.743 36.568C619.125 37.0053 618.362 37.224 617.455 37.224C615.813 37.224 614.693 36.5893 614.095 35.32L615.887 34.312C616.133 35.0053 616.655 35.352 617.455 35.352C618.191 35.352 618.559 35.1227 618.559 34.664C618.559 34.3227 618.074 34.0293 617.103 33.784C616.741 33.688 616.431 33.592 616.175 33.496C615.919 33.4 615.642 33.2613 615.343 33.08C615.045 32.888 614.815 32.648 614.655 32.36C614.506 32.0613 614.431 31.7147 614.431 31.32C614.431 30.5307 614.719 29.912 615.295 29.464C615.882 29.0053 616.607 28.776 617.471 28.776C618.122 28.776 618.714 28.9253 619.247 29.224C619.781 29.512 620.202 29.928 620.511 30.472L618.751 31.432C618.495 30.888 618.069 30.616 617.471 30.616C617.205 30.616 616.981 30.68 616.799 30.808C616.629 30.9253 616.543 31.08 616.543 31.272ZM627.969 29.944V29H630.033V37H627.969V36.056C627.351 36.8347 626.481 37.224 625.361 37.224C624.295 37.224 623.377 36.8187 622.609 36.008C621.852 35.1867 621.473 34.184 621.473 33C621.473 31.8267 621.852 30.8293 622.609 30.008C623.377 29.1867 624.295 28.776 625.361 28.776C626.481 28.776 627.351 29.1653 627.969 29.944ZM624.161 34.632C624.577 35.048 625.105 35.256 625.745 35.256C626.385 35.256 626.913 35.048 627.329 34.632C627.756 34.2053 627.969 33.6613 627.969 33C627.969 32.3387 627.756 31.8 627.329 31.384C626.913 30.9573 626.385 30.744 625.745 30.744C625.105 30.744 624.577 30.9573 624.161 31.384C623.745 31.8 623.537 32.3387 623.537 33C623.537 33.6613 623.745 34.2053 624.161 34.632ZM633.969 37H631.905V25.32H633.969V37ZM643.634 33.848H637.602C637.869 34.8507 638.621 35.352 639.858 35.352C640.647 35.352 641.245 35.0853 641.65 34.552L643.314 35.512C642.525 36.6533 641.362 37.224 639.826 37.224C638.503 37.224 637.442 36.824 636.642 36.024C635.842 35.224 635.442 34.216 635.442 33C635.442 31.8053 635.837 30.8027 636.626 29.992C637.405 29.1813 638.418 28.776 639.666 28.776C640.85 28.776 641.815 29.1813 642.562 29.992C643.33 30.8027 643.714 31.8053 643.714 33C643.714 33.224 643.687 33.5067 643.634 33.848ZM637.57 32.248H641.65C641.533 31.7253 641.293 31.3253 640.93 31.048C640.578 30.7707 640.157 30.632 639.666 30.632C639.111 30.632 638.653 30.776 638.29 31.064C637.927 31.3413 637.687 31.736 637.57 32.248Z" fill="#1A2B6B"/>
<path d="M792.972 31.192C793.953 31.7573 794.444 32.6107 794.444 33.752C794.444 34.7013 794.108 35.48 793.436 36.088C792.764 36.696 791.937 37 790.956 37H786.204V25.8H790.62C791.569 25.8 792.375 26.0987 793.036 26.696C793.697 27.2933 794.028 28.0453 794.028 28.952C794.028 29.88 793.676 30.6267 792.972 31.192ZM790.62 27.864H788.412V30.328H790.62C790.961 30.328 791.244 30.2107 791.468 29.976C791.703 29.7413 791.82 29.448 791.82 29.096C791.82 28.744 791.708 28.4507 791.484 28.216C791.26 27.9813 790.972 27.864 790.62 27.864ZM788.412 34.936H790.956C791.329 34.936 791.639 34.8133 791.884 34.568C792.129 34.312 792.252 33.992 792.252 33.608C792.252 33.2347 792.129 32.9253 791.884 32.68C791.639 32.424 791.329 32.296 790.956 32.296H788.412V34.936ZM796.82 28.04C796.478 28.04 796.18 27.9173 795.924 27.672C795.678 27.416 795.556 27.1173 795.556 26.776C795.556 26.4347 795.678 26.136 795.924 25.88C796.18 25.624 796.478 25.496 796.82 25.496C797.172 25.496 797.47 25.624 797.716 25.88C797.972 26.136 798.1 26.4347 798.1 26.776C798.1 27.1173 797.972 27.416 797.716 27.672C797.47 27.9173 797.172 28.04 796.82 28.04ZM797.86 37H795.796V29H797.86V37ZM804.197 28.776C805.082 28.776 805.802 29.0693 806.357 29.656C806.933 30.2533 807.221 31.064 807.221 32.088V37H805.157V32.344C805.157 31.8213 805.013 31.416 804.725 31.128C804.447 30.84 804.063 30.696 803.573 30.696C803.029 30.696 802.597 30.8667 802.277 31.208C801.967 31.5387 801.813 32.0293 801.813 32.68V37H799.749V29H801.813V29.896C802.303 29.1493 803.098 28.776 804.197 28.776ZM815.063 29.944V29H817.127V37H815.063V36.056C814.444 36.8347 813.575 37.224 812.455 37.224C811.388 37.224 810.471 36.8187 809.703 36.008C808.946 35.1867 808.567 34.184 808.567 33C808.567 31.8267 808.946 30.8293 809.703 30.008C810.471 29.1867 811.388 28.776 812.455 28.776C813.575 28.776 814.444 29.1653 815.063 29.944ZM811.255 34.632C811.671 35.048 812.199 35.256 812.839 35.256C813.479 35.256 814.007 35.048 814.423 34.632C814.85 34.2053 815.063 33.6613 815.063 33C815.063 32.3387 814.85 31.8 814.423 31.384C814.007 30.9573 813.479 30.744 812.839 30.744C812.199 30.744 811.671 30.9573 811.255 31.384C810.839 31.8 810.631 32.3387 810.631 33C810.631 33.6613 810.839 34.2053 811.255 34.632ZM823.447 28.776C824.332 28.776 825.052 29.0693 825.607 29.656C826.183 30.2533 826.471 31.064 826.471 32.088V37H824.407V32.344C824.407 31.8213 824.263 31.416 823.975 31.128C823.697 30.84 823.313 30.696 822.823 30.696C822.279 30.696 821.847 30.8667 821.527 31.208C821.217 31.5387 821.063 32.0293 821.063 32.68V37H818.999V29H821.063V29.896C821.553 29.1493 822.348 28.776 823.447 28.776ZM832.041 37.224C830.836 37.224 829.828 36.8187 829.017 36.008C828.217 35.1973 827.817 34.1947 827.817 33C827.817 31.8053 828.217 30.8027 829.017 29.992C829.828 29.1813 830.836 28.776 832.041 28.776C832.82 28.776 833.529 28.9627 834.169 29.336C834.809 29.7093 835.294 30.2107 835.625 30.84L833.849 31.88C833.689 31.5493 833.444 31.288 833.113 31.096C832.793 30.904 832.43 30.808 832.025 30.808C831.406 30.808 830.894 31.016 830.489 31.432C830.084 31.8373 829.881 32.36 829.881 33C829.881 33.6187 830.084 34.1413 830.489 34.568C830.894 34.9733 831.406 35.176 832.025 35.176C832.441 35.176 832.809 35.0853 833.129 34.904C833.46 34.712 833.705 34.4507 833.865 34.12L835.657 35.144C835.305 35.784 834.804 36.2907 834.153 36.664C833.513 37.0373 832.809 37.224 832.041 37.224ZM844.4 33.848H838.368C838.634 34.8507 839.386 35.352 840.624 35.352C841.413 35.352 842.01 35.0853 842.416 34.552L844.08 35.512C843.29 36.6533 842.128 37.224 840.592 37.224C839.269 37.224 838.208 36.824 837.408 36.024C836.608 35.224 836.208 34.216 836.208 33C836.208 31.8053 836.602 30.8027 837.392 29.992C838.17 29.1813 839.184 28.776 840.432 28.776C841.616 28.776 842.581 29.1813 843.328 29.992C844.096 30.8027 844.48 31.8053 844.48 33C844.48 33.224 844.453 33.5067 844.4 33.848ZM838.336 32.248H842.416C842.298 31.7253 842.058 31.3253 841.696 31.048C841.344 30.7707 840.922 30.632 840.432 30.632C839.877 30.632 839.418 30.776 839.056 31.064C838.693 31.3413 838.453 31.736 838.336 32.248ZM852.225 25.8V34.888H856.497V37H850.017V25.8H852.225ZM863.579 29.944V29H865.643V37H863.579V36.056C862.96 36.8347 862.091 37.224 860.971 37.224C859.904 37.224 858.987 36.8187 858.219 36.008C857.461 35.1867 857.083 34.184 857.083 33C857.083 31.8267 857.461 30.8293 858.219 30.008C858.987 29.1867 859.904 28.776 860.971 28.776C862.091 28.776 862.96 29.1653 863.579 29.944ZM859.771 34.632C860.187 35.048 860.715 35.256 861.355 35.256C861.995 35.256 862.523 35.048 862.939 34.632C863.365 34.2053 863.579 33.6613 863.579 33C863.579 32.3387 863.365 31.8 862.939 31.384C862.523 30.9573 861.995 30.744 861.355 30.744C860.715 30.744 860.187 30.9573 859.771 31.384C859.355 31.8 859.147 32.3387 859.147 33C859.147 33.6613 859.355 34.2053 859.771 34.632ZM872.794 33.32V29H874.858V37H872.794V36.104C872.304 36.8507 871.509 37.224 870.41 37.224C869.536 37.224 868.81 36.9307 868.234 36.344C867.669 35.7467 867.386 34.936 867.386 33.912V29H869.45V33.656C869.45 34.1787 869.589 34.584 869.866 34.872C870.154 35.16 870.544 35.304 871.034 35.304C871.578 35.304 872.005 35.1387 872.314 34.808C872.634 34.4667 872.794 33.9707 872.794 33.32ZM881.197 28.776C882.082 28.776 882.802 29.0693 883.357 29.656C883.933 30.2533 884.221 31.064 884.221 32.088V37H882.157V32.344C882.157 31.8213 882.013 31.416 881.725 31.128C881.447 30.84 881.063 30.696 880.573 30.696C880.029 30.696 879.597 30.8667 879.277 31.208C878.967 31.5387 878.813 32.0293 878.813 32.68V37H876.749V29H878.813V29.896C879.303 29.1493 880.098 28.776 881.197 28.776ZM889.791 37.224C888.586 37.224 887.578 36.8187 886.767 36.008C885.967 35.1973 885.567 34.1947 885.567 33C885.567 31.8053 885.967 30.8027 886.767 29.992C887.578 29.1813 888.586 28.776 889.791 28.776C890.57 28.776 891.279 28.9627 891.919 29.336C892.559 29.7093 893.044 30.2107 893.375 30.84L891.599 31.88C891.439 31.5493 891.194 31.288 890.863 31.096C890.543 30.904 890.18 30.808 889.775 30.808C889.156 30.808 888.644 31.016 888.239 31.432C887.834 31.8373 887.631 32.36 887.631 33C887.631 33.6187 887.834 34.1413 888.239 34.568C888.644 34.9733 889.156 35.176 889.775 35.176C890.191 35.176 890.559 35.0853 890.879 34.904C891.21 34.712 891.455 34.4507 891.615 34.12L893.407 35.144C893.055 35.784 892.554 36.2907 891.903 36.664C891.263 37.0373 890.559 37.224 889.791 37.224ZM898.947 28.776C899.832 28.776 900.552 29.0693 901.107 29.656C901.683 30.2533 901.971 31.064 901.971 32.088V37H899.907V32.344C899.907 31.8213 899.763 31.416 899.475 31.128C899.197 30.84 898.813 30.696 898.323 30.696C897.779 30.696 897.347 30.8667 897.027 31.208C896.717 31.5387 896.563 32.0293 896.563 32.68V37H894.499V25.8H896.563V29.896C897.053 29.1493 897.848 28.776 898.947 28.776ZM908.389 28.776C909.466 28.776 910.384 29.1867 911.141 30.008C911.909 30.8293 912.293 31.8267 912.293 33C912.293 34.1947 911.909 35.1973 911.141 36.008C910.394 36.8187 909.477 37.224 908.389 37.224C907.269 37.224 906.405 36.8347 905.797 36.056V40.2H903.733V29H905.797V29.944C906.405 29.1653 907.269 28.776 908.389 28.776ZM906.421 34.632C906.837 35.048 907.365 35.256 908.005 35.256C908.645 35.256 909.173 35.048 909.589 34.632C910.016 34.2053 910.229 33.6613 910.229 33C910.229 32.3387 910.016 31.8 909.589 31.384C909.173 30.9573 908.645 30.744 908.005 30.744C907.365 30.744 906.837 30.9573 906.421 31.384C906.005 31.8 905.797 32.3387 905.797 33C905.797 33.6613 906.005 34.2053 906.421 34.632ZM919.829 29.944V29H921.893V37H919.829V36.056C919.21 36.8347 918.341 37.224 917.221 37.224C916.154 37.224 915.237 36.8187 914.469 36.008C913.711 35.1867 913.333 34.184 913.333 33C913.333 31.8267 913.711 30.8293 914.469 30.008C915.237 29.1867 916.154 28.776 917.221 28.776C918.341 28.776 919.21 29.1653 919.829 29.944ZM916.021 34.632C916.437 35.048 916.965 35.256 917.605 35.256C918.245 35.256 918.773 35.048 919.189 34.632C919.615 34.2053 919.829 33.6613 919.829 33C919.829 32.3387 919.615 31.8 919.189 31.384C918.773 30.9573 918.245 30.744 917.605 30.744C916.965 30.744 916.437 30.9573 916.021 31.384C915.605 31.8 915.397 32.3387 915.397 33C915.397 33.6613 915.605 34.2053 916.021 34.632ZM929.828 29.944V25.8H931.892V37H929.828V36.056C929.22 36.8347 928.356 37.224 927.236 37.224C926.159 37.224 925.236 36.8187 924.468 36.008C923.711 35.1867 923.332 34.184 923.332 33C923.332 31.8267 923.711 30.8293 924.468 30.008C925.236 29.1867 926.159 28.776 927.236 28.776C928.356 28.776 929.22 29.1653 929.828 29.944ZM926.02 34.632C926.458 35.048 926.991 35.256 927.62 35.256C928.26 35.256 928.788 35.048 929.204 34.632C929.62 34.2053 929.828 33.6613 929.828 33C929.828 32.3387 929.62 31.8 929.204 31.384C928.788 30.9573 928.26 30.744 927.62 30.744C926.98 30.744 926.447 30.9573 926.02 31.384C925.604 31.8 925.396 32.3387 925.396 33C925.396 33.6613 925.604 34.2053 926.02 34.632Z" fill="#1A2B6B"/>
<rect x="379" y="94" width="17" height="7" fill="url(#paint0_linear)"/>
<rect x="379" y="160" width="17" height="7" fill="url(#paint1_linear)"/>
<rect x="611" y="160" width="17" height="7" fill="url(#paint2_linear)"/>
<rect x="379" y="224" width="17" height="7" fill="url(#paint3_linear)"/>
<rect x="850" y="224" width="17" height="7" fill="url(#paint4_linear)"/>
<defs>
<linearGradient id="paint0_linear" x1="376.917" y1="95.625" x2="399.501" y2="97.5877" gradientUnits="userSpaceOnUse">
<stop stop-color="#375BD2"/>
<stop offset="1" stop-color="#1A2B6B"/>
</linearGradient>
<linearGradient id="paint1_linear" x1="376.917" y1="161.625" x2="399.501" y2="163.588" gradientUnits="userSpaceOnUse">
<stop stop-color="#375BD2"/>
<stop offset="1" stop-color="#1A2B6B"/>
</linearGradient>
<linearGradient id="paint2_linear" x1="608.917" y1="161.625" x2="631.501" y2="163.588" gradientUnits="userSpaceOnUse">
<stop stop-color="#375BD2"/>
<stop offset="1" stop-color="#1A2B6B"/>
</linearGradient>
<linearGradient id="paint3_linear" x1="376.917" y1="225.625" x2="399.501" y2="227.588" gradientUnits="userSpaceOnUse">
<stop stop-color="#375BD2"/>
<stop offset="1" stop-color="#1A2B6B"/>
</linearGradient>
<linearGradient id="paint4_linear" x1="847.917" y1="225.625" x2="870.501" y2="227.588" gradientUnits="userSpaceOnUse">
<stop stop-color="#375BD2"/>
<stop offset="1" stop-color="#1A2B6B"/>
</linearGradient>
</defs>
</svg>
