<svg width="64" height="64" viewBox="0 0 64 64" fill="none" xmlns="http://www.w3.org/2000/svg">
<path d="M12.7605 1.19995H51.4395C57.814 1.19995 63 6.38596 63 12.7605V51.4394C63 57.8139 57.814 63 51.4395 63H12.7605C6.38602 63 1.20001 57.8139 1.20001 51.4394V12.7605C1.20001 6.38596 6.38602 1.19995 12.7605 1.19995Z" stroke="#2E3192" stroke-miterlimit="10"/>
<path d="M9.06006 36.1786V22.2682H13.4087V36.0165C13.4087 41.0945 15.5966 43.2823 19.3781 43.2823C23.1595 43.2823 25.3204 41.0945 25.3204 36.0165V22.2682H29.615V36.1786C29.615 43.3634 25.7525 47.2799 19.351 47.2799C12.9496 47.2799 9.06006 43.3634 9.06006 36.1786Z" stroke="black"/>
<path d="M49.8729 46.9288L43.4984 37.5561L37.178 46.9288H32.208L40.9324 34.3419L32.6672 22.2682H37.6101L43.6065 31.0466L49.5488 22.2682H54.2756L46.0644 34.1798L54.8969 46.9288H49.8729Z" stroke="black"/>
<path d="M42.8772 14.4622C43.817 14.4622 44.5788 13.7003 44.5788 12.7605C44.5788 11.8207 43.817 11.0588 42.8772 11.0588C41.9374 11.0588 41.1755 11.8207 41.1755 12.7605C41.1755 13.7003 41.9374 14.4622 42.8772 14.4622Z" stroke="#2E3192" stroke-miterlimit="10"/>
<path d="M48.0362 14.4622C48.976 14.4622 49.7379 13.7003 49.7379 12.7605C49.7379 11.8207 48.976 11.0588 48.0362 11.0588C47.0964 11.0588 46.3345 11.8207 46.3345 12.7605C46.3345 13.7003 47.0964 14.4622 48.0362 14.4622Z" stroke="#2E3192" stroke-miterlimit="10"/>
<path d="M53.1952 14.4622C54.135 14.4622 54.8969 13.7003 54.8969 12.7605C54.8969 11.8207 54.135 11.0588 53.1952 11.0588C52.2554 11.0588 51.4935 11.8207 51.4935 12.7605C51.4935 13.7003 52.2554 14.4622 53.1952 14.4622Z" stroke="#2E3192" stroke-miterlimit="10"/>
</svg>
