<svg width="61" height="52" viewBox="0 0 61 52" fill="none" xmlns="http://www.w3.org/2000/svg">
<path d="M26.1684 1C12.3126 1 1 12.5757 1 26.2561C1 40.0242 12.3126 51.2492 26.1684 51.2492C39.6735 51.2492 51.3369 40.1996 51.3369 26.2561C51.2492 12.7511 40.1119 1 26.1684 1ZM27.8347 7.8402L34.7626 2.7539C39.235 4.4201 43.1813 7.31404 46.0752 11.0849L43.269 19.1529L35.201 21.6083L27.8347 15.9958V7.8402ZM17.4866 2.7539L24.5022 7.8402V16.0835L16.8728 21.2575L9.41871 18.7144L6.78787 10.3834C9.5941 6.87556 13.2773 4.24471 17.4866 2.7539ZM5.12166 39.7612C2.6662 35.9903 1.08769 31.5178 1 26.6946L8.19099 21.7837L15.7328 24.3269L18.6267 33.3594L13.8035 39.8489L5.12166 39.7612ZM32.4825 50.3722C30.4655 50.8984 28.2731 51.2492 26.0808 51.2492C23.6253 51.2492 21.2575 50.8984 19.0652 50.1969L16.522 41.8658L21.3452 35.4641H30.6409L35.3764 42.1289L32.4825 50.3722ZM38.1827 40.1996L33.3594 33.3594L36.1657 24.7653L44.2336 22.3099L51.2492 27.4839C50.9861 32.3071 49.3199 36.6918 46.7768 40.375L38.1827 40.1996ZM25.8177 19.4159L18.9775 24.0638L22.0468 32.5702H29.7639L33.0087 24.0638L25.8177 19.4159Z" stroke="#191919" stroke-width="0.7049" stroke-miterlimit="10"/>
<path d="M49.4076 51.6C55.5585 51.6 60.5449 46.6136 60.5449 40.4627C60.5449 34.3118 55.5585 29.3254 49.4076 29.3254C43.2567 29.3254 38.2704 34.3118 38.2704 40.4627C38.2704 46.6136 43.2567 51.6 49.4076 51.6Z" fill="white" stroke="#375BD2" stroke-width="0.7049" stroke-miterlimit="10"/>
<path d="M54.0554 35.3764C51.8631 33.8856 44.6721 33.4472 44.6721 37.218C44.6721 41.5151 54.5816 39.5858 54.5816 43.6198C54.5816 47.9168 45.7244 46.8645 44.1459 44.9352" stroke="#375BD2" stroke-width="0.7049" stroke-miterlimit="10"/>
<path d="M49.4076 31.9563V48.8814" stroke="#375BD2" stroke-width="0.7049" stroke-miterlimit="10"/>
</svg>
