<svg width="67" height="49" viewBox="0 0 67 49" fill="none" xmlns="http://www.w3.org/2000/svg">
<path d="M3.16455 26.0124L23.447 35.9533L39.641 17.5146L64.4129 3.16455" stroke="#191919" stroke-width="0.7049" stroke-miterlimit="10"/>
<path d="M23.447 38.1178C24.6425 38.1178 25.6116 37.1487 25.6116 35.9532C25.6116 34.7578 24.6425 33.7887 23.447 33.7887C22.2516 33.7887 21.2825 34.7578 21.2825 35.9532C21.2825 37.1487 22.2516 38.1178 23.447 38.1178Z" fill="white" stroke="#191919" stroke-width="0.7049" stroke-miterlimit="10"/>
<path d="M3.16454 28.177C4.35998 28.177 5.32907 27.2079 5.32907 26.0124C5.32907 24.817 4.35998 23.8479 3.16454 23.8479C1.9691 23.8479 1 24.817 1 26.0124C1 27.2079 1.9691 28.177 3.16454 28.177Z" fill="white" stroke="#191919" stroke-width="0.7049" stroke-miterlimit="10"/>
<path d="M39.641 19.6792C40.8364 19.6792 41.8055 18.7101 41.8055 17.5146C41.8055 16.3192 40.8364 15.3501 39.641 15.3501C38.4455 15.3501 37.4764 16.3192 37.4764 17.5146C37.4764 18.7101 38.4455 19.6792 39.641 19.6792Z" fill="white" stroke="#191919" stroke-width="0.7049" stroke-miterlimit="10"/>
<path d="M64.4129 5.32907C65.6083 5.32907 66.5774 4.35998 66.5774 3.16454C66.5774 1.9691 65.6083 1 64.4129 1C63.2174 1 62.2483 1.9691 62.2483 3.16454C62.2483 4.35998 63.2174 5.32907 64.4129 5.32907Z" fill="white" stroke="#191919" stroke-width="0.7049" stroke-miterlimit="10"/>
<path d="M42.8477 45.4932H36.9153C36.5144 45.4932 36.1937 45.1726 36.1937 44.7717V30.4216C36.1937 30.0208 36.5144 29.7001 36.9153 29.7001H42.8477C43.2485 29.7001 43.5692 30.0208 43.5692 30.4216V44.7717C43.5692 45.1726 43.2485 45.4932 42.8477 45.4932Z" stroke="#375BD2" stroke-width="0.7049" stroke-miterlimit="10"/>
<path d="M39.8815 45.4932V48.6999" stroke="#375BD2" stroke-width="0.7049" stroke-miterlimit="10"/>
<path d="M39.8815 26.5736V29.7803" stroke="#375BD2" stroke-width="0.7049" stroke-miterlimit="10"/>
<path d="M63.9319 32.9069H57.9994C57.5986 32.9069 57.2779 32.5862 57.2779 32.1854V17.9155C57.2779 17.5146 57.5986 17.194 57.9994 17.194H63.9319C64.3327 17.194 64.6534 17.5146 64.6534 17.9155V32.2656C64.6534 32.5862 64.3327 32.9069 63.9319 32.9069Z" stroke="#375BD2" stroke-width="0.7049" stroke-miterlimit="10"/>
<path d="M61.0458 32.9069V36.1136" stroke="#375BD2" stroke-width="0.7049" stroke-miterlimit="10"/>
<path d="M61.0458 13.9872V17.194" stroke="#375BD2" stroke-width="0.7049" stroke-miterlimit="10"/>
<path d="M53.6704 34.2697H47.7379C47.3371 34.2697 47.0164 33.9491 47.0164 33.5482V25.7719C47.0164 25.3711 47.3371 25.0504 47.7379 25.0504H53.6704C54.0712 25.0504 54.3919 25.3711 54.3919 25.7719V33.5482C54.3919 33.9491 54.0712 34.2697 53.6704 34.2697Z" stroke="#191919" stroke-width="0.7049" stroke-miterlimit="10"/>
<path d="M50.7041 34.2697V37.3963" stroke="#191919" stroke-width="0.7049" stroke-miterlimit="10"/>
<path d="M50.7041 21.8438V25.0504" stroke="#191919" stroke-width="0.7049" stroke-miterlimit="10"/>
</svg>
